<?xml version="1.0" encoding="utf-8"?>
<!-- Generator: Adobe Illustrator 27.6.1, SVG Export Plug-In . SVG Version: 6.00 Build 0)  -->
<svg version="1.1" id="Layer_1" xmlns="http://www.w3.org/2000/svg" xmlns:xlink="http://www.w3.org/1999/xlink" x="0px" y="0px"
	 viewBox="0 0 512 512" style="enable-background:new 0 0 512 512;" xml:space="preserve">
<style type="text/css">
	.st0{fill:#032B75;}
	.st1{fill:#F96700;}
</style>
<g>
	<polygon class="st0" points="64.14,198.04 30.77,208.34 0,263.87 27.28,263.87 	"/>
	<polygon class="st0" points="0.27,274.38 21.57,313.96 49.34,313.96 26.72,274.38 	"/>
	<path class="st1" d="M102.89,269.62l-16.93-31.38C75.8,256.21,57.55,288.4,51.41,298.8l8.48,15.17h17.88L102.89,269.62z"/>
	<path class="st1" d="M46.34,289.74l34.33-61.32l-11.16-20.7c-8.77,15.49-26.87,47.43-34.83,61.15L46.34,289.74z"/>
	<path class="st0" d="M142.21,253.43v12.77h22.38v8.97h-22.38v17.61h-11.19v-48.33h36.54v8.97H142.21z"/>
	<path class="st0" d="M168.45,274.23c0-11.19,8.64-19.13,20.44-19.13s20.38,7.94,20.38,19.13s-8.57,19.13-20.38,19.13
		S168.45,285.42,168.45,274.23z M198.35,274.23c0-6.42-4.07-10.29-9.46-10.29c-5.39,0-9.54,3.87-9.54,10.29s4.15,10.29,9.54,10.29
		C194.28,284.52,198.35,280.65,198.35,274.23z"/>
	<path class="st0" d="M237.29,255.1v9.94c-0.9-0.07-1.59-0.13-2.42-0.13c-5.94,0-9.87,3.25-9.87,10.36v17.54h-10.77v-37.15h10.29
		v4.9C227.13,256.95,231.55,255.1,237.29,255.1z"/>
	<path class="st0" d="M280.73,255.65v30.95c0,13.81-7.46,20.16-20.86,20.16c-7.04,0-13.88-1.73-18.23-5.1l4.29-7.74
		c3.82,2.76,8.41,4.24,13.12,4.22c7.6,0,10.91-3.45,10.91-10.16v-1.59c-3.07,3.16-7.34,4.84-11.74,4.62
		c-10.29,0-18.58-7.12-18.58-17.96c0-10.84,8.29-17.96,18.58-17.96c5.18,0,9.46,1.73,12.29,5.32v-4.77H280.73z M270.09,273.05
		c0-5.45-4.07-9.12-9.74-9.12c-5.67,0-9.81,3.67-9.81,9.12s4.15,9.12,9.81,9.12C266.02,282.17,270.09,278.51,270.09,273.05z"/>
	<path class="st0" d="M324.52,277.26H296.4c1.03,4.62,4.97,7.46,10.64,7.46c3.47,0.14,6.84-1.16,9.32-3.59l5.74,6.22
		c-3.45,3.94-8.64,6-15.33,6c-12.84,0-21.21-8.09-21.21-19.13c0-11.12,8.49-19.13,19.83-19.13c10.91,0,19.34,7.32,19.34,19.28
		C324.72,275.2,324.59,276.36,324.52,277.26z M296.27,270.98h18.31c-0.85-5.06-5.65-8.46-10.7-7.61
		C299.98,264.03,296.93,267.08,296.27,270.98z"/>
	<path class="st0" d="M360.48,292.81l-9.32-13.47h-10.29v13.47h-11.19v-48.34h20.93c12.92,0,21,6.7,21,17.54
		c0.27,6.68-3.72,12.81-9.94,15.26l10.84,15.54H360.48z M349.99,253.57h-9.12v16.86h9.12c6.84,0,10.29-3.17,10.29-8.42
		C360.28,256.69,356.82,253.57,349.99,253.57L349.99,253.57z"/>
	<path class="st0" d="M374.89,274.23c0-11.19,8.64-19.13,20.44-19.13c11.81,0,20.38,7.94,20.38,19.13s-8.57,19.13-20.38,19.13
		C383.52,293.36,374.89,285.42,374.89,274.23z M404.79,274.23c0-6.42-4.07-10.29-9.46-10.29s-9.54,3.87-9.54,10.29
		s4.15,10.29,9.54,10.29S404.79,280.65,404.79,274.23z"/>
	<path class="st0" d="M420.41,274.23c0-11.19,8.64-19.13,20.73-19.13c7.8,0,13.96,3.39,16.64,9.46l-8.36,4.49
		c-1.58-3.16-4.82-5.13-8.36-5.1c-5.45,0-9.74,3.8-9.74,10.29c0,6.49,4.29,10.29,9.74,10.29c3.54,0.06,6.79-1.93,8.36-5.1l8.36,4.55
		c-2.7,5.94-8.84,9.39-16.64,9.39C429.05,293.36,420.41,285.42,420.41,274.23z"/>
	<path class="st0" d="M479.16,278.23l-5.18,5.1v9.46H463.2v-51.23h10.77v29.01l15.74-14.92h12.84l-15.47,15.74l16.86,21.41h-13.06
		L479.16,278.23z"/>
	<path class="st0" d="M512,260.06c0.06,2.3-1.76,4.21-4.06,4.27s-4.21-1.76-4.27-4.06c-0.06-2.3,1.76-4.21,4.06-4.27
		c0.04,0,0.08,0,0.12,0c2.25-0.05,4.1,1.74,4.15,3.98C512,260.01,512,260.03,512,260.06z M504.7,260.06
		c0.06,1.73,1.51,3.07,3.24,3.01c1.73-0.06,3.07-1.51,3.01-3.24c-0.06-1.68-1.44-3.01-3.12-3.01c-1.73,0-3.14,1.41-3.13,3.14
		C504.7,260,504.7,260.03,504.7,260.06z M507.2,262.18h-0.94v-4.06c0.51-0.09,1.04-0.13,1.56-0.12c0.49-0.04,0.98,0.06,1.41,0.3
		c0.26,0.22,0.4,0.55,0.39,0.89c-0.04,0.47-0.38,0.85-0.85,0.94v0.05c0.41,0.17,0.7,0.55,0.74,0.99c0.04,0.35,0.14,0.69,0.3,1.01
		h-1.01c-0.16-0.31-0.27-0.65-0.32-0.99c-0.08-0.44-0.32-0.64-0.85-0.64h-0.44v1.64H507.2z M507.23,259.88h0.44
		c0.52,0,0.94-0.17,0.94-0.59c0-0.38-0.27-0.62-0.86-0.62c-0.18,0-0.35,0.02-0.52,0.05L507.23,259.88L507.23,259.88z"/>
</g>
</svg>
