<?xml version="1.0" encoding="UTF-8"?>
<!DOCTYPE svg PUBLIC "-//W3C//DTD SVG 1.1//EN" "http://www.w3.org/Graphics/SVG/1.1/DTD/svg11.dtd">
<svg version="1.2" width="114.3mm" height="25.4mm" viewBox="0 0 11430 2540" preserveAspectRatio="xMidYMid" fill-rule="evenodd" stroke-width="28.222" stroke-linejoin="round" xmlns="http://www.w3.org/2000/svg" xmlns:ooo="http://xml.openoffice.org/svg/export" xmlns:xlink="http://www.w3.org/1999/xlink" xmlns:presentation="http://sun.com/xmlns/staroffice/presentation" xmlns:smil="http://www.w3.org/2001/SMIL20/" xmlns:anim="urn:oasis:names:tc:opendocument:xmlns:animation:1.0" xmlns:svg="urn:oasis:names:tc:opendocument:xmlns:svg-compatible:1.0" xml:space="preserve">
 <defs class="ClipPathGroup">
  <clipPath id="presentation_clip_path" clipPathUnits="userSpaceOnUse">
   <rect x="0" y="0" width="11430" height="2540"/>
  </clipPath>
  <clipPath id="presentation_clip_path_shrink" clipPathUnits="userSpaceOnUse">
   <rect x="11" y="2" width="11408" height="2535"/>
  </clipPath>
 </defs>
 <defs class="TextShapeIndex">
  <g ooo:slide="id1" ooo:id-list="id3"/>
 </defs>
 <defs class="EmbeddedBulletChars">
  <g id="bullet-char-template-57356" transform="scale(0.00048828125,-0.00048828125)">
   <path d="M 580,1141 L 1163,571 580,0 -4,571 580,1141 Z"/>
  </g>
  <g id="bullet-char-template-57354" transform="scale(0.00048828125,-0.00048828125)">
   <path d="M 8,1128 L 1137,1128 1137,0 8,0 8,1128 Z"/>
  </g>
  <g id="bullet-char-template-10146" transform="scale(0.00048828125,-0.00048828125)">
   <path d="M 174,0 L 602,739 174,1481 1456,739 174,0 Z M 1358,739 L 309,1346 659,739 1358,739 Z"/>
  </g>
  <g id="bullet-char-template-10132" transform="scale(0.00048828125,-0.00048828125)">
   <path d="M 2015,739 L 1276,0 717,0 1260,543 174,543 174,936 1260,936 717,1481 1274,1481 2015,739 Z"/>
  </g>
  <g id="bullet-char-template-10007" transform="scale(0.00048828125,-0.00048828125)">
   <path d="M 0,-2 C -7,14 -16,27 -25,37 L 356,567 C 262,823 215,952 215,954 215,979 228,992 255,992 264,992 276,990 289,987 310,991 331,999 354,1012 L 381,999 492,748 772,1049 836,1024 860,1049 C 881,1039 901,1025 922,1006 886,937 835,863 770,784 769,783 710,716 594,584 L 774,223 C 774,196 753,168 711,139 L 727,119 C 717,90 699,76 672,76 641,76 570,178 457,381 L 164,-76 C 142,-110 111,-127 72,-127 30,-127 9,-110 8,-76 1,-67 -2,-52 -2,-32 -2,-23 -1,-13 0,-2 Z"/>
  </g>
  <g id="bullet-char-template-10004" transform="scale(0.00048828125,-0.00048828125)">
   <path d="M 285,-33 C 182,-33 111,30 74,156 52,228 41,333 41,471 41,549 55,616 82,672 116,743 169,778 240,778 293,778 328,747 346,684 L 369,508 C 377,444 397,411 428,410 L 1163,1116 C 1174,1127 1196,1133 1229,1133 1271,1133 1292,1118 1292,1087 L 1292,965 C 1292,929 1282,901 1262,881 L 442,47 C 390,-6 338,-33 285,-33 Z"/>
  </g>
  <g id="bullet-char-template-9679" transform="scale(0.00048828125,-0.00048828125)">
   <path d="M 813,0 C 632,0 489,54 383,161 276,268 223,411 223,592 223,773 276,916 383,1023 489,1130 632,1184 813,1184 992,1184 1136,1130 1245,1023 1353,916 1407,772 1407,592 1407,412 1353,268 1245,161 1136,54 992,0 813,0 Z"/>
  </g>
  <g id="bullet-char-template-8226" transform="scale(0.00048828125,-0.00048828125)">
   <path d="M 346,457 C 273,457 209,483 155,535 101,586 74,649 74,723 74,796 101,859 155,911 209,963 273,989 346,989 419,989 480,963 531,910 582,859 608,796 608,723 608,648 583,586 532,535 482,483 420,457 346,457 Z"/>
  </g>
  <g id="bullet-char-template-8211" transform="scale(0.00048828125,-0.00048828125)">
   <path d="M -4,459 L 1135,459 1135,606 -4,606 -4,459 Z"/>
  </g>
  <g id="bullet-char-template-61548" transform="scale(0.00048828125,-0.00048828125)">
   <path d="M 173,740 C 173,903 231,1043 346,1159 462,1274 601,1332 765,1332 928,1332 1067,1274 1183,1159 1299,1043 1357,903 1357,740 1357,577 1299,437 1183,322 1067,206 928,148 765,148 601,148 462,206 346,322 231,437 173,577 173,740 Z"/>
  </g>
 </defs>
 <g>
  <g id="id2" class="Master_Slide">
   <g id="bg-id2" class="Background"/>
   <g id="bo-id2" class="BackgroundObjects"/>
  </g>
 </g>
 <g class="SlideGroup">
  <g>
   <g id="container-id1">
    <g id="id1" class="Slide" clip-path="url(#presentation_clip_path)">
     <g class="Page">
      <g class="Graphic">
       <title>nutanix-seeklogo.com
       </title>
       <desc>Created with Sketch.
       </desc>
       <g id="id3">
        <rect class="BoundingBox" stroke="none" fill="none" x="700" y="600" width="10054" height="1323"/>
        <path fill="rgb(168,203,58)" stroke="none" d="M 9264,1884 C 9259,1889 9252,1891 9245,1891 L 8882,1891 C 8870,1891 8859,1885 8854,1874 8849,1862 8852,1848 8862,1840 L 9526,1281 C 9540,1269 9540,1246 9526,1234 L 8863,671 C 8855,664 8850,654 8852,643 8854,629 8867,619 8880,619 L 9231,619 C 9237,619 9244,622 9249,626 L 9972,1233 9978,1239 C 9989,1248 9990,1265 9979,1275 L 9972,1282 9264,1884 Z"/>
        <path fill="rgb(23,68,137)" stroke="none" d="M 2171,628 L 1949,628 C 1922,628 1900,650 1900,677 L 1900,1394 C 1900,1410 1881,1419 1868,1408 L 1046,694 C 990,645 929,620 865,620 809,620 713,643 713,798 L 713,1835 C 713,1862 735,1884 762,1884 L 983,1884 C 1010,1884 1032,1862 1032,1835 L 1032,1115 C 1032,1098 1052,1089 1064,1101 L 1895,1826 C 1946,1872 2002,1895 2061,1895 2120,1895 2219,1871 2219,1709 L 2219,677 C 2219,650 2197,628 2171,628 Z"/>
        <path fill="rgb(23,68,137)" stroke="none" d="M 3794,628 L 3536,628 C 3521,628 3508,641 3508,657 L 3508,1497 C 3508,1566 3422,1601 3252,1601 L 2901,1601 C 2729,1601 2641,1566 2641,1497 L 2641,657 C 2641,641 2628,628 2612,628 L 2351,628 C 2335,628 2322,641 2322,657 L 2322,1509 C 2322,1569 2332,1620 2352,1661 2371,1702 2397,1738 2430,1766 2462,1794 2500,1817 2542,1832 2583,1848 2626,1859 2669,1867 2713,1875 2758,1879 2804,1881 2849,1883 2891,1884 2930,1884 L 3215,1884 C 3425,1884 3574,1855 3672,1795 3772,1734 3823,1638 3823,1509 L 3823,657 C 3823,641 3810,628 3794,628 Z"/>
        <path fill="rgb(23,68,137)" stroke="none" d="M 5303,850 L 5303,685 C 5303,653 5277,627 5245,627 L 3983,627 C 3951,627 3925,653 3925,685 L 3925,850 C 3925,882 3951,908 3983,908 L 4424,908 C 4441,908 4454,921 4454,937 L 4454,1826 C 4454,1858 4480,1884 4512,1884 L 4714,1884 C 4746,1884 4772,1858 4772,1826 L 4772,937 C 4772,921 4786,908 4802,908 L 5245,908 C 5277,908 5303,882 5303,850 Z"/>
        <path fill="rgb(23,68,137)" stroke="none" d="M 5634,1253 L 5795,1021 C 5803,1010 5818,1010 5826,1020 L 5989,1251 C 5997,1262 5989,1277 5976,1277 L 5646,1277 C 5634,1277 5627,1263 5634,1253 L 5634,1253 Z M 5989,713 C 5946,652 5888,622 5818,622 5749,622 5692,653 5649,715 L 4870,1838 C 4863,1849 4863,1864 4872,1874 4878,1881 4887,1884 4896,1884 L 5202,1884 C 5212,1884 5221,1879 5226,1870 L 5422,1570 C 5426,1563 5433,1559 5441,1559 5441,1559 6093,1559 6191,1559 6199,1559 6206,1563 6211,1570 L 6411,1871 C 6416,1879 6425,1884 6435,1884 L 6728,1884 C 6739,1884 6749,1878 6754,1868 6759,1859 6758,1848 6752,1839 L 5989,713 5989,713 5989,713 Z"/>
        <path fill="rgb(23,68,137)" stroke="none" d="M 8285,628 L 8057,628 C 8032,628 8012,648 8012,673 L 8012,1400 C 8012,1415 7995,1422 7985,1413 L 7158,694 C 7102,645 7041,620 6977,620 6920,620 6825,643 6825,798 L 6825,1838 C 6825,1863 6845,1884 6870,1884 L 7098,1884 C 7123,1884 7143,1863 7143,1838 L 7143,1109 C 7143,1094 7160,1087 7171,1096 L 8006,1826 C 8058,1872 8114,1895 8173,1895 8232,1895 8331,1871 8331,1709 L 8331,674 C 8331,648 8310,628 8285,628 Z"/>
        <path fill="rgb(23,68,137)" stroke="none" d="M 8722,628 L 8461,628 C 8445,628 8432,641 8432,657 L 8432,1855 C 8432,1871 8445,1884 8461,1884 L 8722,1884 C 8738,1884 8751,1871 8751,1855 L 8751,657 C 8751,641 8738,628 8722,628 Z"/>
        <path fill="rgb(23,68,137)" stroke="none" d="M 10083,1152 C 10095,1162 10112,1162 10123,1152 L 10703,671 C 10711,664 10715,654 10714,643 10711,629 10699,619 10685,619 L 10335,619 C 10328,619 10322,622 10316,626 L 9910,957 C 9895,970 9895,992 9910,1005 L 10083,1152 Z"/>
        <path fill="rgb(23,68,137)" stroke="none" d="M 10081,1363 C 10093,1353 10110,1353 10121,1363 L 10709,1843 C 10717,1849 10722,1860 10720,1870 10718,1885 10706,1894 10692,1894 L 10342,1894 C 10335,1894 10328,1892 10323,1888 L 9919,1551 C 9904,1539 9904,1516 9919,1504 L 10081,1363 Z"/>
       </g>
      </g>
     </g>
    </g>
   </g>
  </g>
 </g>
</svg>