<?xml version="1.0" encoding="UTF-8"?>
<!DOCTYPE svg PUBLIC "-//W3C//DTD SVG 1.1//EN" "http://www.w3.org/Graphics/SVG/1.1/DTD/svg11.dtd">
<svg version="1.2" width="71.12mm" height="20.32mm" viewBox="0 0 7112 2032" preserveAspectRatio="xMidYMid" fill-rule="evenodd" stroke-width="28.222" stroke-linejoin="round" xmlns="http://www.w3.org/2000/svg" xmlns:ooo="http://xml.openoffice.org/svg/export" xmlns:xlink="http://www.w3.org/1999/xlink" xmlns:presentation="http://sun.com/xmlns/staroffice/presentation" xmlns:smil="http://www.w3.org/2001/SMIL20/" xmlns:anim="urn:oasis:names:tc:opendocument:xmlns:animation:1.0" xmlns:svg="urn:oasis:names:tc:opendocument:xmlns:svg-compatible:1.0" xml:space="preserve">
 <defs class="ClipPathGroup">
  <clipPath id="presentation_clip_path" clipPathUnits="userSpaceOnUse">
   <rect x="0" y="0" width="7112" height="2032"/>
  </clipPath>
  <clipPath id="presentation_clip_path_shrink" clipPathUnits="userSpaceOnUse">
   <rect x="7" y="2" width="7098" height="2028"/>
  </clipPath>
 </defs>
 <defs class="TextShapeIndex">
  <g ooo:slide="id1" ooo:id-list="id3"/>
 </defs>
 <defs class="EmbeddedBulletChars">
  <g id="bullet-char-template-57356" transform="scale(0.00048828125,-0.00048828125)">
   <path d="M 580,1141 L 1163,571 580,0 -4,571 580,1141 Z"/>
  </g>
  <g id="bullet-char-template-57354" transform="scale(0.00048828125,-0.00048828125)">
   <path d="M 8,1128 L 1137,1128 1137,0 8,0 8,1128 Z"/>
  </g>
  <g id="bullet-char-template-10146" transform="scale(0.00048828125,-0.00048828125)">
   <path d="M 174,0 L 602,739 174,1481 1456,739 174,0 Z M 1358,739 L 309,1346 659,739 1358,739 Z"/>
  </g>
  <g id="bullet-char-template-10132" transform="scale(0.00048828125,-0.00048828125)">
   <path d="M 2015,739 L 1276,0 717,0 1260,543 174,543 174,936 1260,936 717,1481 1274,1481 2015,739 Z"/>
  </g>
  <g id="bullet-char-template-10007" transform="scale(0.00048828125,-0.00048828125)">
   <path d="M 0,-2 C -7,14 -16,27 -25,37 L 356,567 C 262,823 215,952 215,954 215,979 228,992 255,992 264,992 276,990 289,987 310,991 331,999 354,1012 L 381,999 492,748 772,1049 836,1024 860,1049 C 881,1039 901,1025 922,1006 886,937 835,863 770,784 769,783 710,716 594,584 L 774,223 C 774,196 753,168 711,139 L 727,119 C 717,90 699,76 672,76 641,76 570,178 457,381 L 164,-76 C 142,-110 111,-127 72,-127 30,-127 9,-110 8,-76 1,-67 -2,-52 -2,-32 -2,-23 -1,-13 0,-2 Z"/>
  </g>
  <g id="bullet-char-template-10004" transform="scale(0.00048828125,-0.00048828125)">
   <path d="M 285,-33 C 182,-33 111,30 74,156 52,228 41,333 41,471 41,549 55,616 82,672 116,743 169,778 240,778 293,778 328,747 346,684 L 369,508 C 377,444 397,411 428,410 L 1163,1116 C 1174,1127 1196,1133 1229,1133 1271,1133 1292,1118 1292,1087 L 1292,965 C 1292,929 1282,901 1262,881 L 442,47 C 390,-6 338,-33 285,-33 Z"/>
  </g>
  <g id="bullet-char-template-9679" transform="scale(0.00048828125,-0.00048828125)">
   <path d="M 813,0 C 632,0 489,54 383,161 276,268 223,411 223,592 223,773 276,916 383,1023 489,1130 632,1184 813,1184 992,1184 1136,1130 1245,1023 1353,916 1407,772 1407,592 1407,412 1353,268 1245,161 1136,54 992,0 813,0 Z"/>
  </g>
  <g id="bullet-char-template-8226" transform="scale(0.00048828125,-0.00048828125)">
   <path d="M 346,457 C 273,457 209,483 155,535 101,586 74,649 74,723 74,796 101,859 155,911 209,963 273,989 346,989 419,989 480,963 531,910 582,859 608,796 608,723 608,648 583,586 532,535 482,483 420,457 346,457 Z"/>
  </g>
  <g id="bullet-char-template-8211" transform="scale(0.00048828125,-0.00048828125)">
   <path d="M -4,459 L 1135,459 1135,606 -4,606 -4,459 Z"/>
  </g>
  <g id="bullet-char-template-61548" transform="scale(0.00048828125,-0.00048828125)">
   <path d="M 173,740 C 173,903 231,1043 346,1159 462,1274 601,1332 765,1332 928,1332 1067,1274 1183,1159 1299,1043 1357,903 1357,740 1357,577 1299,437 1183,322 1067,206 928,148 765,148 601,148 462,206 346,322 231,437 173,577 173,740 Z"/>
  </g>
 </defs>
 <g>
  <g id="id2" class="Master_Slide">
   <g id="bg-id2" class="Background"/>
   <g id="bo-id2" class="BackgroundObjects"/>
  </g>
 </g>
 <g class="SlideGroup">
  <g>
   <g id="container-id1">
    <g id="id1" class="Slide" clip-path="url(#presentation_clip_path)">
     <g class="Page">
      <g class="Graphic">
       <g id="id3">
        <rect class="BoundingBox" stroke="none" fill="none" x="-200" y="-2713" width="7620" height="7620"/>
        <path fill="rgb(35,31,32)" stroke="none" d="M 6780,1406 L 6780,1256 6728,1256 C 6672,1256 6659,1248 6659,1209 L 6659,798 6781,798 6781,659 6659,659 6659,457 6452,457 6452,659 6348,659 6348,798 6452,798 6452,1198 C 6452,1353 6489,1409 6662,1409 6683,1410 6722,1407 6780,1406 Z"/>
        <path fill="rgb(35,31,32)" stroke="none" d="M 5587,1401 L 5797,1401 5797,961 C 5797,863 5860,805 5958,805 6048,805 6080,853 6080,953 L 6080,1401 6290,1401 6290,896 C 6290,725 6204,640 6032,640 5933,640 5853,676 5794,748 L 5794,660 5588,660 5588,1401 5587,1401 Z"/>
        <path fill="rgb(35,31,32)" stroke="none" d="M 5354,577 L 5249,577 5249,398 5459,398 5459,577 5354,577 Z"/>
        <path fill="rgb(35,31,32)" stroke="none" d="M 5354,1400 L 5249,1400 5249,659 5459,659 5459,1400 5354,1400 Z"/>
        <path fill="rgb(35,31,32)" stroke="none" d="M 4586,1029 C 4586,881 4654,800 4770,800 4887,800 4954,881 4954,1029 4954,1177 4887,1259 4770,1259 4654,1259 4586,1177 4586,1029 Z M 4374,1029 C 4374,1276 4524,1426 4770,1426 5017,1426 5167,1276 5167,1029 5167,781 5017,632 4770,632 4524,632 4374,781 4374,1029 Z"/>
        <path fill="rgb(35,31,32)" stroke="none" d="M 4098,1035 C 4098,1172 4032,1254 3929,1254 3818,1254 3754,1176 3754,1035 3754,883 3815,805 3926,805 4034,805 4098,884 4098,1035 Z M 3549,1697 L 3753,1697 3753,1308 C 3804,1385 3885,1424 3985,1424 4168,1424 4307,1269 4307,1025 4307,788 4172,633 3983,633 3881,633 3810,673 3750,759 L 3750,659 3550,659 3550,1697 3549,1697 Z"/>
        <path fill="rgb(35,31,32)" stroke="none" d="M 3123,1401 L 3328,1401 3328,799 3458,799 3458,660 3326,660 3326,609 C 3326,561 3345,553 3403,553 L 3458,553 3458,395 C 3420,393 3389,391 3357,391 3196,391 3123,452 3123,591 L 3123,660 3011,660 3011,799 3123,799 3123,1401 3123,1401 Z"/>
        <path fill="rgb(35,31,32)" stroke="none" d="M 2417,1029 C 2417,881 2485,800 2601,800 2718,800 2785,881 2785,1029 2785,1177 2718,1259 2601,1259 2485,1260 2417,1177 2417,1029 Z M 2205,1029 C 2205,1276 2355,1426 2601,1426 2848,1426 2998,1276 2998,1029 2998,781 2848,632 2601,632 2354,633 2204,783 2205,1029 Z"/>
        <path fill="rgb(35,31,32)" stroke="none" d="M 1575,1029 C 1575,881 1642,800 1759,800 1876,800 1942,881 1942,1029 1942,1177 1876,1259 1759,1259 1642,1259 1575,1177 1575,1029 Z M 1362,1029 C 1362,1276 1513,1426 1759,1426 2005,1426 2156,1276 2156,1029 2156,781 2005,632 1759,632 1513,632 1362,783 1362,1029 Z"/>
        <path fill="rgb(35,31,32)" stroke="none" d="M 887,1401 L 1097,1401 1097,1009 C 1097,897 1157,841 1270,841 L 1339,841 1339,640 C 1328,639 1318,639 1307,639 1207,639 1136,685 1081,787 L 1081,660 887,660 887,1401 887,1401 Z"/>
        <path fill="rgb(35,31,32)" stroke="none" d="M 595,1035 C 595,1172 528,1254 425,1254 315,1254 250,1176 250,1035 250,883 311,805 422,805 533,805 596,884 595,1035 Z M 46,1697 L 249,1697 249,1308 C 301,1385 381,1424 481,1424 665,1424 803,1269 803,1025 803,788 668,633 479,633 378,633 306,673 246,759 L 246,659 46,659 46,1697 46,1697 Z"/>
        <path fill="rgb(35,31,32)" stroke="none" d="M 7047,1339 C 7048,1385 7013,1422 6967,1423 6922,1424 6885,1389 6883,1344 6882,1298 6917,1261 6963,1260 6964,1260 6965,1260 6966,1260 7009,1259 7046,1295 7047,1339 L 7047,1339 7047,1339 Z M 6903,1339 C 6902,1373 6929,1402 6963,1403 6964,1403 6964,1403 6965,1403 6999,1403 7026,1375 7026,1343 7026,1342 7026,1342 7026,1340 7027,1307 7001,1277 6967,1276 6934,1275 6904,1301 6903,1335 6903,1336 6903,1338 6903,1339 L 6903,1339 6903,1339 Z M 6952,1381 L 6934,1381 6934,1302 C 6944,1300 6953,1300 6964,1300 6973,1298 6983,1301 6992,1305 6997,1310 7000,1316 7000,1323 6999,1332 6993,1339 6984,1342 L 6984,1343 C 6992,1346 6998,1353 6998,1361 6999,1368 7000,1375 7004,1381 L 6984,1381 C 6980,1375 6979,1368 6978,1361 6977,1352 6972,1349 6962,1349 L 6952,1349 6952,1381 6952,1381 Z M 6952,1336 L 6962,1336 C 6972,1336 6980,1332 6980,1324 6980,1316 6974,1312 6963,1312 6959,1312 6956,1312 6952,1314 L 6952,1336 6952,1336 Z"/>
       </g>
      </g>
     </g>
    </g>
   </g>
  </g>
 </g>
</svg>