<?xml version="1.0" encoding="UTF-8"?>
<!DOCTYPE svg PUBLIC "-//W3C//DTD SVG 1.1//EN" "http://www.w3.org/Graphics/SVG/1.1/DTD/svg11.dtd">
<svg version="1.2" width="172.72mm" height="38.1mm" viewBox="0 0 17272 3810" preserveAspectRatio="xMidYMid" fill-rule="evenodd" stroke-width="28.222" stroke-linejoin="round" xmlns="http://www.w3.org/2000/svg" xmlns:ooo="http://xml.openoffice.org/svg/export" xmlns:xlink="http://www.w3.org/1999/xlink" xmlns:presentation="http://sun.com/xmlns/staroffice/presentation" xmlns:smil="http://www.w3.org/2001/SMIL20/" xmlns:anim="urn:oasis:names:tc:opendocument:xmlns:animation:1.0" xmlns:svg="urn:oasis:names:tc:opendocument:xmlns:svg-compatible:1.0" xml:space="preserve">
 <defs class="ClipPathGroup">
  <clipPath id="presentation_clip_path" clipPathUnits="userSpaceOnUse">
   <rect x="0" y="0" width="17272" height="3810"/>
  </clipPath>
  <clipPath id="presentation_clip_path_shrink" clipPathUnits="userSpaceOnUse">
   <rect x="17" y="3" width="17238" height="3803"/>
  </clipPath>
 </defs>
 <defs class="TextShapeIndex">
  <g ooo:slide="id1" ooo:id-list="id3"/>
 </defs>
 <defs class="EmbeddedBulletChars">
  <g id="bullet-char-template-57356" transform="scale(0.00048828125,-0.00048828125)">
   <path d="M 580,1141 L 1163,571 580,0 -4,571 580,1141 Z"/>
  </g>
  <g id="bullet-char-template-57354" transform="scale(0.00048828125,-0.00048828125)">
   <path d="M 8,1128 L 1137,1128 1137,0 8,0 8,1128 Z"/>
  </g>
  <g id="bullet-char-template-10146" transform="scale(0.00048828125,-0.00048828125)">
   <path d="M 174,0 L 602,739 174,1481 1456,739 174,0 Z M 1358,739 L 309,1346 659,739 1358,739 Z"/>
  </g>
  <g id="bullet-char-template-10132" transform="scale(0.00048828125,-0.00048828125)">
   <path d="M 2015,739 L 1276,0 717,0 1260,543 174,543 174,936 1260,936 717,1481 1274,1481 2015,739 Z"/>
  </g>
  <g id="bullet-char-template-10007" transform="scale(0.00048828125,-0.00048828125)">
   <path d="M 0,-2 C -7,14 -16,27 -25,37 L 356,567 C 262,823 215,952 215,954 215,979 228,992 255,992 264,992 276,990 289,987 310,991 331,999 354,1012 L 381,999 492,748 772,1049 836,1024 860,1049 C 881,1039 901,1025 922,1006 886,937 835,863 770,784 769,783 710,716 594,584 L 774,223 C 774,196 753,168 711,139 L 727,119 C 717,90 699,76 672,76 641,76 570,178 457,381 L 164,-76 C 142,-110 111,-127 72,-127 30,-127 9,-110 8,-76 1,-67 -2,-52 -2,-32 -2,-23 -1,-13 0,-2 Z"/>
  </g>
  <g id="bullet-char-template-10004" transform="scale(0.00048828125,-0.00048828125)">
   <path d="M 285,-33 C 182,-33 111,30 74,156 52,228 41,333 41,471 41,549 55,616 82,672 116,743 169,778 240,778 293,778 328,747 346,684 L 369,508 C 377,444 397,411 428,410 L 1163,1116 C 1174,1127 1196,1133 1229,1133 1271,1133 1292,1118 1292,1087 L 1292,965 C 1292,929 1282,901 1262,881 L 442,47 C 390,-6 338,-33 285,-33 Z"/>
  </g>
  <g id="bullet-char-template-9679" transform="scale(0.00048828125,-0.00048828125)">
   <path d="M 813,0 C 632,0 489,54 383,161 276,268 223,411 223,592 223,773 276,916 383,1023 489,1130 632,1184 813,1184 992,1184 1136,1130 1245,1023 1353,916 1407,772 1407,592 1407,412 1353,268 1245,161 1136,54 992,0 813,0 Z"/>
  </g>
  <g id="bullet-char-template-8226" transform="scale(0.00048828125,-0.00048828125)">
   <path d="M 346,457 C 273,457 209,483 155,535 101,586 74,649 74,723 74,796 101,859 155,911 209,963 273,989 346,989 419,989 480,963 531,910 582,859 608,796 608,723 608,648 583,586 532,535 482,483 420,457 346,457 Z"/>
  </g>
  <g id="bullet-char-template-8211" transform="scale(0.00048828125,-0.00048828125)">
   <path d="M -4,459 L 1135,459 1135,606 -4,606 -4,459 Z"/>
  </g>
  <g id="bullet-char-template-61548" transform="scale(0.00048828125,-0.00048828125)">
   <path d="M 173,740 C 173,903 231,1043 346,1159 462,1274 601,1332 765,1332 928,1332 1067,1274 1183,1159 1299,1043 1357,903 1357,740 1357,577 1299,437 1183,322 1067,206 928,148 765,148 601,148 462,206 346,322 231,437 173,577 173,740 Z"/>
  </g>
 </defs>
 <g>
  <g id="id2" class="Master_Slide">
   <g id="bg-id2" class="Background"/>
   <g id="bo-id2" class="BackgroundObjects"/>
  </g>
 </g>
 <g class="SlideGroup">
  <g>
   <g id="container-id1">
    <g id="id1" class="Slide" clip-path="url(#presentation_clip_path)">
     <g class="Page">
      <g class="Graphic">
       <g id="id3">
        <rect class="BoundingBox" stroke="none" fill="none" x="0" y="-6500" width="17277" height="17277"/>
        <path fill="rgb(0,0,0)" stroke="none" d="M 1040,961 C 1074,926 1116,897 1164,876 1212,855 1262,844 1315,844 1373,844 1426,855 1474,879 1521,900 1564,932 1598,971 L 1952,1360 2304,971 C 2341,932 2384,902 2431,879 2479,858 2532,844 2587,844 2640,844 2693,855 2738,876 2786,897 2826,924 2863,961 L 1952,1966 1040,961 Z M 1040,3125 C 1074,3159 1116,3188 1164,3209 1212,3231 1262,3241 1315,3241 1370,3241 1423,3231 1474,3207 1521,3186 1564,3154 1601,3114 L 1952,2725 2307,3114 C 2341,3154 2384,3183 2431,3207 2479,3228 2532,3241 2590,3241 2643,3241 2696,3231 2741,3209 2788,3188 2828,3162 2865,3125 L 1952,2119 1040,3125 Z M 4759,2093 C 4804,2088 4831,2072 4842,2045 4852,2016 4855,2000 4852,1998 L 4852,1760 C 4849,1715 4834,1688 4804,1678 4778,1667 4762,1664 4757,1667 L 4088,1667 4088,2096 4759,2096 4759,2093 Z M 5125,1395 C 5196,1466 5236,1559 5238,1667 L 5238,2048 C 5236,2157 5199,2246 5125,2318 5053,2389 4961,2426 4852,2429 L 4088,2429 C 4085,2537 4048,2627 3976,2699 3905,2770 3815,2807 3709,2810 L 3709,1424 C 3709,1384 3725,1350 3752,1323 3778,1297 3812,1281 3852,1281 L 4855,1281 C 4963,1283 5053,1320 5125,1395 Z M 6506,1998 C 6551,1995 6580,1979 6590,1950 6601,1924 6604,1908 6604,1903 L 6604,1760 C 6598,1715 6582,1688 6556,1678 6527,1667 6511,1664 6508,1667 L 5842,1667 5842,1998 6506,1998 Z M 6895,2194 C 6836,2262 6765,2305 6675,2326 L 6982,2765 C 6955,2778 6926,2789 6897,2797 6868,2805 6836,2807 6805,2807 6738,2807 6680,2791 6625,2762 6572,2733 6527,2694 6492,2643 L 6273,2328 5839,2328 5839,2424 C 5836,2532 5799,2622 5728,2694 5656,2765 5566,2802 5458,2805 L 5458,1424 C 5458,1384 5474,1350 5500,1323 5527,1297 5561,1281 5601,1281 L 6601,1281 C 6709,1283 6799,1320 6871,1395 6942,1466 6979,1559 6982,1667 L 6982,1953 C 6982,2045 6953,2127 6895,2194 Z M 8344,1760 C 8339,1715 8323,1688 8297,1678 8268,1667 8252,1664 8249,1667 L 7680,1667 C 7635,1670 7606,1686 7596,1715 7585,1741 7582,1757 7582,1762 L 7582,2334 C 7588,2379 7604,2408 7630,2418 7659,2429 7675,2432 7678,2432 L 8246,2432 C 8291,2426 8321,2411 8331,2384 8342,2355 8344,2339 8344,2336 L 8344,1760 Z M 8614,1395 C 8686,1466 8723,1559 8725,1667 L 8725,2429 C 8723,2537 8686,2627 8614,2699 8543,2770 8453,2807 8344,2810 L 7582,2810 C 7474,2807 7384,2770 7313,2699 7241,2627 7204,2537 7201,2429 L 7201,1667 C 7204,1559 7241,1469 7313,1395 7384,1323 7474,1283 7582,1281 L 8344,1281 C 8453,1283 8543,1320 8614,1395 Z M 12636,1281 L 12395,1281 C 12315,1281 12247,1302 12186,1344 12125,1387 12077,1442 12046,1508 L 12048,1503 11823,1995 11601,1503 11601,1508 C 11569,1440 11524,1384 11464,1344 11403,1302 11331,1281 11252,1281 L 11014,1281 C 10971,1281 10937,1297 10911,1323 10884,1350 10871,1384 10868,1424 L 10868,2807 C 10977,2805 11067,2768 11138,2696 11210,2625 11247,2535 11249,2426 L 11249,1696 C 11249,1686 11252,1678 11257,1672 11262,1667 11270,1664 11281,1664 11286,1664 11292,1667 11297,1670 11302,1672 11307,1678 11307,1683 L 11731,2617 C 11739,2633 11752,2646 11765,2657 11781,2667 11797,2672 11818,2672 11837,2672 11855,2667 11868,2657 11884,2646 11895,2633 11905,2617 L 12329,1680 C 12331,1675 12337,1672 12342,1667 12347,1664 12352,1662 12360,1662 12368,1662 12376,1664 12382,1670 12387,1675 12390,1683 12390,1694 L 12390,2424 C 12392,2532 12429,2622 12501,2694 12572,2765 12662,2802 12770,2805 L 12770,1424 C 12770,1384 12755,1350 12728,1323 12710,1297 12678,1281 12636,1281 Z M 14093,1678 C 14064,1667 14048,1664 14046,1667 L 13477,1667 C 13432,1670 13403,1686 13392,1715 13382,1741 13379,1757 13379,1762 L 13379,2334 C 13384,2379 13400,2408 13427,2418 13456,2429 13472,2432 13474,2432 L 14043,2432 C 14088,2426 14117,2411 14128,2384 14138,2355 14141,2339 14141,2336 L 14141,1760 C 14136,1715 14120,1688 14093,1678 Z M 14411,1395 C 14482,1466 14519,1559 14522,1667 L 14522,2429 C 14519,2537 14482,2627 14411,2699 14339,2770 14249,2807 14141,2810 L 13379,2810 C 13271,2807 13181,2770 13109,2699 13038,2627 13001,2537 12998,2429 L 12998,1667 C 13001,1559 13038,1469 13109,1395 13181,1323 13271,1283 13379,1281 L 14141,1281 C 14249,1283 14339,1320 14411,1395 Z"/>
        <path fill="rgb(229,112,0)" stroke="none" d="M 1876,2043 L 1188,2799 C 1148,2842 1103,2876 1050,2900 997,2924 939,2937 876,2937 818,2937 762,2926 709,2903 659,2881 611,2850 574,2810 L 1273,2043 574,1276 C 614,1236 659,1207 709,1183 762,1162 815,1149 876,1149 937,1149 995,1162 1048,1186 1101,1209 1148,1244 1188,1286 L 1876,2043 Z M 2029,2043 L 2717,2799 C 2757,2842 2802,2876 2855,2900 2908,2924 2966,2937 3027,2937 3085,2937 3140,2926 3193,2903 3246,2881 3291,2850 3328,2810 L 2630,2043 3328,1276 C 3289,1236 3244,1207 3193,1183 3143,1162 3087,1149 3027,1149 2966,1149 2908,1162 2855,1186 2802,1209 2754,1244 2714,1286 L 2029,2043 Z M 10651,1389 C 10620,1355 10580,1331 10535,1313 10490,1294 10442,1283 10392,1283 10339,1283 10289,1294 10244,1315 10199,1336 10159,1365 10127,1400 L 9797,1762 9466,1400 C 9432,1363 9392,1334 9350,1313 9305,1291 9257,1281 9204,1281 9154,1281 9106,1291 9061,1310 9016,1328 8979,1355 8945,1387 L 9540,2040 8945,2694 C 8979,2728 9016,2754 9061,2773 9106,2791 9154,2802 9204,2802 9257,2802 9307,2791 9352,2770 9397,2749 9437,2720 9471,2686 L 9802,2323 10133,2686 C 10165,2723 10204,2752 10249,2770 10294,2791 10344,2802 10397,2802 10448,2802 10495,2791 10540,2773 10585,2754 10622,2728 10657,2694 L 10061,2040 10651,1389 10651,1389 Z M 16448,1389 C 16416,1355 16376,1331 16332,1313 16287,1294 16239,1283 16189,1283 16136,1283 16085,1294 16040,1315 15996,1336 15956,1365 15924,1400 L 15593,1762 15263,1400 C 15228,1363 15189,1334 15146,1313 15101,1291 15054,1281 15001,1281 14950,1281 14903,1291 14858,1310 14813,1328 14776,1355 14741,1387 L 15337,2040 14741,2694 C 14776,2728 14813,2754 14858,2773 14903,2791 14950,2802 15001,2802 15054,2802 15104,2791 15149,2770 15194,2749 15234,2720 15268,2686 L 15599,2323 15929,2686 C 15961,2723 16001,2752 16046,2770 16091,2791 16141,2802 16194,2802 16244,2802 16292,2791 16337,2773 16382,2754 16419,2728 16453,2694 L 15858,2040 16448,1389 16448,1389 Z"/>
       </g>
      </g>
     </g>
    </g>
   </g>
  </g>
 </g>
</svg>