<?xml version="1.0" encoding="UTF-8"?>
<!DOCTYPE svg PUBLIC "-//W3C//DTD SVG 1.1//EN" "http://www.w3.org/Graphics/SVG/1.1/DTD/svg11.dtd">
<svg version="1.2" width="172.97mm" height="38.1mm" viewBox="0 0 17297 3810" preserveAspectRatio="xMidYMid" fill-rule="evenodd" stroke-width="28.222" stroke-linejoin="round" xmlns="http://www.w3.org/2000/svg" xmlns:ooo="http://xml.openoffice.org/svg/export" xmlns:xlink="http://www.w3.org/1999/xlink" xmlns:presentation="http://sun.com/xmlns/staroffice/presentation" xmlns:smil="http://www.w3.org/2001/SMIL20/" xmlns:anim="urn:oasis:names:tc:opendocument:xmlns:animation:1.0" xmlns:svg="urn:oasis:names:tc:opendocument:xmlns:svg-compatible:1.0" xml:space="preserve">
 <defs class="ClipPathGroup">
  <clipPath id="presentation_clip_path" clipPathUnits="userSpaceOnUse">
   <rect x="0" y="0" width="17297" height="3810"/>
  </clipPath>
  <clipPath id="presentation_clip_path_shrink" clipPathUnits="userSpaceOnUse">
   <rect x="17" y="3" width="17263" height="3803"/>
  </clipPath>
 </defs>
 <defs class="TextShapeIndex">
  <g ooo:slide="id1" ooo:id-list="id3"/>
 </defs>
 <defs class="EmbeddedBulletChars">
  <g id="bullet-char-template-57356" transform="scale(0.00048828125,-0.00048828125)">
   <path d="M 580,1141 L 1163,571 580,0 -4,571 580,1141 Z"/>
  </g>
  <g id="bullet-char-template-57354" transform="scale(0.00048828125,-0.00048828125)">
   <path d="M 8,1128 L 1137,1128 1137,0 8,0 8,1128 Z"/>
  </g>
  <g id="bullet-char-template-10146" transform="scale(0.00048828125,-0.00048828125)">
   <path d="M 174,0 L 602,739 174,1481 1456,739 174,0 Z M 1358,739 L 309,1346 659,739 1358,739 Z"/>
  </g>
  <g id="bullet-char-template-10132" transform="scale(0.00048828125,-0.00048828125)">
   <path d="M 2015,739 L 1276,0 717,0 1260,543 174,543 174,936 1260,936 717,1481 1274,1481 2015,739 Z"/>
  </g>
  <g id="bullet-char-template-10007" transform="scale(0.00048828125,-0.00048828125)">
   <path d="M 0,-2 C -7,14 -16,27 -25,37 L 356,567 C 262,823 215,952 215,954 215,979 228,992 255,992 264,992 276,990 289,987 310,991 331,999 354,1012 L 381,999 492,748 772,1049 836,1024 860,1049 C 881,1039 901,1025 922,1006 886,937 835,863 770,784 769,783 710,716 594,584 L 774,223 C 774,196 753,168 711,139 L 727,119 C 717,90 699,76 672,76 641,76 570,178 457,381 L 164,-76 C 142,-110 111,-127 72,-127 30,-127 9,-110 8,-76 1,-67 -2,-52 -2,-32 -2,-23 -1,-13 0,-2 Z"/>
  </g>
  <g id="bullet-char-template-10004" transform="scale(0.00048828125,-0.00048828125)">
   <path d="M 285,-33 C 182,-33 111,30 74,156 52,228 41,333 41,471 41,549 55,616 82,672 116,743 169,778 240,778 293,778 328,747 346,684 L 369,508 C 377,444 397,411 428,410 L 1163,1116 C 1174,1127 1196,1133 1229,1133 1271,1133 1292,1118 1292,1087 L 1292,965 C 1292,929 1282,901 1262,881 L 442,47 C 390,-6 338,-33 285,-33 Z"/>
  </g>
  <g id="bullet-char-template-9679" transform="scale(0.00048828125,-0.00048828125)">
   <path d="M 813,0 C 632,0 489,54 383,161 276,268 223,411 223,592 223,773 276,916 383,1023 489,1130 632,1184 813,1184 992,1184 1136,1130 1245,1023 1353,916 1407,772 1407,592 1407,412 1353,268 1245,161 1136,54 992,0 813,0 Z"/>
  </g>
  <g id="bullet-char-template-8226" transform="scale(0.00048828125,-0.00048828125)">
   <path d="M 346,457 C 273,457 209,483 155,535 101,586 74,649 74,723 74,796 101,859 155,911 209,963 273,989 346,989 419,989 480,963 531,910 582,859 608,796 608,723 608,648 583,586 532,535 482,483 420,457 346,457 Z"/>
  </g>
  <g id="bullet-char-template-8211" transform="scale(0.00048828125,-0.00048828125)">
   <path d="M -4,459 L 1135,459 1135,606 -4,606 -4,459 Z"/>
  </g>
  <g id="bullet-char-template-61548" transform="scale(0.00048828125,-0.00048828125)">
   <path d="M 173,740 C 173,903 231,1043 346,1159 462,1274 601,1332 765,1332 928,1332 1067,1274 1183,1159 1299,1043 1357,903 1357,740 1357,577 1299,437 1183,322 1067,206 928,148 765,148 601,148 462,206 346,322 231,437 173,577 173,740 Z"/>
  </g>
 </defs>
 <g>
  <g id="id2" class="Master_Slide">
   <g id="bg-id2" class="Background"/>
   <g id="bo-id2" class="BackgroundObjects"/>
  </g>
 </g>
 <g class="SlideGroup">
  <g>
   <g id="container-id1">
    <g id="id1" class="Slide" clip-path="url(#presentation_clip_path)">
     <g class="Page">
      <g class="Graphic">
       <g id="id3">
        <rect class="BoundingBox" stroke="none" fill="none" x="194" y="-1778" width="16954" height="7493"/>
        <path fill="rgb(238,0,0)" stroke="none" d="M 4521,2089 C 4802,2089 5207,2032 5207,1698 5207,1672 5205,1645 5200,1620 L 5034,895 C 4994,735 4960,664 4682,523 4464,410 3991,228 3849,228 3718,228 3679,396 3524,396 3373,396 3264,271 3124,271 2989,271 2902,362 2833,552 2833,552 2646,1085 2621,1161 2616,1174 2616,1190 2616,1204 2616,1410 3430,2087 4521,2089 L 4521,2089 Z M 5251,1833 C 5289,2016 5289,2037 5289,2059 5289,2373 4938,2546 4473,2546 3423,2546 2506,1933 2506,1526 2506,1469 2518,1414 2540,1362 2163,1380 1676,1449 1676,1878 1676,2585 3348,3453 4675,3453 5690,3453 5946,2994 5946,2633 5944,2349 5697,2025 5251,1833 L 5251,1833 Z"/>
        <path fill="rgb(0,0,0)" stroke="none" d="M 5251,1833 C 5289,2016 5289,2037 5289,2059 5289,2373 4938,2546 4473,2546 3423,2546 2506,1933 2506,1526 2506,1469 2518,1414 2540,1362 L 2623,1158 C 2619,1171 2619,1185 2619,1202 2619,1408 3432,2087 4524,2087 4805,2087 5210,2030 5210,1696 5210,1670 5207,1643 5203,1617 L 5251,1833 5251,1833 5251,1833 Z"/>
        <path fill="rgb(0,0,0)" stroke="none" d="M 15120,2692 C 15209,2690 15298,2676 15388,2656 L 15388,2347 C 15333,2366 15273,2375 15216,2373 15095,2373 15050,2335 15050,2222 L 15050,1748 15401,1748 15401,1430 15050,1430 15050,1025 14669,1108 14669,1428 14415,1428 14415,1746 14666,1746 14666,2297 C 14666,2565 14827,2692 15120,2692 L 15120,2692 Z M 13685,2181 C 13761,2181 13839,2189 13912,2208 L 13912,2368 C 13839,2407 13757,2428 13675,2428 13551,2429 13478,2381 13478,2304 13478,2222 13560,2181 13685,2181 L 13685,2181 Z M 13939,2601 L 13939,2676 14316,2676 14316,1876 C 14316,1572 14111,1405 13771,1405 13578,1405 13390,1451 13187,1542 L 13325,1823 C 13471,1761 13594,1725 13702,1725 13860,1725 13939,1787 13939,1910 L 13939,1972 C 13848,1949 13752,1936 13656,1938 13335,1938 13141,2073 13141,2313 13141,2532 13315,2699 13594,2697 13729,2697 13836,2670 13939,2601 L 13939,2601 Z M 11519,2676 L 11924,2676 11924,2030 12603,2030 12603,2676 13011,2676 13011,1025 12606,1025 12606,1658 11927,1658 11927,1025 11522,1025 11519,2676 11519,2676 Z M 10303,1737 C 10399,1734 10495,1768 10566,1833 L 10566,2270 C 10495,2335 10399,2373 10303,2370 10120,2368 9976,2233 9976,2052 9976,1874 10118,1737 10303,1737 L 10303,1737 Z M 10573,2678 L 10950,2678 10950,945 10568,1027 10568,1497 C 10472,1442 10362,1411 10250,1414 9887,1414 9601,1696 9601,2052 9597,2402 9878,2690 10228,2692 L 10239,2692 C 10360,2692 10477,2656 10573,2585 L 10573,2678 10573,2678 Z M 9100,1917 L 8578,1917 C 8620,1792 8714,1718 8839,1718 8961,1718 9062,1796 9100,1917 L 9100,1917 Z M 8876,2702 C 9086,2702 9240,2644 9398,2512 L 9146,2287 C 9086,2349 9000,2381 8897,2381 8764,2386 8640,2306 8590,2183 L 9480,2183 9480,2089 C 9480,1693 9212,1408 8851,1408 8496,1403 8206,1684 8201,2039 8196,2043 8196,2050 8196,2054 8196,2418 8494,2702 8876,2702 L 8876,2702 Z M 7541,1373 C 7675,1373 7750,1458 7750,1558 7750,1658 7675,1744 7541,1744 L 7140,1744 7140,1373 7541,1373 7541,1373 Z M 6733,2676 L 7138,2676 7138,2075 7446,2075 7757,2676 8213,2676 7849,2016 C 8038,1938 8160,1754 8160,1552 8160,1254 7927,1025 7577,1025 L 6731,1025 6731,2676 6733,2676 6733,2676 Z"/>
       </g>
      </g>
     </g>
    </g>
   </g>
  </g>
 </g>
</svg>