<?xml version="1.0" encoding="UTF-8"?>
<!DOCTYPE svg PUBLIC "-//W3C//DTD SVG 1.1//EN" "http://www.w3.org/Graphics/SVG/1.1/DTD/svg11.dtd">
<svg version="1.2" width="99.31mm" height="25.65mm" viewBox="0 0 9931 2565" preserveAspectRatio="xMidYMid" fill-rule="evenodd" stroke-width="28.222" stroke-linejoin="round" xmlns="http://www.w3.org/2000/svg" xmlns:ooo="http://xml.openoffice.org/svg/export" xmlns:xlink="http://www.w3.org/1999/xlink" xmlns:presentation="http://sun.com/xmlns/staroffice/presentation" xmlns:smil="http://www.w3.org/2001/SMIL20/" xmlns:anim="urn:oasis:names:tc:opendocument:xmlns:animation:1.0" xmlns:svg="urn:oasis:names:tc:opendocument:xmlns:svg-compatible:1.0" xml:space="preserve">
 <defs class="ClipPathGroup">
  <clipPath id="presentation_clip_path" clipPathUnits="userSpaceOnUse">
   <rect x="0" y="0" width="9931" height="2565"/>
  </clipPath>
  <clipPath id="presentation_clip_path_shrink" clipPathUnits="userSpaceOnUse">
   <rect x="9" y="2" width="9912" height="2560"/>
  </clipPath>
 </defs>
 <defs class="TextShapeIndex">
  <g ooo:slide="id1" ooo:id-list="id3"/>
 </defs>
 <defs class="EmbeddedBulletChars">
  <g id="bullet-char-template-57356" transform="scale(0.00048828125,-0.00048828125)">
   <path d="M 580,1141 L 1163,571 580,0 -4,571 580,1141 Z"/>
  </g>
  <g id="bullet-char-template-57354" transform="scale(0.00048828125,-0.00048828125)">
   <path d="M 8,1128 L 1137,1128 1137,0 8,0 8,1128 Z"/>
  </g>
  <g id="bullet-char-template-10146" transform="scale(0.00048828125,-0.00048828125)">
   <path d="M 174,0 L 602,739 174,1481 1456,739 174,0 Z M 1358,739 L 309,1346 659,739 1358,739 Z"/>
  </g>
  <g id="bullet-char-template-10132" transform="scale(0.00048828125,-0.00048828125)">
   <path d="M 2015,739 L 1276,0 717,0 1260,543 174,543 174,936 1260,936 717,1481 1274,1481 2015,739 Z"/>
  </g>
  <g id="bullet-char-template-10007" transform="scale(0.00048828125,-0.00048828125)">
   <path d="M 0,-2 C -7,14 -16,27 -25,37 L 356,567 C 262,823 215,952 215,954 215,979 228,992 255,992 264,992 276,990 289,987 310,991 331,999 354,1012 L 381,999 492,748 772,1049 836,1024 860,1049 C 881,1039 901,1025 922,1006 886,937 835,863 770,784 769,783 710,716 594,584 L 774,223 C 774,196 753,168 711,139 L 727,119 C 717,90 699,76 672,76 641,76 570,178 457,381 L 164,-76 C 142,-110 111,-127 72,-127 30,-127 9,-110 8,-76 1,-67 -2,-52 -2,-32 -2,-23 -1,-13 0,-2 Z"/>
  </g>
  <g id="bullet-char-template-10004" transform="scale(0.00048828125,-0.00048828125)">
   <path d="M 285,-33 C 182,-33 111,30 74,156 52,228 41,333 41,471 41,549 55,616 82,672 116,743 169,778 240,778 293,778 328,747 346,684 L 369,508 C 377,444 397,411 428,410 L 1163,1116 C 1174,1127 1196,1133 1229,1133 1271,1133 1292,1118 1292,1087 L 1292,965 C 1292,929 1282,901 1262,881 L 442,47 C 390,-6 338,-33 285,-33 Z"/>
  </g>
  <g id="bullet-char-template-9679" transform="scale(0.00048828125,-0.00048828125)">
   <path d="M 813,0 C 632,0 489,54 383,161 276,268 223,411 223,592 223,773 276,916 383,1023 489,1130 632,1184 813,1184 992,1184 1136,1130 1245,1023 1353,916 1407,772 1407,592 1407,412 1353,268 1245,161 1136,54 992,0 813,0 Z"/>
  </g>
  <g id="bullet-char-template-8226" transform="scale(0.00048828125,-0.00048828125)">
   <path d="M 346,457 C 273,457 209,483 155,535 101,586 74,649 74,723 74,796 101,859 155,911 209,963 273,989 346,989 419,989 480,963 531,910 582,859 608,796 608,723 608,648 583,586 532,535 482,483 420,457 346,457 Z"/>
  </g>
  <g id="bullet-char-template-8211" transform="scale(0.00048828125,-0.00048828125)">
   <path d="M -4,459 L 1135,459 1135,606 -4,606 -4,459 Z"/>
  </g>
  <g id="bullet-char-template-61548" transform="scale(0.00048828125,-0.00048828125)">
   <path d="M 173,740 C 173,903 231,1043 346,1159 462,1274 601,1332 765,1332 928,1332 1067,1274 1183,1159 1299,1043 1357,903 1357,740 1357,577 1299,437 1183,322 1067,206 928,148 765,148 601,148 462,206 346,322 231,437 173,577 173,740 Z"/>
  </g>
 </defs>
 <g>
  <g id="id2" class="Master_Slide">
   <g id="bg-id2" class="Background"/>
   <g id="bo-id2" class="BackgroundObjects"/>
  </g>
 </g>
 <g class="SlideGroup">
  <g>
   <g id="container-id1">
    <g id="id1" class="Slide" clip-path="url(#presentation_clip_path)">
     <g class="Page">
      <g class="Graphic">
       <g id="id3">
        <rect class="BoundingBox" stroke="none" fill="none" x="-113" y="-431" width="10363" height="3597"/>
        <path fill="rgb(68,84,100)" stroke="none" d="M 2643,1656 L 2643,1060 2451,1060 2451,797 2640,797 2640,483 2942,483 2942,797 3174,797 3174,1060 2943,1060 2943,1576 C 2943,1649 2981,1703 3048,1703 3086,1705 3124,1692 3153,1667 L 3216,1898 C 3170,1939 3090,1971 2964,1971 2754,1971 2643,1862 2643,1656 L 2643,1656 2643,1656 Z M 3244,1368 C 3244,1036 3491,766 3837,766 4185,766 4412,1022 4412,1396 L 4412,1468 3560,1468 C 3581,1608 3696,1724 3892,1724 3989,1724 4122,1684 4196,1614 L 4332,1813 C 4217,1918 4038,1971 3860,1971 3509,1971 3244,1736 3244,1368 L 3244,1368 3244,1368 Z M 3837,1015 C 3649,1015 3570,1146 3558,1261 L 4122,1261 C 4115,1150 4038,1015 3837,1015 L 3837,1015 3837,1015 Z M 5301,1941 L 5301,1251 C 5301,1091 5217,1036 5089,1036 4985,1038 4890,1087 4827,1168 L 4827,1941 4527,1941 4527,795 4827,795 4827,942 C 4931,830 5076,766 5228,766 5482,766 5602,909 5602,1133 L 5602,1941 5301,1941 5301,1941 5301,1941 Z M 6463,1941 L 6463,1821 C 6384,1916 6248,1971 6100,1971 5916,1971 5704,1849 5704,1593 5704,1321 5919,1223 6100,1223 6254,1223 6387,1273 6463,1363 L 6463,1217 C 6463,1101 6363,1027 6210,1027 6087,1028 5969,1076 5880,1162 L 5759,951 C 5899,832 6077,766 6259,772 6523,772 6764,875 6764,1206 L 6764,1947 6463,1947 6463,1941 6463,1941 Z M 6463,1667 L 6463,1525 C 6414,1458 6318,1423 6223,1423 6102,1423 6007,1487 6007,1597 6007,1706 6102,1766 6223,1766 6317,1766 6412,1734 6463,1667 L 6463,1667 6463,1667 Z M 6894,1941 L 6894,360 7196,360 7196,942 C 7278,832 7410,766 7549,766 7842,766 8058,993 8058,1368 8058,1752 7841,1969 7549,1969 7410,1969 7278,1904 7196,1794 L 7196,1941 6894,1941 6894,1941 6894,1941 Z M 7459,1702 C 7632,1702 7748,1566 7748,1367 7748,1167 7632,1035 7459,1035 7356,1036 7259,1085 7197,1167 L 7197,1573 C 7260,1654 7356,1702 7459,1702 L 7459,1702 7459,1702 7459,1702 Z M 8160,1941 L 8160,360 8462,360 8462,1941 8160,1941 8160,1941 8160,1941 Z M 8576,1368 C 8576,1036 8823,766 9169,766 9516,766 9744,1022 9744,1396 L 9744,1468 8892,1468 C 8913,1608 9028,1724 9224,1724 9319,1724 9454,1684 9528,1614 L 9663,1813 C 9549,1918 9368,1971 9190,1971 8839,1971 8576,1736 8576,1368 L 8576,1368 8576,1368 Z M 9168,1015 C 8980,1015 8900,1146 8888,1261 L 9453,1261 C 9444,1150 9367,1015 9168,1015 L 9168,1015 9168,1015 Z M 9835,652 C 9849,659 9863,673 9872,687 9879,703 9884,721 9884,738 9884,756 9879,773 9872,790 9863,804 9849,816 9835,825 9820,833 9803,839 9785,839 9748,839 9716,821 9699,790 9691,774 9687,756 9687,738 9687,721 9691,703 9699,687 9708,673 9720,659 9736,652 9750,643 9768,638 9785,638 9803,638 9820,644 9835,652 L 9835,652 9835,652 Z M 9825,809 C 9837,802 9846,791 9853,780 9866,753 9866,722 9853,696 9846,683 9837,673 9825,666 9814,659 9799,655 9785,657 9769,657 9757,659 9745,666 9734,673 9724,685 9717,696 9705,722 9705,753 9717,780 9724,793 9734,802 9745,809 9757,815 9771,821 9785,819 9799,821 9814,815 9825,809 L 9825,809 9825,809 Z M 9820,735 C 9816,741 9809,745 9803,746 L 9832,791 9806,791 9781,750 9771,750 9771,791 9748,791 9748,682 9778,682 C 9810,682 9825,693 9825,714 9827,724 9825,731 9820,735 L 9820,735 9820,735 Z M 9771,732 L 9783,732 C 9797,732 9804,727 9804,715 9804,711 9803,706 9799,704 9795,701 9788,701 9783,701 L 9771,701 9771,732 9771,732 9771,732 Z"/>
        <path fill="rgb(0,166,180)" stroke="none" d="M 1984,487 C 1991,509 2012,594 2033,672 L 2033,672 2200,1294 C 2223,1373 2245,1457 2249,1479 L 2249,1479 C 2258,1514 2248,1549 2224,1574 L 2224,1574 2088,1710 2088,1710 1634,2164 C 1576,2225 1517,2285 1498,2300 L 1498,2300 C 1471,2323 1435,2332 1403,2325 L 1403,2325 1218,2276 1218,2276 595,2110 410,2061 410,2061 C 393,2056 379,2048 365,2035 L 365,2035 C 353,2024 344,2007 340,1991 L 340,1991 C 333,1968 312,1884 291,1806 L 291,1806 124,1183 75,998 75,998 99,990 124,983 C 130,1007 152,1090 173,1168 L 173,1168 340,1793 C 361,1871 384,1955 389,1978 L 389,1978 C 392,1986 398,1992 402,1999 L 402,1999 C 409,2006 414,2010 423,2012 L 423,2012 608,2061 608,2061 1232,2227 1415,2276 1415,2276 C 1432,2281 1450,2275 1463,2264 L 1463,2264 1599,2128 1599,2128 2056,1672 2190,1537 2190,1537 C 2203,1524 2206,1506 2204,1489 L 2204,1489 C 2197,1466 2176,1382 2155,1304 L 2155,1304 1987,685 C 1965,606 1942,522 1938,500 L 1938,500 C 1934,491 1930,486 1924,479 L 1924,479 C 1918,472 1911,467 1903,466 L 1903,466 1718,414 1718,414 1097,247 911,198 911,198 C 894,196 876,201 863,212 L 863,212 727,348 727,348 271,804 135,940 135,940 C 124,952 119,970 123,987 L 123,987 98,991 74,998 C 65,963 75,928 99,903 L 99,903 235,767 235,767 692,313 826,177 826,177 C 853,154 890,145 922,152 L 922,152 1107,201 1107,201 1729,368 1914,417 1914,417 C 1931,421 1945,431 1959,442 L 1959,442 C 1972,456 1980,470 1984,487 L 1984,487 1984,487 Z"/>
        <path fill="rgb(0,166,180)" stroke="none" d="M 1204,322 L 1339,400 1339,400 1801,666 1938,745 1938,745 C 1962,760 1977,786 1979,815 L 1979,815 1979,972 1979,972 1979,1663 1979,1663 C 1977,1692 1962,1717 1938,1733 L 1938,1733 1802,1811 1802,1811 1339,2077 1204,2156 1204,2156 C 1189,2163 1177,2166 1163,2166 L 1163,2166 C 1147,2166 1135,2163 1121,2156 L 1121,2156 986,2077 986,2077 522,1811 388,1733 388,1733 398,1714 407,1696 542,1775 542,1775 1003,2041 1140,2119 1140,2119 C 1147,2124 1154,2125 1160,2125 L 1160,2125 C 1167,2125 1175,2124 1182,2119 L 1182,2119 1317,2041 1317,2041 1778,1775 1914,1696 1914,1696 C 1925,1688 1934,1675 1938,1661 L 1938,1661 1938,1504 1938,1504 1938,814 1938,814 C 1935,800 1928,786 1916,780 L 1916,780 1781,701 1781,701 1320,434 1184,355 1184,355 C 1177,353 1170,351 1163,351 L 1163,351 C 1156,351 1147,353 1143,355 L 1143,355 1006,434 1006,434 545,701 409,780 409,780 C 398,787 389,801 388,815 L 388,815 388,972 388,972 388,1663 388,1663 C 389,1677 395,1688 409,1698 L 409,1698 399,1716 389,1734 C 364,1720 350,1693 348,1664 L 348,1664 C 348,1644 348,1574 348,1507 L 348,1507 348,816 348,816 C 350,787 364,762 389,746 L 389,746 525,668 525,668 988,402 1124,323 1124,323 C 1136,316 1149,313 1164,313 L 1164,313 C 1177,312 1192,315 1204,322 L 1204,322 1204,322 Z"/>
        <path fill="rgb(0,166,180)" stroke="none" d="M 611,630 L 747,595 747,595 1205,472 1341,437 1341,437 C 1365,431 1391,438 1411,456 L 1411,456 1510,556 1510,556 1845,891 1945,990 1945,990 C 1963,1008 1970,1036 1963,1060 L 1963,1060 C 1959,1077 1942,1139 1928,1196 L 1928,1196 1805,1654 C 1788,1712 1773,1775 1768,1790 L 1768,1790 C 1766,1801 1759,1813 1749,1822 L 1749,1822 C 1742,1832 1729,1839 1717,1842 L 1717,1842 1581,1878 1581,1878 1124,2000 988,2037 988,2037 982,2020 978,2002 1114,1967 1114,1967 1571,1843 1707,1808 1707,1808 C 1714,1806 1718,1803 1724,1799 L 1724,1799 C 1728,1793 1732,1789 1733,1782 L 1733,1782 1768,1646 1768,1646 1892,1188 C 1909,1130 1924,1069 1928,1052 L 1928,1052 C 1930,1039 1925,1028 1918,1018 L 1918,1018 1820,919 1820,919 1484,584 1384,483 1384,483 C 1375,476 1362,472 1351,473 L 1351,473 1215,509 1215,509 756,634 620,669 620,669 C 615,672 609,675 605,679 L 605,679 C 599,685 597,689 595,696 L 595,696 C 590,713 574,774 559,832 L 559,832 437,1287 C 421,1345 405,1408 400,1423 L 400,1423 C 399,1437 402,1448 410,1458 L 410,1458 510,1558 510,1558 845,1892 944,1992 944,1992 C 954,2000 968,2005 979,2002 L 979,2002 983,2020 989,2038 C 964,2044 939,2037 919,2019 L 919,2019 819,1919 819,1919 482,1579 382,1479 382,1479 C 364,1461 358,1436 362,1409 L 362,1409 C 368,1392 384,1331 399,1273 L 399,1273 521,815 557,679 557,679 C 560,668 567,657 577,647 L 577,647 C 588,640 599,634 611,630 L 611,630 611,630 Z"/>
        <path fill="rgb(0,166,180)" stroke="none" d="M 490,1912 C 119,1541 119,940 490,567 862,194 1463,196 1836,567 2209,938 2207,1539 1836,1912 L 1836,1912 C 1464,2283 863,2283 490,1912 L 490,1912 490,1912 490,1912 Z M 1805,1881 C 2158,1527 2157,952 1802,601 1447,247 873,250 521,605 169,958 169,1530 522,1883 876,2237 1450,2236 1805,1881 1805,1883 1805,1883 1805,1881 L 1805,1881 1805,1881 1805,1881 Z"/>
        <path fill="rgb(0,166,180)" stroke="none" d="M 1194,550 L 1295,609 1295,609 1637,805 1738,864 1738,864 C 1756,875 1767,895 1767,917 L 1767,917 1767,1032 1767,1032 1767,1545 1767,1545 C 1766,1566 1756,1586 1738,1597 L 1738,1597 1637,1654 1637,1654 1295,1852 1194,1911 1194,1911 C 1184,1916 1174,1919 1164,1919 L 1164,1919 C 1154,1919 1143,1916 1135,1911 L 1135,1911 1033,1852 1033,1852 692,1654 590,1595 590,1595 598,1583 606,1569 706,1628 706,1628 1048,1825 1149,1884 1149,1884 C 1154,1888 1159,1888 1164,1888 L 1164,1888 C 1168,1888 1174,1888 1178,1884 L 1178,1884 1281,1825 1281,1825 1621,1628 1724,1569 1724,1569 C 1732,1563 1738,1555 1738,1544 L 1738,1544 1738,1427 1738,1427 1738,914 1738,914 C 1736,905 1732,895 1724,889 L 1724,889 1621,830 1621,830 1282,634 1180,575 1180,575 C 1175,574 1170,571 1166,571 L 1166,571 C 1160,571 1156,574 1150,575 L 1150,575 1049,634 1049,634 707,830 606,889 606,889 C 598,895 591,905 591,914 L 591,914 591,1031 591,1031 591,1544 591,1544 C 594,1553 598,1563 606,1569 L 606,1569 598,1583 590,1595 C 571,1584 560,1565 560,1544 L 560,1544 560,1426 560,1426 560,913 560,913 C 560,892 571,872 590,861 L 590,861 692,802 692,802 1033,606 1135,547 1135,547 C 1145,542 1154,539 1164,539 L 1164,539 C 1174,545 1184,546 1194,550 L 1194,550 1194,550 1194,550 Z"/>
        <path fill="rgb(0,166,180)" stroke="none" d="M 665,1727 C 391,1452 391,1007 665,732 940,458 1386,458 1660,732 1935,1007 1935,1452 1660,1727 1386,2005 940,2005 665,1727 L 665,1727 665,1727 Z M 1638,1706 C 1900,1445 1899,1020 1637,757 1375,497 950,498 688,760 428,1021 428,1445 688,1706 950,1968 1375,1969 1638,1706 1637,1706 1638,1706 1638,1706 L 1638,1706 1638,1706 Z"/>
       </g>
      </g>
     </g>
    </g>
   </g>
  </g>
 </g>
</svg>