<?xml version="1.0" encoding="UTF-8"?>
<!DOCTYPE svg PUBLIC "-//W3C//DTD SVG 1.1//EN" "http://www.w3.org/Graphics/SVG/1.1/DTD/svg11.dtd">
<svg version="1.2" width="73.66mm" height="25.4mm" viewBox="0 0 7366 2540" preserveAspectRatio="xMidYMid" fill-rule="evenodd" stroke-width="28.222" stroke-linejoin="round" xmlns="http://www.w3.org/2000/svg" xmlns:ooo="http://xml.openoffice.org/svg/export" xmlns:xlink="http://www.w3.org/1999/xlink" xmlns:presentation="http://sun.com/xmlns/staroffice/presentation" xmlns:smil="http://www.w3.org/2001/SMIL20/" xmlns:anim="urn:oasis:names:tc:opendocument:xmlns:animation:1.0" xmlns:svg="urn:oasis:names:tc:opendocument:xmlns:svg-compatible:1.0" xml:space="preserve">
 <defs class="ClipPathGroup">
  <clipPath id="presentation_clip_path" clipPathUnits="userSpaceOnUse">
   <rect x="0" y="0" width="7366" height="2540"/>
  </clipPath>
  <clipPath id="presentation_clip_path_shrink" clipPathUnits="userSpaceOnUse">
   <rect x="7" y="2" width="7352" height="2535"/>
  </clipPath>
 </defs>
 <defs class="TextShapeIndex">
  <g ooo:slide="id1" ooo:id-list="id3"/>
 </defs>
 <defs class="EmbeddedBulletChars">
  <g id="bullet-char-template-57356" transform="scale(0.00048828125,-0.00048828125)">
   <path d="M 580,1141 L 1163,571 580,0 -4,571 580,1141 Z"/>
  </g>
  <g id="bullet-char-template-57354" transform="scale(0.00048828125,-0.00048828125)">
   <path d="M 8,1128 L 1137,1128 1137,0 8,0 8,1128 Z"/>
  </g>
  <g id="bullet-char-template-10146" transform="scale(0.00048828125,-0.00048828125)">
   <path d="M 174,0 L 602,739 174,1481 1456,739 174,0 Z M 1358,739 L 309,1346 659,739 1358,739 Z"/>
  </g>
  <g id="bullet-char-template-10132" transform="scale(0.00048828125,-0.00048828125)">
   <path d="M 2015,739 L 1276,0 717,0 1260,543 174,543 174,936 1260,936 717,1481 1274,1481 2015,739 Z"/>
  </g>
  <g id="bullet-char-template-10007" transform="scale(0.00048828125,-0.00048828125)">
   <path d="M 0,-2 C -7,14 -16,27 -25,37 L 356,567 C 262,823 215,952 215,954 215,979 228,992 255,992 264,992 276,990 289,987 310,991 331,999 354,1012 L 381,999 492,748 772,1049 836,1024 860,1049 C 881,1039 901,1025 922,1006 886,937 835,863 770,784 769,783 710,716 594,584 L 774,223 C 774,196 753,168 711,139 L 727,119 C 717,90 699,76 672,76 641,76 570,178 457,381 L 164,-76 C 142,-110 111,-127 72,-127 30,-127 9,-110 8,-76 1,-67 -2,-52 -2,-32 -2,-23 -1,-13 0,-2 Z"/>
  </g>
  <g id="bullet-char-template-10004" transform="scale(0.00048828125,-0.00048828125)">
   <path d="M 285,-33 C 182,-33 111,30 74,156 52,228 41,333 41,471 41,549 55,616 82,672 116,743 169,778 240,778 293,778 328,747 346,684 L 369,508 C 377,444 397,411 428,410 L 1163,1116 C 1174,1127 1196,1133 1229,1133 1271,1133 1292,1118 1292,1087 L 1292,965 C 1292,929 1282,901 1262,881 L 442,47 C 390,-6 338,-33 285,-33 Z"/>
  </g>
  <g id="bullet-char-template-9679" transform="scale(0.00048828125,-0.00048828125)">
   <path d="M 813,0 C 632,0 489,54 383,161 276,268 223,411 223,592 223,773 276,916 383,1023 489,1130 632,1184 813,1184 992,1184 1136,1130 1245,1023 1353,916 1407,772 1407,592 1407,412 1353,268 1245,161 1136,54 992,0 813,0 Z"/>
  </g>
  <g id="bullet-char-template-8226" transform="scale(0.00048828125,-0.00048828125)">
   <path d="M 346,457 C 273,457 209,483 155,535 101,586 74,649 74,723 74,796 101,859 155,911 209,963 273,989 346,989 419,989 480,963 531,910 582,859 608,796 608,723 608,648 583,586 532,535 482,483 420,457 346,457 Z"/>
  </g>
  <g id="bullet-char-template-8211" transform="scale(0.00048828125,-0.00048828125)">
   <path d="M -4,459 L 1135,459 1135,606 -4,606 -4,459 Z"/>
  </g>
  <g id="bullet-char-template-61548" transform="scale(0.00048828125,-0.00048828125)">
   <path d="M 173,740 C 173,903 231,1043 346,1159 462,1274 601,1332 765,1332 928,1332 1067,1274 1183,1159 1299,1043 1357,903 1357,740 1357,577 1299,437 1183,322 1067,206 928,148 765,148 601,148 462,206 346,322 231,437 173,577 173,740 Z"/>
  </g>
 </defs>
 <g>
  <g id="id2" class="Master_Slide">
   <g id="bg-id2" class="Background"/>
   <g id="bo-id2" class="BackgroundObjects"/>
  </g>
 </g>
 <g class="SlideGroup">
  <g>
   <g id="container-id1">
    <g id="id1" class="Slide" clip-path="url(#presentation_clip_path)">
     <g class="Page">
      <g class="Graphic">
       <g id="id3">
        <rect class="BoundingBox" stroke="none" fill="none" x="-143" y="-2575" width="7620" height="7620"/>
        <path fill="rgb(68,84,100)" stroke="none" d="M 1953,1476 L 1953,1051 1816,1051 1816,863 1951,863 1951,639 2166,639 2166,863 2332,863 2332,1051 2167,1051 2167,1419 C 2167,1471 2194,1510 2242,1510 2269,1511 2296,1502 2317,1484 L 2362,1649 C 2329,1678 2272,1701 2182,1701 2032,1701 1953,1623 1953,1476 L 1953,1476 Z M 2382,1271 C 2382,1034 2558,841 2805,841 3053,841 3215,1024 3215,1291 L 3215,1342 2607,1342 C 2622,1442 2704,1525 2844,1525 2913,1525 3008,1496 3061,1446 L 3158,1588 C 3076,1663 2948,1701 2821,1701 2571,1701 2382,1533 2382,1271 L 2382,1271 Z M 2805,1019 C 2671,1019 2614,1112 2606,1194 L 3008,1194 C 3003,1115 2948,1019 2805,1019 L 2805,1019 Z M 3849,1680 L 3849,1187 C 3849,1073 3789,1034 3698,1034 3624,1035 3556,1070 3511,1128 L 3511,1680 3297,1680 3297,862 3511,862 3511,967 C 3585,887 3689,841 3797,841 3978,841 4064,943 4064,1103 L 4064,1680 3849,1680 3849,1680 Z M 4678,1680 L 4678,1594 C 4622,1662 4525,1701 4419,1701 4288,1701 4137,1614 4137,1431 4137,1237 4290,1167 4419,1167 4529,1167 4624,1203 4678,1267 L 4678,1163 C 4678,1080 4607,1027 4498,1027 4410,1028 4326,1062 4262,1124 L 4176,973 C 4276,888 4403,841 4533,845 4721,845 4893,919 4893,1155 L 4893,1684 4678,1684 4678,1680 Z M 4678,1484 L 4678,1383 C 4643,1335 4575,1310 4507,1310 4421,1310 4353,1356 4353,1434 4353,1512 4421,1555 4507,1555 4574,1555 4642,1532 4678,1484 L 4678,1484 Z M 4986,1680 L 4986,551 5201,551 5201,967 C 5260,888 5354,841 5453,841 5662,841 5816,1003 5816,1271 5816,1545 5661,1700 5453,1700 5354,1700 5260,1653 5201,1575 L 5201,1680 4986,1680 4986,1680 Z M 5389,1509 C 5512,1509 5595,1412 5595,1270 5595,1127 5512,1033 5389,1033 5315,1034 5246,1069 5202,1127 L 5202,1417 C 5247,1475 5315,1509 5389,1509 L 5389,1509 5389,1509 Z M 5889,1680 L 5889,551 6104,551 6104,1680 5889,1680 5889,1680 Z M 6186,1271 C 6186,1034 6362,841 6609,841 6856,841 7019,1024 7019,1291 L 7019,1342 6411,1342 C 6426,1442 6508,1525 6648,1525 6716,1525 6812,1496 6865,1446 L 6961,1588 C 6880,1663 6751,1701 6624,1701 6373,1701 6186,1533 6186,1271 L 6186,1271 Z M 6608,1019 C 6474,1019 6417,1112 6408,1194 L 6811,1194 C 6805,1115 6750,1019 6608,1019 L 6608,1019 Z M 7084,760 C 7094,765 7104,775 7110,785 7115,796 7119,809 7119,821 7119,834 7115,846 7110,858 7104,868 7094,877 7084,883 7073,889 7061,893 7048,893 7022,893 6999,880 6987,858 6981,847 6978,834 6978,821 6978,809 6981,796 6987,785 6993,775 7002,765 7013,760 7023,753 7036,750 7048,750 7061,750 7073,754 7084,760 L 7084,760 Z M 7077,872 C 7085,867 7092,859 7097,851 7106,832 7106,810 7097,791 7092,782 7085,775 7077,770 7069,765 7058,762 7048,763 7037,763 7028,765 7020,770 7012,775 7005,783 7000,791 6991,810 6991,832 7000,851 7005,860 7012,867 7020,872 7028,876 7038,880 7048,879 7058,880 7069,876 7077,872 L 7077,872 Z M 7073,819 C 7070,823 7065,826 7061,827 L 7082,859 7063,859 7045,830 7038,830 7038,859 7022,859 7022,781 7043,781 C 7066,781 7077,789 7077,804 7078,811 7077,816 7073,819 L 7073,819 Z M 7038,817 L 7047,817 C 7057,817 7062,813 7062,805 7062,802 7061,798 7058,797 7055,795 7050,795 7047,795 L 7038,795 7038,817 7038,817 Z"/>
        <path fill="rgb(0,166,180)" stroke="none" d="M 1483,642 C 1488,658 1503,718 1518,774 L 1518,774 1637,1218 C 1653,1274 1669,1334 1672,1350 L 1672,1350 C 1678,1375 1671,1400 1654,1418 L 1654,1418 1557,1515 1557,1515 1233,1839 C 1192,1882 1150,1925 1136,1936 L 1136,1936 C 1117,1952 1091,1959 1068,1954 L 1068,1954 936,1919 936,1919 492,1800 360,1765 360,1765 C 348,1762 338,1756 328,1747 L 328,1747 C 319,1739 313,1727 310,1715 L 310,1715 C 305,1699 290,1639 275,1583 L 275,1583 156,1139 121,1007 121,1007 138,1001 156,996 C 160,1013 176,1072 191,1128 L 191,1128 310,1574 C 325,1630 341,1690 345,1706 L 345,1706 C 347,1712 351,1716 354,1721 L 354,1721 C 359,1726 363,1729 369,1730 L 369,1730 501,1765 501,1765 946,1884 1077,1919 1077,1919 C 1089,1922 1102,1918 1111,1910 L 1111,1910 1208,1813 1208,1813 1534,1488 1630,1391 1630,1391 C 1639,1382 1641,1369 1640,1357 L 1640,1357 C 1635,1341 1620,1281 1605,1225 L 1605,1225 1485,783 C 1469,727 1453,667 1450,651 L 1450,651 C 1447,645 1444,641 1440,636 L 1440,636 C 1436,631 1431,628 1425,627 L 1425,627 1293,590 1293,590 850,471 717,436 717,436 C 705,434 692,438 683,446 L 683,446 586,543 586,543 261,868 164,965 164,965 C 156,974 152,987 155,999 L 155,999 137,1002 120,1007 C 114,982 121,957 138,939 L 138,939 235,842 235,842 561,518 657,421 657,421 C 676,404 702,398 725,403 L 725,403 857,438 857,438 1301,557 1433,592 1433,592 C 1445,595 1455,602 1465,610 L 1465,610 C 1474,620 1480,630 1483,642 L 1483,642 Z"/>
        <path fill="rgb(0,166,180)" stroke="none" d="M 926,524 L 1023,580 1023,580 1352,770 1450,826 1450,826 C 1467,837 1478,855 1479,876 L 1479,876 1479,988 1479,988 1479,1481 1479,1481 C 1478,1502 1467,1520 1450,1531 L 1450,1531 1353,1587 1353,1587 1023,1777 926,1833 926,1833 C 916,1838 907,1840 897,1840 L 897,1840 C 886,1840 877,1838 867,1833 L 867,1833 771,1777 771,1777 440,1587 344,1531 344,1531 351,1518 358,1505 454,1561 454,1561 783,1751 881,1807 881,1807 C 886,1810 891,1811 895,1811 L 895,1811 C 900,1811 906,1810 911,1807 L 911,1807 1007,1751 1007,1751 1336,1561 1433,1505 1433,1505 C 1441,1499 1447,1490 1450,1480 L 1450,1480 1450,1368 1450,1368 1450,875 1450,875 C 1448,865 1443,855 1434,851 L 1434,851 1338,795 1338,795 1009,604 912,548 912,548 C 907,546 902,545 897,545 L 897,545 C 892,545 886,546 883,548 L 883,548 785,604 785,604 456,795 359,851 359,851 C 351,856 345,866 344,876 L 344,876 344,988 344,988 344,1481 344,1481 C 345,1491 349,1499 359,1506 L 359,1506 352,1519 345,1532 C 327,1522 317,1503 316,1482 L 316,1482 C 316,1468 316,1418 316,1370 L 316,1370 316,877 316,877 C 317,856 327,838 345,827 L 345,827 442,771 442,771 772,581 869,525 869,525 C 878,520 887,518 898,518 L 898,518 C 907,517 918,519 926,524 L 926,524 Z"/>
        <path fill="rgb(0,166,180)" stroke="none" d="M 503,744 L 600,719 600,719 927,631 1024,606 1024,606 C 1041,602 1060,607 1074,620 L 1074,620 1145,691 1145,691 1384,930 1455,1001 1455,1001 C 1468,1014 1473,1034 1468,1051 L 1468,1051 C 1465,1063 1453,1107 1443,1148 L 1443,1148 1355,1475 C 1343,1516 1332,1561 1329,1572 L 1329,1572 C 1327,1580 1322,1588 1315,1595 L 1315,1595 C 1310,1602 1301,1607 1292,1609 L 1292,1609 1195,1635 1195,1635 869,1722 772,1748 772,1748 768,1736 765,1723 862,1698 862,1698 1188,1610 1285,1585 1285,1585 C 1290,1583 1293,1581 1297,1578 L 1297,1578 C 1300,1574 1303,1571 1304,1566 L 1304,1566 1329,1469 1329,1469 1417,1142 C 1429,1101 1440,1057 1443,1045 L 1443,1045 C 1444,1036 1441,1028 1436,1021 L 1436,1021 1366,950 1366,950 1126,711 1055,639 1055,639 C 1048,634 1039,631 1031,632 L 1031,632 934,658 934,658 607,747 510,772 510,772 C 506,774 502,776 499,779 L 499,779 C 495,783 493,786 492,791 L 492,791 C 488,803 477,847 466,888 L 466,888 379,1213 C 368,1254 356,1299 353,1310 L 353,1310 C 352,1320 354,1328 360,1335 L 360,1335 431,1406 431,1406 670,1645 741,1716 741,1716 C 748,1722 758,1725 766,1723 L 766,1723 769,1736 773,1749 C 755,1753 737,1748 723,1735 L 723,1735 652,1664 652,1664 411,1421 340,1350 340,1350 C 327,1337 323,1319 326,1300 L 326,1300 C 330,1288 341,1244 352,1203 L 352,1203 439,876 465,779 465,779 C 467,771 472,763 479,756 L 479,756 C 487,751 495,747 503,744 L 503,744 Z"/>
        <path fill="rgb(0,166,180)" stroke="none" d="M 417,1659 C 152,1394 152,965 417,699 682,433 1111,434 1377,699 1643,964 1642,1393 1377,1659 L 1377,1659 C 1112,1924 683,1924 417,1659 L 417,1659 417,1659 Z M 1355,1637 C 1607,1384 1606,974 1353,723 1100,471 690,473 439,726 188,978 188,1386 440,1638 692,1891 1102,1890 1355,1637 1355,1638 1355,1638 1355,1637 L 1355,1637 1355,1637 Z"/>
        <path fill="rgb(0,166,180)" stroke="none" d="M 919,687 L 991,729 991,729 1235,869 1307,911 1307,911 C 1320,919 1328,933 1328,949 L 1328,949 1328,1031 1328,1031 1328,1397 1328,1397 C 1327,1412 1320,1426 1307,1434 L 1307,1434 1235,1475 1235,1475 991,1616 919,1658 919,1658 C 912,1662 905,1664 898,1664 L 898,1664 C 891,1664 883,1662 877,1658 L 877,1658 804,1616 804,1616 561,1475 488,1433 488,1433 494,1424 500,1414 571,1456 571,1456 815,1597 887,1639 887,1639 C 891,1642 894,1642 898,1642 L 898,1642 C 901,1642 905,1642 908,1639 L 908,1639 981,1597 981,1597 1224,1456 1297,1414 1297,1414 C 1303,1410 1307,1404 1307,1396 L 1307,1396 1307,1313 1307,1313 1307,947 1307,947 C 1306,940 1303,933 1297,929 L 1297,929 1224,887 1224,887 982,747 909,705 909,705 C 906,704 902,702 899,702 L 899,702 C 895,702 892,704 888,705 L 888,705 816,747 816,747 572,887 500,929 500,929 C 494,933 489,940 489,947 L 489,947 489,1030 489,1030 489,1396 489,1396 C 491,1403 494,1410 500,1414 L 500,1414 494,1424 488,1433 C 475,1425 467,1411 467,1396 L 467,1396 467,1312 467,1312 467,946 467,946 C 467,931 475,917 488,909 L 488,909 561,867 561,867 804,727 877,685 877,685 C 884,681 891,679 898,679 L 898,679 C 905,683 912,684 919,687 L 919,687 919,687 Z"/>
        <path fill="rgb(0,166,180)" stroke="none" d="M 542,1527 C 346,1331 346,1013 542,817 738,621 1056,621 1252,817 1448,1013 1448,1331 1252,1527 1056,1725 738,1725 542,1527 L 542,1527 Z M 1236,1512 C 1423,1326 1422,1022 1235,835 1048,649 745,650 558,837 373,1023 373,1326 558,1512 745,1699 1048,1700 1236,1512 1235,1512 1236,1512 1236,1512 L 1236,1512 Z"/>
       </g>
      </g>
     </g>
    </g>
   </g>
  </g>
 </g>
</svg>