<?xml version="1.0" encoding="UTF-8"?>
<!DOCTYPE svg PUBLIC "-//W3C//DTD SVG 1.1//EN" "http://www.w3.org/Graphics/SVG/1.1/DTD/svg11.dtd">
<svg version="1.2" width="139.7mm" height="30.48mm" viewBox="0 0 13970 3048" preserveAspectRatio="xMidYMid" fill-rule="evenodd" stroke-width="28.222" stroke-linejoin="round" xmlns="http://www.w3.org/2000/svg" xmlns:ooo="http://xml.openoffice.org/svg/export" xmlns:xlink="http://www.w3.org/1999/xlink" xmlns:presentation="http://sun.com/xmlns/staroffice/presentation" xmlns:smil="http://www.w3.org/2001/SMIL20/" xmlns:anim="urn:oasis:names:tc:opendocument:xmlns:animation:1.0" xmlns:svg="urn:oasis:names:tc:opendocument:xmlns:svg-compatible:1.0" xml:space="preserve">
 <defs class="ClipPathGroup">
  <clipPath id="presentation_clip_path" clipPathUnits="userSpaceOnUse">
   <rect x="0" y="0" width="13970" height="3048"/>
  </clipPath>
  <clipPath id="presentation_clip_path_shrink" clipPathUnits="userSpaceOnUse">
   <rect x="13" y="3" width="13943" height="3042"/>
  </clipPath>
 </defs>
 <defs class="TextShapeIndex">
  <g ooo:slide="id1" ooo:id-list="id3"/>
 </defs>
 <defs class="EmbeddedBulletChars">
  <g id="bullet-char-template-57356" transform="scale(0.00048828125,-0.00048828125)">
   <path d="M 580,1141 L 1163,571 580,0 -4,571 580,1141 Z"/>
  </g>
  <g id="bullet-char-template-57354" transform="scale(0.00048828125,-0.00048828125)">
   <path d="M 8,1128 L 1137,1128 1137,0 8,0 8,1128 Z"/>
  </g>
  <g id="bullet-char-template-10146" transform="scale(0.00048828125,-0.00048828125)">
   <path d="M 174,0 L 602,739 174,1481 1456,739 174,0 Z M 1358,739 L 309,1346 659,739 1358,739 Z"/>
  </g>
  <g id="bullet-char-template-10132" transform="scale(0.00048828125,-0.00048828125)">
   <path d="M 2015,739 L 1276,0 717,0 1260,543 174,543 174,936 1260,936 717,1481 1274,1481 2015,739 Z"/>
  </g>
  <g id="bullet-char-template-10007" transform="scale(0.00048828125,-0.00048828125)">
   <path d="M 0,-2 C -7,14 -16,27 -25,37 L 356,567 C 262,823 215,952 215,954 215,979 228,992 255,992 264,992 276,990 289,987 310,991 331,999 354,1012 L 381,999 492,748 772,1049 836,1024 860,1049 C 881,1039 901,1025 922,1006 886,937 835,863 770,784 769,783 710,716 594,584 L 774,223 C 774,196 753,168 711,139 L 727,119 C 717,90 699,76 672,76 641,76 570,178 457,381 L 164,-76 C 142,-110 111,-127 72,-127 30,-127 9,-110 8,-76 1,-67 -2,-52 -2,-32 -2,-23 -1,-13 0,-2 Z"/>
  </g>
  <g id="bullet-char-template-10004" transform="scale(0.00048828125,-0.00048828125)">
   <path d="M 285,-33 C 182,-33 111,30 74,156 52,228 41,333 41,471 41,549 55,616 82,672 116,743 169,778 240,778 293,778 328,747 346,684 L 369,508 C 377,444 397,411 428,410 L 1163,1116 C 1174,1127 1196,1133 1229,1133 1271,1133 1292,1118 1292,1087 L 1292,965 C 1292,929 1282,901 1262,881 L 442,47 C 390,-6 338,-33 285,-33 Z"/>
  </g>
  <g id="bullet-char-template-9679" transform="scale(0.00048828125,-0.00048828125)">
   <path d="M 813,0 C 632,0 489,54 383,161 276,268 223,411 223,592 223,773 276,916 383,1023 489,1130 632,1184 813,1184 992,1184 1136,1130 1245,1023 1353,916 1407,772 1407,592 1407,412 1353,268 1245,161 1136,54 992,0 813,0 Z"/>
  </g>
  <g id="bullet-char-template-8226" transform="scale(0.00048828125,-0.00048828125)">
   <path d="M 346,457 C 273,457 209,483 155,535 101,586 74,649 74,723 74,796 101,859 155,911 209,963 273,989 346,989 419,989 480,963 531,910 582,859 608,796 608,723 608,648 583,586 532,535 482,483 420,457 346,457 Z"/>
  </g>
  <g id="bullet-char-template-8211" transform="scale(0.00048828125,-0.00048828125)">
   <path d="M -4,459 L 1135,459 1135,606 -4,606 -4,459 Z"/>
  </g>
  <g id="bullet-char-template-61548" transform="scale(0.00048828125,-0.00048828125)">
   <path d="M 173,740 C 173,903 231,1043 346,1159 462,1274 601,1332 765,1332 928,1332 1067,1274 1183,1159 1299,1043 1357,903 1357,740 1357,577 1299,437 1183,322 1067,206 928,148 765,148 601,148 462,206 346,322 231,437 173,577 173,740 Z"/>
  </g>
 </defs>
 <g>
  <g id="id2" class="Master_Slide">
   <g id="bg-id2" class="Background"/>
   <g id="bo-id2" class="BackgroundObjects"/>
  </g>
 </g>
 <g class="SlideGroup">
  <g>
   <g id="container-id1">
    <g id="id1" class="Slide" clip-path="url(#presentation_clip_path)">
     <g class="Page">
      <g class="Graphic">
       <title>Thales Group logo
       </title>
       <g id="id3">
        <rect class="BoundingBox" stroke="none" fill="none" x="600" y="800" width="12806" height="1519"/>
        <defs>
         <clipPath id="clip_path_1" clipPathUnits="userSpaceOnUse">
          <path d="M 600,800 L 13405,800 13405,2318 600,2318 600,800 Z"/>
         </clipPath>
        </defs>
        <g clip-path="url(#clip_path_1)">
         <path fill="rgb(44,47,115)" stroke="none" d="M 13405,1913 C 13405,2120 13344,2180 13180,2231 13003,2284 12688,2318 12500,2318 12278,2318 12000,2305 11765,2249 L 11765,2011 13069,2011 13069,1686 12146,1686 C 11868,1686 11765,1609 11765,1339 L 11765,1197 C 11765,982 11828,919 12000,874 12175,829 12460,800 12648,800 12876,800 13148,819 13384,871 L 13384,1109 12101,1109 12101,1382 13024,1382 C 13302,1382 13405,1456 13405,1728 L 13405,1913 Z"/>
         <path fill="rgb(44,47,115)" stroke="none" d="M 11183,2247 C 10913,2299 10640,2315 10376,2315 10111,2315 9836,2299 9564,2247 L 9564,871 C 9833,819 10109,800 10370,800 10635,800 10902,816 11172,871 L 11172,1117 9950,1117 9950,1392 10746,1392 10746,1678 9950,1678 9950,2003 11177,2003 11177,2247 11183,2247 Z"/>
         <path fill="rgb(44,47,115)" stroke="none" d="M 9093,2247 C 8849,2299 8606,2315 8370,2315 8135,2315 7886,2302 7643,2247 L 7643,834 8032,834 8032,1985 9093,1985 9093,2247 Z"/>
         <path fill="rgb(44,47,115)" stroke="none" d="M 7188,2257 C 7058,2294 6886,2307 6759,2310 L 6159,1099 6124,1099 5526,2310 C 5399,2307 5248,2294 5119,2257 L 5878,837 6420,837 7188,2257 Z"/>
         <path fill="rgb(94,191,212)" stroke="none" d="M 6394,1895 C 6394,2035 6280,2146 6140,2146 6000,2146 5889,2032 5889,1895 5889,1755 6002,1644 6140,1644 6280,1644 6394,1755 6394,1895 Z"/>
         <path fill="rgb(44,47,115)" stroke="none" d="M 4648,2257 C 4524,2294 4391,2305 4259,2307 L 4259,1691 3293,1691 3293,2307 C 3161,2305 3029,2292 2904,2257 L 2904,861 C 3029,824 3161,813 3293,811 L 3293,1406 4259,1406 4259,811 C 4391,813 4524,826 4648,861 L 4648,2257 Z"/>
         <path fill="rgb(44,47,115)" stroke="none" d="M 2351,1120 L 1669,1120 1669,2284 1283,2284 1283,1120 600,1120 600,871 C 894,819 1190,800 1476,800 1761,800 2058,816 2351,871 L 2351,1120 Z"/>
        </g>
       </g>
      </g>
     </g>
    </g>
   </g>
  </g>
 </g>
</svg>