<svg id="visual" viewBox="0 0 1920 1080" width="1920" height="1080" xmlns="http://www.w3.org/2000/svg" xmlns:xlink="http://www.w3.org/1999/xlink" version="1.1"><rect x="0" y="0" width="1920" height="1080" fill="#000"></rect><path d="M0 646L53.3 630C106.7 614 213.3 582 320 577C426.7 572 533.3 594 640 610.2C746.7 626.3 853.3 636.7 960 631.3C1066.7 626 1173.3 605 1280 610C1386.7 615 1493.3 646 1600 645C1706.7 644 1813.3 611 1866.7 594.5L1920 578L1920 1081L1866.7 1081C1813.3 1081 1706.7 1081 1600 1081C1493.3 1081 1386.7 1081 1280 1081C1173.3 1081 1066.7 1081 960 1081C853.3 1081 746.7 1081 640 1081C533.3 1081 426.7 1081 320 1081C213.3 1081 106.7 1081 53.3 1081L0 1081Z" fill="#231273"></path><path d="M0 714L53.3 712.2C106.7 710.3 213.3 706.7 320 722.7C426.7 738.7 533.3 774.3 640 787.7C746.7 801 853.3 792 960 792.5C1066.7 793 1173.3 803 1280 808.5C1386.7 814 1493.3 815 1600 796.8C1706.7 778.7 1813.3 741.3 1866.7 722.7L1920 704L1920 1081L1866.7 1081C1813.3 1081 1706.7 1081 1600 1081C1493.3 1081 1386.7 1081 1280 1081C1173.3 1081 1066.7 1081 960 1081C853.3 1081 746.7 1081 640 1081C533.3 1081 426.7 1081 320 1081C213.3 1081 106.7 1081 53.3 1081L0 1081Z" fill="#0086ce"></path><path d="M0 961L53.3 943.8C106.7 926.7 213.3 892.3 320 885.7C426.7 879 533.3 900 640 916.3C746.7 932.7 853.3 944.3 960 944.2C1066.7 944 1173.3 932 1280 932.7C1386.7 933.3 1493.3 946.7 1600 952.5C1706.7 958.3 1813.3 956.7 1866.7 955.8L1920 955L1920 1081L1866.7 1081C1813.3 1081 1706.7 1081 1600 1081C1493.3 1081 1386.7 1081 1280 1081C1173.3 1081 1066.7 1081 960 1081C853.3 1081 746.7 1081 640 1081C533.3 1081 426.7 1081 320 1081C213.3 1081 106.7 1081 53.3 1081L0 1081Z" fill="#38ebe3"></path></svg>