<?xml version="1.0" encoding="UTF-8"?>
<!DOCTYPE svg PUBLIC "-//W3C//DTD SVG 1.1//EN" "http://www.w3.org/Graphics/SVG/1.1/DTD/svg11.dtd">
<svg xmlns="http://www.w3.org/2000/svg" version="1.1" width="752px" height="752px" style="shape-rendering:geometricPrecision; text-rendering:geometricPrecision; image-rendering:optimizeQuality; fill-rule:evenodd; clip-rule:evenodd" xmlns:xlink="http://www.w3.org/1999/xlink">
<g><path style="opacity:0.987" fill="#231273" d="M 156.5,156.5 C 302.5,156.5 448.5,156.5 594.5,156.5C 594.5,247.833 594.5,339.167 594.5,430.5C 524.833,430.5 455.167,430.5 385.5,430.5C 385.5,461.167 385.5,491.833 385.5,522.5C 398.936,526.102 407.603,534.602 411.5,548C 448.165,548.5 484.832,548.667 521.5,548.5C 521.5,554.833 521.5,561.167 521.5,567.5C 484.5,567.5 447.5,567.5 410.5,567.5C 405.459,584.876 393.793,593.876 375.5,594.5C 357.227,593.883 345.561,584.883 340.5,567.5C 303.5,567.5 266.5,567.5 229.5,567.5C 229.5,561.167 229.5,554.833 229.5,548.5C 266.168,548.667 302.835,548.5 339.5,548C 343.397,534.602 352.064,526.102 365.5,522.5C 365.5,491.833 365.5,461.167 365.5,430.5C 295.833,430.5 226.167,430.5 156.5,430.5C 156.5,339.167 156.5,247.833 156.5,156.5 Z M 497.5,191.5 C 515.086,192.087 525.086,201.087 527.5,218.5C 525.5,234.5 516.5,243.5 500.5,245.5C 496.46,245.199 492.627,244.199 489,242.5C 475.833,255.667 462.667,268.833 449.5,282C 455.629,299.277 450.296,311.611 433.5,319C 418.207,322.52 407.207,317.187 400.5,303C 383.833,302.333 367.167,302.333 350.5,303C 342.139,318.789 329.473,323.789 312.5,318C 300,330.5 287.5,343 275,355.5C 279.796,368.85 276.962,380.35 266.5,390C 249.703,399.259 236.203,395.759 226,379.5C 220.51,362.315 226.01,350.149 242.5,343C 245.155,342.436 247.821,341.936 250.5,341.5C 254.943,342.289 259.276,343.123 263.5,344C 276,331.5 288.5,319 301,306.5C 295.036,288.718 300.536,275.885 317.5,268C 332.515,265.007 343.515,270.341 350.5,284C 367.167,284.667 383.833,284.667 400.5,284C 409.024,268.402 421.691,263.402 438.5,269C 451,256.5 463.5,244 476,231.5C 471.198,218.187 474.032,206.687 484.5,197C 488.717,194.549 493.05,192.715 497.5,191.5 Z"/></g>
</svg>
