<?xml version="1.0" encoding="UTF-8"?>
<!DOCTYPE svg PUBLIC "-//W3C//DTD SVG 1.1//EN" "http://www.w3.org/Graphics/SVG/1.1/DTD/svg11.dtd">
<svg xmlns="http://www.w3.org/2000/svg" version="1.1" width="752px" height="752px" style="shape-rendering:geometricPrecision; text-rendering:geometricPrecision; image-rendering:optimizeQuality; fill-rule:evenodd; clip-rule:evenodd" xmlns:xlink="http://www.w3.org/1999/xlink">
<g><path style="opacity:0.987" fill="#231273" d="M 411.5,221.5 C 458.365,221.003 493.198,241.003 516,281.5C 524.567,299.901 528.067,319.234 526.5,339.5C 565.957,348.792 589.123,373.459 596,413.5C 598.79,457.113 580.29,487.613 540.5,505C 532.742,507.818 524.742,509.485 516.5,510C 477.833,510.667 439.167,510.667 400.5,510C 403.147,498.953 404.98,487.787 406,476.5C 399.429,474.23 392.929,471.73 386.5,469C 378.771,461.449 377.604,452.949 383,443.5C 387.892,438.973 393.059,434.807 398.5,431C 393,421.5 387.5,412 382,402.5C 381.275,401.941 380.442,401.608 379.5,401.5C 374.95,403.607 370.283,405.441 365.5,407C 354.557,409.591 347.057,405.758 343,395.5C 342.382,387.34 343.049,379.34 345,371.5C 334.745,367.304 324.412,363.304 314,359.5C 313.075,360.047 312.242,360.713 311.5,361.5C 308.921,366.992 306.088,372.325 303,377.5C 295.703,383.095 287.87,383.928 279.5,380C 274.13,374.771 270.13,368.604 267.5,361.5C 266.667,361.167 265.833,360.833 265,360.5C 255.064,363.868 245.231,367.534 235.5,371.5C 234.672,376.23 235.172,380.896 237,385.5C 238.67,402.829 230.837,410.329 213.5,408C 208.704,405.42 203.704,403.754 198.5,403C 192.77,412.295 187.437,421.795 182.5,431.5C 182.529,433.029 183.196,434.196 184.5,435C 189.633,437.654 194.133,441.154 198,445.5C 200.929,451.662 201.263,457.995 199,464.5C 193.967,471.31 187.133,475.143 178.5,476C 175.812,476.856 174.146,478.69 173.5,481.5C 152.132,456.163 146.299,427.496 156,395.5C 168.451,364.679 190.951,345.679 223.5,338.5C 220.352,304.284 235.352,282.784 268.5,274C 287.872,271.124 304.372,276.624 318,290.5C 336.227,249.818 367.394,226.818 411.5,221.5 Z"/></g>
<g><path style="opacity:0.967" fill="#231273" d="M 282.5,438.5 C 310.011,437.184 324.178,450.184 325,477.5C 320.703,499.131 307.536,509.631 285.5,509C 269.331,506.498 259.164,497.331 255,481.5C 252.598,459.613 261.765,445.28 282.5,438.5 Z"/></g>
</svg>
