<?xml version="1.0" standalone="no"?>
<!DOCTYPE svg PUBLIC "-//W3C//DTD SVG 20010904//EN"
 "http://www.w3.org/TR/2001/REC-SVG-20010904/DTD/svg10.dtd">
<svg version="1.0" xmlns="http://www.w3.org/2000/svg"
 width="752.000000pt" height="752.000000pt" viewBox="0 0 752.000000 752.000000"
 preserveAspectRatio="xMidYMid meet">

<g transform="translate(0.000000,752.000000) scale(0.100000,-0.100000)"
fill="#231273" stroke="none">
<path d="M3945 5961 c-143 -41 -295 -160 -359 -281 -16 -30 -30 -57 -32 -59
-2 -2 -25 12 -51 32 -188 137 -422 156 -627 50 -90 -47 -200 -155 -241 -238
-17 -33 -34 -63 -40 -67 -5 -4 -30 -8 -54 -8 -70 0 -168 -28 -266 -75 -144
-70 -261 -184 -334 -324 -99 -192 -114 -398 -42 -601 39 -112 85 -183 177
-277 l81 -83 115 0 116 0 4 88 c6 131 52 206 162 265 l41 22 1154 3 1153 2 52
-23 c74 -34 111 -70 145 -139 26 -52 31 -73 31 -135 l0 -73 121 0 120 0 56 53
c106 100 186 236 220 375 25 102 22 267 -6 366 -75 268 -287 475 -553 540 -83
21 -259 22 -339 3 l-57 -14 -6 66 c-10 97 -24 147 -64 231 -68 141 -221 263
-378 304 -81 21 -222 20 -299 -3z"/>
<path d="M2607 4248 c-23 -14 -45 -38 -58 -64 -19 -40 -20 -58 -17 -292 3
-276 3 -275 72 -326 27 -21 32 -21 1156 -21 1124 0 1129 0 1156 21 69 51 69
50 72 329 3 240 2 256 -18 294 -13 27 -34 48 -60 61 -39 20 -56 20 -1152 20
l-1113 0 -38 -22z m1507 -232 c64 -27 90 -98 61 -160 -21 -44 -59 -66 -116
-66 -33 0 -47 6 -75 34 -28 28 -34 42 -34 75 0 55 21 94 62 114 41 20 59 21
102 3z m516 -1 c46 -24 70 -62 70 -112 0 -38 -5 -50 -34 -79 -29 -29 -41 -34
-80 -34 -102 0 -157 93 -106 178 20 32 67 61 103 62 10 0 31 -7 47 -15z m-890
-45 c11 -11 20 -33 20 -50 0 -17 -9 -39 -20 -50 -19 -19 -33 -20 -483 -20
-517 0 -507 -1 -507 66 0 21 8 42 20 54 19 19 33 20 485 20 452 0 466 -1 485
-20z"/>
<path d="M2860 3330 l0 -70 880 0 880 0 0 70 0 70 -880 0 -880 0 0 -70z"/>
<path d="M2613 3099 c-30 -15 -48 -33 -63 -64 -20 -41 -21 -56 -18 -293 3
-276 3 -275 72 -326 27 -21 32 -21 1156 -21 1124 0 1129 0 1156 21 69 51 69
50 72 326 3 237 2 252 -18 293 -16 32 -33 49 -64 64 -42 21 -52 21 -1147 21
-1098 0 -1104 0 -1146 -21z m1529 -250 c32 -23 52 -78 43 -119 -9 -39 -56 -86
-93 -92 -77 -11 -142 42 -142 116 0 101 108 154 192 95z m482 17 c106 -44 100
-195 -11 -225 -73 -21 -153 39 -153 114 0 44 38 97 80 112 45 15 45 15 84 -1z
m-884 -46 c11 -11 20 -33 20 -50 0 -17 -9 -39 -20 -50 -19 -19 -33 -20 -483
-20 -517 0 -507 -1 -507 66 0 21 8 42 20 54 19 19 33 20 485 20 452 0 466 -1
485 -20z"/>
<path d="M3670 2175 l0 -75 70 0 70 0 0 75 0 75 -70 0 -70 0 0 -75z"/>
<path d="M3655 1941 c-152 -69 -168 -277 -28 -371 31 -21 48 -25 113 -25 68 0
81 3 118 29 52 36 92 112 92 175 -1 151 -159 254 -295 192z"/>
<path d="M2532 1804 c-16 -11 -22 -25 -22 -54 0 -71 -10 -70 461 -70 l416 0 0
70 0 70 -416 0 c-361 0 -420 -2 -439 -16z"/>
<path d="M4090 1750 l0 -70 420 0 c407 0 421 1 440 20 11 11 20 33 20 50 0 17
-9 39 -20 50 -19 19 -33 20 -440 20 l-420 0 0 -70z"/>
</g>
</svg>
