<?xml version="1.0" encoding="UTF-8"?>
<!DOCTYPE svg PUBLIC "-//W3C//DTD SVG 1.1//EN" "http://www.w3.org/Graphics/SVG/1.1/DTD/svg11.dtd">
<svg xmlns="http://www.w3.org/2000/svg" version="1.1" width="752px" height="752px" style="shape-rendering:geometricPrecision; text-rendering:geometricPrecision; image-rendering:optimizeQuality; fill-rule:evenodd; clip-rule:evenodd" xmlns:xlink="http://www.w3.org/1999/xlink">
<g><path style="opacity:0.967" fill="#231273" d="M 297.5,143.5 C 338.835,143.333 380.168,143.5 421.5,144C 438.092,163.268 457.092,179.602 478.5,193C 498.555,203.272 519.721,208.439 542,208.5C 543.66,280.752 543.993,353.085 543,425.5C 540.259,434.816 537.092,443.982 533.5,453C 568.071,475.343 581.238,506.843 573,547.5C 562.362,580.805 539.862,600.639 505.5,607C 468.687,610.342 440.52,596.509 421,565.5C 400.843,574.053 380.343,581.719 359.5,588.5C 327.968,578.825 297.635,566.325 268.5,551C 230.7,529.194 203.533,498.027 187,457.5C 182.936,447.307 179.269,436.974 176,426.5C 175.333,354.167 175.333,281.833 176,209.5C 176.833,208.667 177.667,207.833 178.5,207C 199.723,208.156 219.723,203.823 238.5,194C 261.058,180.614 280.724,163.781 297.5,143.5 Z M 303.5,157.5 C 340.835,157.333 378.168,157.5 415.5,158C 436.028,182.753 461.028,201.419 490.5,214C 503.106,218.534 516.106,220.701 529.5,220.5C 529.667,288.167 529.5,355.834 529,423.5C 526.531,431.242 523.864,438.908 521,446.5C 520.439,447.022 519.772,447.355 519,447.5C 513.553,445.93 508.053,444.596 502.5,443.5C 505.628,436.284 508.461,428.951 511,421.5C 511.667,361.167 511.667,300.833 511,240.5C 510.626,239.584 510.126,238.75 509.5,238C 480.198,231.349 454.198,218.349 431.5,199C 423.197,191.698 415.197,184.031 407.5,176C 375.5,175.333 343.5,175.333 311.5,176C 291.945,197.232 269.278,214.232 243.5,227C 233.221,231.537 222.554,234.871 211.5,237C 210.069,237.465 208.903,238.299 208,239.5C 207.333,300.5 207.333,361.5 208,422.5C 220.499,465.729 245.666,499.229 283.5,523C 307.73,536.133 333.064,546.633 359.5,554.5C 377.501,549.111 395.001,542.445 412,534.5C 412.612,540.117 413.779,545.617 415.5,551C 415.355,551.772 415.022,552.439 414.5,553C 396.449,561.017 377.949,567.851 359,573.5C 322.778,562.992 288.944,547.492 257.5,527C 223.899,500.339 201.399,466.172 190,424.5C 189.5,356.501 189.333,288.501 189.5,220.5C 210.972,220.399 230.972,214.899 249.5,204C 270.101,191.569 288.101,176.069 303.5,157.5 Z M 339.5,261.5 C 364.324,260.57 388.991,262.07 413.5,266C 419.4,266.892 425.067,268.558 430.5,271C 433.667,272.833 436.167,275.333 438,278.5C 438.667,336.833 438.667,395.167 438,453.5C 435.224,457.65 431.391,460.484 426.5,462C 413.098,465.82 399.431,468.153 385.5,469C 368.167,469.667 350.833,469.667 333.5,469C 317.676,468.364 302.343,465.364 287.5,460C 284.667,458.5 282.5,456.333 281,453.5C 280.333,394.833 280.333,336.167 281,277.5C 284.905,272.456 290.072,269.289 296.5,268C 310.819,264.767 325.153,262.6 339.5,261.5 Z M 319.5,305.5 C 331.715,308.636 335.215,315.969 330,327.5C 324.49,333.043 318.323,333.876 311.5,330C 304.625,322.333 304.959,315 312.5,308C 314.927,307.098 317.26,306.264 319.5,305.5 Z M 405.5,313.5 C 412.186,315.762 413.186,319.596 408.5,325C 391.62,327.919 374.62,329.253 357.5,329C 351.81,326.218 351.143,322.551 355.5,318C 372.4,317.406 389.067,315.906 405.5,313.5 Z M 315.5,362.5 C 329.502,362.334 334.668,369.001 331,382.5C 326.824,388.112 321.324,389.945 314.5,388C 306.257,382.907 304.424,376.074 309,367.5C 310.965,365.45 313.132,363.783 315.5,362.5 Z M 400.5,370.5 C 408.58,368.585 412.08,371.585 411,379.5C 409.829,380.893 408.329,381.727 406.5,382C 389.916,384.518 373.249,385.518 356.5,385C 352.787,383.309 351.621,380.475 353,376.5C 353.903,375.299 355.069,374.465 356.5,374C 371.396,373.816 386.063,372.649 400.5,370.5 Z M 316.5,418.5 C 329.899,418.966 334.732,425.633 331,438.5C 322.24,448.153 314.24,447.486 307,436.5C 305.292,427.755 308.458,421.755 316.5,418.5 Z M 402.5,426.5 C 408.806,425.707 411.639,428.374 411,434.5C 410.5,436.333 409.333,437.5 407.5,438C 390.28,440.991 372.946,441.991 355.5,441C 351.381,436.927 351.715,433.26 356.5,430C 365.5,429.667 374.5,429.333 383.5,429C 390.044,428.669 396.377,427.835 402.5,426.5 Z M 485.5,457.5 C 525.788,456.636 550.955,475.636 561,514.5C 564.105,550.365 549.272,575.531 516.5,590C 482.234,599.359 455.068,589.526 435,560.5C 418.469,526.849 423.969,497.349 451.5,472C 461.842,464.658 473.175,459.824 485.5,457.5 Z"/></g>
<g><path style="opacity:0.914" fill="#231273" d="M 338.5,273.5 C 356.858,273.207 375.191,273.707 393.5,275C 403.775,275.722 413.775,277.722 423.5,281C 419.451,283.098 415.118,284.431 410.5,285C 378.14,289.926 345.806,290.26 313.5,286C 307.199,285.211 301.199,283.544 295.5,281C 300.317,279.036 305.317,277.702 310.5,277C 319.959,275.636 329.292,274.47 338.5,273.5 Z"/></g>
<g><path style="opacity:0.93" fill="#231273" d="M 291.5,293.5 C 313.828,298.866 336.495,301.2 359.5,300.5C 382.183,301.265 404.517,298.932 426.5,293.5C 426.824,308.079 426.49,322.579 425.5,337C 417.137,340.257 408.471,342.257 399.5,343C 372.501,346.313 345.501,346.313 318.5,343C 309.593,342.019 300.926,340.019 292.5,337C 291.51,322.579 291.176,308.079 291.5,293.5 Z M 319.5,305.5 C 317.26,306.264 314.927,307.098 312.5,308C 304.959,315 304.625,322.333 311.5,330C 318.323,333.876 324.49,333.043 330,327.5C 335.215,315.969 331.715,308.636 319.5,305.5 Z M 405.5,313.5 C 389.067,315.906 372.4,317.406 355.5,318C 351.143,322.551 351.81,326.218 357.5,329C 374.62,329.253 391.62,327.919 408.5,325C 413.186,319.596 412.186,315.762 405.5,313.5 Z"/></g>
<g><path style="opacity:0.439" fill="#fff" d="M 318.5,317.5 C 320.465,317.948 320.798,318.948 319.5,320.5C 318.614,319.675 318.281,318.675 318.5,317.5 Z"/></g>
<g><path style="opacity:0.934" fill="#231273" d="M 291.5,349.5 C 327.136,357.7 363.136,359.533 399.5,355C 408.382,354.124 417.049,352.29 425.5,349.5C 426.833,364.167 426.833,378.833 425.5,393.5C 418.044,396.158 410.377,397.992 402.5,399C 368.329,403.087 334.329,402.087 300.5,396C 297.488,395.22 294.655,394.053 292,392.5C 291.5,378.171 291.333,363.837 291.5,349.5 Z M 315.5,362.5 C 313.132,363.783 310.965,365.45 309,367.5C 304.424,376.074 306.257,382.907 314.5,388C 321.324,389.945 326.824,388.112 331,382.5C 334.668,369.001 329.502,362.334 315.5,362.5 Z M 400.5,370.5 C 386.063,372.649 371.396,373.816 356.5,374C 355.069,374.465 353.903,375.299 353,376.5C 351.621,380.475 352.787,383.309 356.5,385C 373.249,385.518 389.916,384.518 406.5,382C 408.329,381.727 409.829,380.893 411,379.5C 412.08,371.585 408.58,368.585 400.5,370.5 Z"/></g>
<g><path style="opacity:0.657" fill="#fff" d="M 318.5,374.5 C 320.337,374.639 320.67,375.306 319.5,376.5C 318.702,376.043 318.369,375.376 318.5,374.5 Z"/></g>
<g><path style="opacity:0.936" fill="#231273" d="M 291.5,405.5 C 313.579,411.405 336.079,414.072 359,413.5C 373.227,413.673 387.393,412.84 401.5,411C 409.952,410.288 418.119,408.454 426,405.5C 426.667,420.167 426.667,434.833 426,449.5C 413.235,453.879 400.068,456.379 386.5,457C 368.5,457.667 350.5,457.667 332.5,457C 318.805,456.329 305.472,453.829 292.5,449.5C 291.501,434.848 291.167,420.182 291.5,405.5 Z M 316.5,418.5 C 308.458,421.755 305.292,427.755 307,436.5C 314.24,447.486 322.24,448.153 331,438.5C 334.732,425.633 329.899,418.966 316.5,418.5 Z M 402.5,426.5 C 396.377,427.835 390.044,428.669 383.5,429C 374.5,429.333 365.5,429.667 356.5,430C 351.715,433.26 351.381,436.927 355.5,441C 372.946,441.991 390.28,440.991 407.5,438C 409.333,437.5 410.5,436.333 411,434.5C 411.639,428.374 408.806,425.707 402.5,426.5 Z"/></g>
<g><path style="opacity:0.44" fill="#fff" d="M 318.5,430.5 C 320.465,430.948 320.798,431.948 319.5,433.5C 318.614,432.675 318.281,431.675 318.5,430.5 Z"/></g>
<g><path style="opacity:0.904" fill="#231273" d="M 530.5,492.5 C 538,492.879 540.5,496.546 538,503.5C 519.833,521.667 501.667,539.833 483.5,558C 481.167,558.667 478.833,558.667 476.5,558C 467.333,548.833 458.167,539.667 449,530.5C 447.5,522.667 450.667,519.5 458.5,521C 465.97,527.468 473.136,534.302 480,541.5C 496.449,524.548 513.282,508.215 530.5,492.5 Z"/></g>
</svg>
