<svg xmlns="http://www.w3.org/2000/svg" version="1.1" xmlns:xlink="http://www.w3.org/1999/xlink" xmlns:svgjs="http://svgjs.dev/svgjs" width="1920" height="1080" preserveAspectRatio="none" viewBox="0 0 1920 1080"><g mask="url(&quot;#SvgjsMask1168&quot;)" fill="none"><rect width="1920" height="1080" x="0" y="0" fill="rgba(255, 255, 255, 1)"></rect><path d="M0 -200L173.21 -100L173.21 100L0 200L-173.21 100L-173.21 -100zM173.21 100L346.42 200L346.42 400L173.21 500L0 400L0 200zM0 400L173.21 500L173.21 700L0 800L-173.21 700L-173.21 500zM173.21 700L346.42 800L346.42 1000L173.21 1100L0 1000L0 800zM0 1000L173.21 1100L173.21 1300L0 1400L-173.21 1300L-173.21 1100zM346.42 -200L519.63 -100L519.63 100L346.42 200L173.21 100L173.21 -100zM519.63 100L692.84 200L692.84 400L519.63 500L346.42 400L346.42 200zM346.42 400L519.63 500L519.63 700L346.42 800L173.21 700L173.21 500zM519.63 700L692.84 800L692.84 1000L519.63 1100L346.42 1000L346.42 800zM346.42 1000L519.63 1100L519.63 1300L346.42 1400L173.21 1300L173.21 1100zM692.84 -200L866.05 -100L866.05 100L692.84 200L519.63 100L519.63 -100zM866.05 100L1039.26 200L1039.26 400L866.05 500L692.84 400L692.84 200zM692.84 400L866.05 500L866.05 700L692.84 800L519.63 700L519.63 500zM866.05 700L1039.26 800L1039.26 1000L866.05 1100L692.84 1000L692.84 800zM692.84 1000L866.05 1100L866.05 1300L692.84 1400L519.63 1300L519.63 1100zM1039.26 -200L1212.47 -100L1212.47 100L1039.26 200L866.05 100L866.05 -100zM1212.47 100L1385.68 200L1385.68 400L1212.47 500L1039.26 400L1039.26 200zM1039.26 400L1212.47 500L1212.47 700L1039.26 800L866.05 700L866.05 500zM1212.47 700L1385.68 800L1385.68 1000L1212.47 1100L1039.26 1000L1039.26 800zM1039.26 1000L1212.47 1100L1212.47 1300L1039.26 1400L866.05 1300L866.05 1100zM1385.68 -200L1558.89 -100L1558.89 100L1385.68 200L1212.47 100L1212.47 -100zM1558.89 100L1732.1 200L1732.1 400L1558.89 500L1385.68 400L1385.68 200zM1385.68 400L1558.89 500L1558.89 700L1385.68 800L1212.47 700L1212.47 500zM1558.89 700L1732.1 800L1732.1 1000L1558.89 1100L1385.68 1000L1385.68 800zM1385.68 1000L1558.89 1100L1558.89 1300L1385.68 1400L1212.47 1300L1212.47 1100zM1732.1 -200L1905.31 -100L1905.31 100L1732.1 200L1558.89 100L1558.89 -100zM1905.31 100L2078.52 200L2078.52 400L1905.31 500L1732.1 400L1732.1 200zM1732.1 400L1905.31 500L1905.31 700L1732.1 800L1558.89 700L1558.89 500zM1905.31 700L2078.52 800L2078.52 1000L1905.31 1100L1732.1 1000L1732.1 800zM1732.1 1000L1905.31 1100L1905.31 1300L1732.1 1400L1558.89 1300L1558.89 1100z" stroke="rgba(0, 0, 0, 0.07)" stroke-width="2"></path><path d="M164.07 164.87L222.1 198.37L222.1 265.37L164.07 298.87L106.05 265.37L106.05 198.37zM338.15 1069.37L396.17 1102.87L396.17 1169.87L338.15 1203.37L280.12 1169.87L280.12 1102.87zM570.25 466.37L628.27 499.87L628.27 566.87L570.25 600.37L512.22 566.87L512.22 499.87zM570.25 1069.37L628.27 1102.87L628.27 1169.87L570.25 1203.37L512.22 1169.87L512.22 1102.87zM628.27 164.87L686.3 198.37L686.3 265.37L628.27 298.87L570.25 265.37L570.25 198.37zM628.27 968.87L686.3 1002.37L686.3 1069.37L628.27 1102.87L570.25 1069.37L570.25 1002.37zM802.35 466.37L860.37 499.87L860.37 566.87L802.35 600.37L744.32 566.87L744.32 499.87zM1092.48 -36.13L1150.5 -2.63L1150.5 64.37L1092.48 97.87L1034.45 64.37L1034.45 -2.63zM1092.48 164.87L1150.5 198.37L1150.5 265.37L1092.48 298.87L1034.45 265.37L1034.45 198.37zM1150.5 1069.37L1208.53 1102.87L1208.53 1169.87L1150.5 1203.37L1092.48 1169.87L1092.48 1102.87zM1324.58 -36.13L1382.6 -2.63L1382.6 64.37L1324.58 97.87L1266.55 64.37L1266.55 -2.63zM1498.65 667.37L1556.68 700.87L1556.68 767.87L1498.65 801.37L1440.63 767.87L1440.63 700.87zM1440.63 968.87L1498.65 1002.37L1498.65 1069.37L1440.63 1102.87L1382.6 1069.37L1382.6 1002.37zM1614.7 64.37L1672.73 97.87L1672.73 164.87L1614.7 198.37L1556.68 164.87L1556.68 97.87zM1614.7 265.37L1672.73 298.87L1672.73 365.87L1614.7 399.37L1556.68 365.87L1556.68 298.87zM1614.7 466.37L1672.73 499.87L1672.73 566.87L1614.7 600.37L1556.68 566.87L1556.68 499.87zM1614.7 868.37L1672.73 901.87L1672.73 968.87L1614.7 1002.37L1556.68 968.87L1556.68 901.87zM1672.73 164.87L1730.76 198.37L1730.76 265.37L1672.73 298.87L1614.7 265.37L1614.7 198.37zM1672.73 365.87L1730.76 399.37L1730.76 466.37L1672.73 499.87L1614.7 466.37L1614.7 399.37zM1730.76 868.37L1788.78 901.87L1788.78 968.87L1730.76 1002.37L1672.73 968.87L1672.73 901.87zM1788.78 767.87L1846.81 801.37L1846.81 868.37L1788.78 901.87L1730.76 868.37L1730.76 801.37zM1846.81 1069.37L1904.83 1102.87L1904.83 1169.87L1846.81 1203.37L1788.78 1169.87L1788.78 1102.87z" stroke="rgba(35, 18, 115, 0.44)" stroke-width="2"></path></g><defs><mask id="SvgjsMask1168"><rect width="1920" height="1080" fill="#ffffff"></rect></mask></defs></svg>