<?xml version="1.0" encoding="utf-8"?>
<svg viewBox="0 0 500 500" width="0px" xmlns="http://www.w3.org/2000/svg">
  <rect y="1029" class="st0" width="1000" height="1011" style="fill: rgb(132, 132, 132);" transform="matrix(1, 0, 0, 1, -272.106625, -409.632094)"/>
  <linearGradient id="SVGID_1_" gradientUnits="userSpaceOnUse" x1="385.6499" y1="1518.7947" x2="570.4279" y2="1518.7947">
    <stop offset="0.0011" style="stop-color:#999999"/>
    <stop offset="1" style="stop-color:#2BF6E7"/>
  </linearGradient>
  <path class="st1" d="M558.51,1552.79c-11.19,17.36-30.67,28.86-52.86,28.86c-31.31,0-57.27-22.9-62.06-52.86 c-0.52-3.26-0.8-6.6-0.8-10v-62.86c0-12.02-3.72-23.17-10.06-32.38c-10.31-14.96-27.54-24.77-47.08-24.77h0v120 c0,3.37,0.15,6.7,0.42,10c5.1,61.51,56.78,110,119.58,110c23.84,0,46.08-6.99,64.77-19.02c-7.5-10.84-11.91-23.97-11.91-38.12 V1552.79z" style="fill: url(#SVGID_1_);" transform="matrix(1, 0, 0, 1, -272.106625, -409.632094)"/>
  <linearGradient id="SVGID_00000104708329685498982750000006716579984620896404_" gradientUnits="userSpaceOnUse" x1="440.8807" y1="1518.7947" x2="625.6588" y2="1518.7947">
    <stop offset="0.0011" style="stop-color:#999999"/>
    <stop offset="1" style="stop-color:#2BF6E7"/>
  </linearGradient>
  <path style="fill:url(#SVGID_00000104708329685498982750000006716579984620896404_);" d="M505.65,1398.79c-3.37,0-6.7,0.15-10,0.42 c-20.05,1.66-38.72,8.27-54.77,18.6c7.5,10.84,11.91,23.97,11.91,38.12v28.86c9.47-14.69,24.89-25.19,42.86-28.06 c3.26-0.52,6.6-0.8,10-0.8c34.72,0,62.86,28.14,62.86,62.86v62.86c0,12.02,3.72,23.17,10.06,32.38 c10.31,14.96,27.54,24.77,47.08,24.77h0v-120C625.66,1452.62,571.83,1398.79,505.65,1398.79z" transform="matrix(1, 0, 0, 1, -272.106625, -409.632094)"/>
  <g transform="matrix(1, 0, 0, 1, -272.106625, -409.632094)">
    <linearGradient id="SVGID_00000138530778276819041150000000385478606689295038_" gradientUnits="userSpaceOnUse" x1="429.6275" y1="1382.14" x2="388.8358" y2="1327.9633">
      <stop offset="0.0011" style="stop-color:#999999"/>
      <stop offset="1" style="stop-color:#2BF6E7"/>
    </linearGradient>
    <path style="fill:url(#SVGID_00000138530778276819041150000000385478606689295038_);" d="M408.73,1320.8 c-18.55,0-33.59,15.04-33.59,33.59s15.04,33.59,33.59,33.59c18.55,0,33.59-15.04,33.59-33.59S427.28,1320.8,408.73,1320.8z M408.73,1371.18c-9.28,0-16.79-7.52-16.79-16.79s7.52-16.79,16.79-16.79s16.79,7.52,16.79,16.79S418.01,1371.18,408.73,1371.18z"/>
    <linearGradient id="SVGID_00000169547338377961627270000004446934589172312963_" gradientUnits="userSpaceOnUse" x1="398.2594" y1="1373.1698" x2="408.8229" y2="1300.9858">
      <stop offset="0.0011" style="stop-color:#999999"/>
      <stop offset="1" style="stop-color:#2BF6E7"/>
    </linearGradient>
    <path style="fill:url(#SVGID_00000169547338377961627270000004446934589172312963_);" d="M426.6,1349.79c0,3.01-0.5,5.9-1.42,8.59 c-0.19,0.56-0.4,1.11-0.63,1.65c0.49-1.37,0.81-2.83,0.92-4.33c0.01-0.09,0.01-0.18,0.02-0.28c0.01-0.2,0.02-0.39,0.02-0.59 c0.01-0.1,0.01-0.2,0.01-0.3c0.01-0.1,0.01-0.19,0.01-0.29c-0.09-9.2-7.57-16.63-16.79-16.63c-9.27,0-16.79,7.52-16.79,16.79 s7.52,16.79,16.79,16.79c5.43,0,10.26-2.58,13.33-6.58c-4.51,6.6-11.96,10.91-20.37,10.91c-13.77,0-24.92-11.52-24.92-25.73 c0-2.56,0.36-5.04,1.04-7.37c0.72-2.5,1.8-4.83,3.18-6.95c0.01-0.02,0.02-0.04,0.04-0.07c0.92-1.4,1.97-2.71,3.13-3.9 c4.5-4.6,10.69-7.44,17.53-7.44C415.45,1324.06,426.6,1335.58,426.6,1349.79z"/>
    <linearGradient id="SVGID_00000074422580132650101510000008443654013799334021_" gradientUnits="userSpaceOnUse" x1="376.7615" y1="1351.7689" x2="425.5163" y2="1351.7689">
      <stop offset="0.0011" style="stop-color:#999999"/>
      <stop offset="1" style="stop-color:#2BF6E7"/>
    </linearGradient>
    <path style="opacity:0.5;fill:url(#SVGID_00000074422580132650101510000008443654013799334021_);" d="M391.93,1354.39 c0,9.27,7.52,16.79,16.79,16.79c5.43,0,10.26-2.58,13.33-6.58c-4.51,6.6-11.96,10.91-20.37,10.91c-13.77,0-24.92-11.52-24.92-25.73 c0-2.56,0.36-5.04,1.04-7.37c4.14-8.54,12.67-14.4,22.52-14.4c13.91,0,25.19,11.68,25.19,26.09v0.12 c-0.09-9.2-7.57-16.63-16.79-16.63C399.45,1337.6,391.93,1345.12,391.93,1354.39z"/>
  </g>
  <path class="st6" d="M543.14,1684.56v6.69h-11.59c-9.15,0-14.01-4.37-14.01-13.44c0-7.74,4.12-13.44,14.01-13.44h0.92v-2.39h6.44 v22.59H543.14z M521.48,1655c0-2.01,1.56-3.39,3.59-3.39s3.59,1.39,3.59,3.39c0,2.24-1.66,3.44-3.59,3.44 S521.48,1657.25,521.48,1655z M532.47,1684.56v-13.51h-2.48c-3.77,0-7.73,2.48-7.73,6.78c0,4.39,3.59,6.73,7.4,6.73H532.47z M531.46,1655c0-2.01,1.56-3.39,3.59-3.39c2.07,0,3.59,1.39,3.59,3.39c0,2.24-1.65,3.44-3.59,3.44S531.46,1657.25,531.46,1655z M542.26,1684.56h9.61v-20.2h6.44v20.2h8.46v6.69h-24.51V1684.56z M546.17,1698.03c0-2.05,1.56-3.44,3.59-3.44 c2.02,0,3.59,1.39,3.59,3.44c0,2.2-1.66,3.39-3.59,3.39C547.82,1701.42,546.17,1700.22,546.17,1698.03z M556.14,1698.03 c0-2.05,1.56-3.44,3.59-3.44c2.07,0,3.59,1.39,3.59,3.44c0,2.2-1.65,3.39-3.59,3.39C557.8,1701.42,556.14,1700.22,556.14,1698.03z M565.84,1684.56h5.7v-20.2h6.44v26.89h-12.14V1684.56z M571.08,1697.84c0-2.1,1.66-3.53,3.77-3.53c2.16,0,3.77,1.43,3.77,3.53 c0,2.34-1.75,3.58-3.77,3.58C572.83,1701.42,571.08,1700.18,571.08,1697.84z M582.58,1701.32l-0.46-6.69 c1.2,0.34,2.07,0.43,3.03,0.43c2.58,0,3.45-1.38,3.45-4.68v-26.03h6.44v20.2H600v6.69h-5.01c-0.37,7.35-3.08,10.51-9.15,10.51 C584.65,1701.75,583.36,1701.56,582.58,1701.32z M599.08,1684.56h5.01c-1.01-2.2-1.93-4.97-1.93-7.98c0-4.54,1.93-8.02,4.6-10.31 c2.11-1.81,5.1-2.82,8.37-2.82c3.4,0,6.44,1,9.56,2.63l-2.16,6.07c-1.93-1.15-4.46-2.05-6.62-2.05c-2.11,0-3.77,0.53-5.01,1.62 c-1.66,1.43-2.25,3.3-2.25,5.4c0,3.06,0.92,5.49,2.44,7.45h14.58v6.69h-26.58V1684.56z M532.46,1691.25 c-9.84,0.13-16.78-3.72-16.78-13.05c0-7.95,6.23-13.84,16.78-13.84l0,0 M532.46,1671.23h-1.67c-4.02,0-8.24,2.55-8.24,6.97 c0,4.51,3.86,6.36,7.93,6.36h1.98 M386.42,1690.54v-26.71h7.06v26.71H386.42z M413.56,1690.54v-16.18c0-2.06-0.34-3.46-1.03-4.18 c-0.69-0.72-1.86-1.09-3.53-1.09c-3.66,0-5.48,2.04-5.48,6.13v15.31h-7.06v-26.71h6.73v3.91c0.83-1.52,1.94-2.67,3.31-3.45 c1.37-0.78,3.15-1.17,5.32-1.17c1.27,0,2.44,0.19,3.53,0.57c1.09,0.38,2.02,0.95,2.8,1.71c0.78,0.76,1.39,1.69,1.85,2.8 c0.45,1.1,0.68,2.38,0.68,3.83v18.51H413.56z M424.91,1690.54v-21.71h-3.96v-4.99h3.96c0-6.51,3.78-9.77,11.35-9.77v5.7 c-0.91,0-1.64,0.06-2.2,0.19c-0.56,0.13-1,0.35-1.33,0.68s-0.55,0.75-0.68,1.28c-0.13,0.53-0.19,1.17-0.19,1.93h4.56v4.99h-4.56 v21.71H424.91z M448.9,1691.25c-2.17,0-4.11-0.34-5.81-1.03c-1.7-0.69-3.14-1.65-4.32-2.88c-1.18-1.23-2.07-2.71-2.69-4.45 c-0.62-1.74-0.92-3.64-0.92-5.7c0-2.1,0.32-4.02,0.95-5.75c0.63-1.74,1.55-3.22,2.74-4.45c1.19-1.23,2.63-2.18,4.32-2.85 c1.68-0.67,3.59-1.01,5.73-1.01c2.1,0,3.98,0.34,5.65,1.01c1.66,0.67,3.08,1.61,4.26,2.82c1.18,1.21,2.08,2.69,2.71,4.42 c0.63,1.74,0.95,3.67,0.95,5.81c0,2.14-0.32,4.06-0.95,5.78c-0.63,1.72-1.54,3.19-2.71,4.42c-1.18,1.23-2.61,2.18-4.29,2.85 C452.84,1690.91,450.97,1691.25,448.9,1691.25z M448.9,1685.33c4.31,0,6.46-2.71,6.46-8.14c0-5.39-2.15-8.09-6.46-8.09 c-4.31,0-6.46,2.7-6.46,8.09C442.44,1682.62,444.6,1685.33,448.9,1685.33z M480.82,1671.92c-0.18-1.23-0.64-2.12-1.38-2.69 c-0.74-0.56-1.87-0.84-3.39-0.84c-1.45,0-2.54,0.17-3.28,0.52c-0.74,0.34-1.11,0.93-1.11,1.76c0,0.72,0.37,1.3,1.11,1.74 c0.74,0.43,1.82,0.85,3.23,1.25c2.32,0.65,4.27,1.2,5.86,1.66c1.59,0.45,2.87,0.99,3.83,1.6c0.96,0.61,1.65,1.38,2.06,2.31 c0.42,0.92,0.62,2.16,0.62,3.72c0,2.39-1,4.37-2.99,5.94c-1.99,1.57-4.94,2.36-8.85,2.36c-1.92,0-3.66-0.22-5.21-0.65 c-1.56-0.43-2.89-1.06-3.99-1.87c-1.1-0.81-1.95-1.79-2.55-2.93c-0.6-1.14-0.91-2.42-0.95-3.83h7.27c0,1.27,0.5,2.24,1.49,2.93 c0.99,0.69,2.29,1.03,3.88,1.03c1.34,0,2.49-0.21,3.45-0.62c0.96-0.42,1.44-1.06,1.44-1.93c0-0.98-0.35-1.68-1.06-2.12 s-1.78-0.81-3.23-1.14c-2.61-0.58-4.7-1.18-6.3-1.82c-1.59-0.63-2.83-1.33-3.72-2.09c-0.89-0.76-1.48-1.59-1.79-2.5 c-0.31-0.9-0.46-1.92-0.46-3.04c0-1.01,0.21-1.97,0.62-2.88c0.42-0.9,1.08-1.7,1.98-2.39c0.9-0.69,2.08-1.24,3.53-1.66 c1.45-0.42,3.22-0.62,5.32-0.62c3.84,0,6.64,0.78,8.41,2.33c1.77,1.56,2.75,3.71,2.93,6.46H480.82z M496.56,1679.03 c0.11,2.03,0.7,3.64,1.76,4.83c1.07,1.19,2.47,1.79,4.21,1.79c1.16,0,2.18-0.26,3.07-0.79c0.89-0.52,1.46-1.26,1.71-2.2h7.27 c-0.83,2.75-2.28,4.87-4.34,6.35c-2.06,1.48-4.52,2.23-7.38,2.23c-8.9,0-13.35-4.85-13.35-14.55c0-2.06,0.29-3.93,0.87-5.59 c0.58-1.66,1.42-3.09,2.52-4.29c1.1-1.19,2.45-2.11,4.04-2.74c1.59-0.63,3.42-0.95,5.48-0.95c4.13,0,7.25,1.32,9.36,3.96 c2.12,2.64,3.18,6.62,3.18,11.94H496.56z M507.69,1674.58c-0.04-0.98-0.21-1.84-0.52-2.58c-0.31-0.74-0.71-1.36-1.22-1.85 c-0.51-0.49-1.09-0.85-1.74-1.09c-0.65-0.23-1.32-0.35-2.01-0.35c-1.41,0-2.63,0.52-3.66,1.55c-1.03,1.03-1.62,2.47-1.76,4.32 H507.69z M389.63,1660.12c2.2,0,3.98-1.78,3.98-3.98s-1.78-3.98-3.98-3.98c-2.2,0-3.98,1.78-3.98,3.98 S387.43,1660.12,389.63,1660.12z" style="fill: rgb(255, 255, 255);" transform="matrix(1, 0, 0, 1, -272.106625, -409.632094)"/>
  <linearGradient id="SVGID_00000129893390431992138100000010183923415204430479_" gradientUnits="userSpaceOnUse" x1="461.3959" y1="1519.0387" x2="549.2305" y2="1519.0387">
    <stop offset="0.0011" style="stop-color:#999999"/>
    <stop offset="1" style="stop-color:#2BF6E7"/>
  </linearGradient>
  <path style="fill:url(#SVGID_00000129893390431992138100000010183923415204430479_);" d="M466.76,1537.33 c-0.81,0-1.58-0.47-1.91-1.27c-2.29-5.41-3.45-11.17-3.45-17.1c0-1.14,0.93-2.07,2.07-2.07c1.15,0,2.07,0.93,2.07,2.07 c0,5.37,1.05,10.58,3.12,15.48c0.45,1.05-0.05,2.27-1.1,2.72C467.3,1537.28,467.03,1537.33,466.76,1537.33z M544.47,1541.01 c1.96-4.17,3.25-8.59,3.82-13.15c0.14-1.14-0.66-2.17-1.8-2.32c-1.13-0.14-2.17,0.66-2.31,1.8c-0.52,4.13-1.68,8.13-3.46,11.91 c-0.49,1.04-0.04,2.27,0.99,2.76c0.29,0.13,0.58,0.2,0.88,0.2C543.38,1542.2,544.12,1541.76,544.47,1541.01z M549.23,1518.97 c0-17.69-10.53-33.57-26.82-40.46c-1.05-0.45-2.27,0.05-2.72,1.1c-0.45,1.06,0.05,2.27,1.1,2.72c14.76,6.24,24.29,20.63,24.29,36.65 c0,1.15,0.93,2.07,2.07,2.07S549.23,1520.11,549.23,1518.97z M467.74,1505.89c5.56-15.97,20.65-26.7,37.57-26.7 c1.15,0,2.07-0.93,2.07-2.07c0-1.15-0.93-2.07-2.07-2.07c-18.68,0-35.35,11.85-41.49,29.48c-0.38,1.08,0.2,2.26,1.28,2.64 c0.23,0.08,0.46,0.12,0.68,0.12C466.64,1507.29,467.44,1506.75,467.74,1505.89z M472.34,1525.11c1.14-0.14,1.95-1.17,1.81-2.31 c-0.15-1.26-0.23-2.55-0.23-3.83c0-11.14,5.99-21.55,15.63-27.16c0.99-0.58,1.32-1.85,0.75-2.83c-0.58-0.99-1.85-1.32-2.83-0.75 c-10.91,6.35-17.69,18.13-17.69,30.74c0,1.45,0.09,2.9,0.26,4.33c0.13,1.05,1.02,1.82,2.06,1.82 C472.17,1525.12,472.25,1525.12,472.34,1525.11z M527.52,1493.83c0.7-0.9,0.54-2.21-0.36-2.91c-6.29-4.91-13.85-7.5-21.85-7.5 c-1.72,0-3.45,0.12-5.14,0.37c-1.13,0.16-1.92,1.22-1.75,2.35c0.16,1.13,1.22,1.92,2.35,1.75c1.49-0.22,3.02-0.33,4.54-0.33 c7.07,0,13.74,2.29,19.3,6.63c0.38,0.3,0.83,0.44,1.27,0.44C526.5,1494.63,527.11,1494.36,527.52,1493.83z M528.93,1555.87 c6.05-7.38,10.33-17.28,11.74-27.18c1.55-10.86-0.41-21.18-5.51-29.05c-0.62-0.96-1.91-1.24-2.87-0.61 c-0.96,0.62-1.23,1.91-0.61,2.87c9.99,15.41,4.82,38.2-5.95,51.34c-0.73,0.89-0.6,2.19,0.29,2.92c0.39,0.32,0.85,0.47,1.31,0.47 C527.93,1556.63,528.52,1556.37,528.93,1555.87z M507.54,1533.64c1.14-0.04,2.04-1.01,1.99-2.15c-0.16-4.31-0.78-8.48-1.83-12.42 c-0.3-1.11-1.43-1.76-2.54-1.47c-1.11,0.3-1.76,1.43-1.47,2.54c0.97,3.63,1.54,7.5,1.69,11.5c0.04,1.12,0.96,1.99,2.07,1.99 C507.48,1533.64,507.51,1533.64,507.54,1533.64z M504.57,1561.58c2.91-7.27,4.73-15.07,5.26-22.57c0.08-1.14-0.78-2.13-1.92-2.21 c-1.15-0.08-2.13,0.78-2.21,1.92c-0.5,7.07-2.22,14.45-4.97,21.32c-0.43,1.06,0.09,2.27,1.15,2.69c0.25,0.1,0.51,0.15,0.77,0.15 C503.46,1562.89,504.24,1562.39,504.57,1561.58z M474.57,1545.6c1.29-4.51,1.66-9.46,1.06-14.32c-0.14-1.14-1.18-1.94-2.31-1.8 c-1.14,0.14-1.94,1.18-1.8,2.31c0.53,4.31,0.21,8.69-0.93,12.66c-0.32,1.1,0.32,2.25,1.42,2.57c0.19,0.05,0.38,0.08,0.57,0.08 C473.47,1547.1,474.3,1546.5,474.57,1545.6z M532.74,1518.97c0-9.05-4.46-17.51-11.93-22.63c-0.95-0.65-2.24-0.41-2.88,0.54 c-0.65,0.94-0.41,2.23,0.54,2.88c6.34,4.35,10.13,11.53,10.13,19.22c0,1.15,0.93,2.07,2.07,2.07 C531.81,1521.04,532.74,1520.11,532.74,1518.97z M482.03,1518.97c0-12.84,10.45-23.28,23.28-23.28c0.8,0,1.61,0.04,2.39,0.12 c1.14,0.12,2.16-0.71,2.27-1.85c0.12-1.14-0.71-2.16-1.85-2.27c-0.93-0.09-1.88-0.14-2.82-0.14c-15.12,0-27.43,12.3-27.43,27.43 c0,1.15,0.93,2.07,2.07,2.07C481.1,1521.04,482.03,1520.11,482.03,1518.97z M481.25,1552.48c1.86-4.96,2.8-10.18,2.8-15.52 c0-3.49-0.41-6.96-1.21-10.33c-0.27-1.11-1.39-1.8-2.5-1.53c-1.11,0.27-1.8,1.39-1.53,2.5c0.73,3.05,1.1,6.2,1.1,9.36 c0,4.84-0.85,9.57-2.54,14.06c-0.4,1.07,0.14,2.27,1.21,2.67c0.24,0.09,0.49,0.13,0.73,0.13 C480.15,1553.82,480.94,1553.31,481.25,1552.48z M512,1562.66c11.43-7.86,18.77-19.89,20.65-33.86c0.15-1.14-0.64-2.18-1.78-2.33 c-1.14-0.15-2.18,0.64-2.33,1.78c-1.72,12.8-8.43,23.81-18.89,31c-0.94,0.65-1.18,1.94-0.53,2.88c0.4,0.58,1.05,0.9,1.71,0.9 C511.23,1563.03,511.64,1562.91,512,1562.66z M492.24,1512.16c2.55-4.89,7.56-7.93,13.08-7.93c3.68,0,7.2,1.36,9.92,3.84 c0.85,0.77,2.16,0.71,2.93-0.14c0.77-0.85,0.71-2.16-0.14-2.93c-3.48-3.17-8-4.92-12.71-4.92c-7.06,0-13.48,3.89-16.75,10.16 c-0.53,1.01-0.14,2.27,0.88,2.8c0.31,0.16,0.63,0.24,0.96,0.24C491.14,1513.27,491.87,1512.86,492.24,1512.16z M491.13,1540.79h0.03 c1.13,0,2.07-0.91,2.06-2.04c-0.01-6.31-0.87-12.59-2.54-18.65c-0.36-1.31-1.91-1.98-3.17-1.16c-0.76,0.49-1.04,1.48-0.8,2.35 c1.56,5.66,2.35,11.52,2.37,17.41C489.07,1539.86,489.98,1540.79,491.13,1540.79z M489.09,1557.5c1.51-3.32,2.57-6.83,3.16-10.42 c0.19-1.13-0.58-2.2-1.71-2.38c-1.13-0.19-2.2,0.58-2.38,1.71c-0.53,3.23-1.49,6.39-2.85,9.38c-0.47,1.04-0.01,2.27,1.03,2.75 c0.28,0.13,0.57,0.19,0.86,0.19C487.99,1558.72,488.74,1558.27,489.09,1557.5z M525.96,1529.84c0.34-5.44-0.39-10.78-2.18-15.88 c-0.38-1.08-1.56-1.65-2.64-1.27c-1.08,0.38-1.65,1.56-1.27,2.64c1.6,4.57,2.26,9.37,1.95,14.25c-0.07,1.14,0.8,2.13,1.94,2.2 c0.04,0,0.09,0,0.13,0C524.98,1531.78,525.89,1530.94,525.96,1529.84z M496.4,1560.25c1.05-2.36,1.95-4.81,2.66-7.29 c0.32-1.1-0.32-2.25-1.42-2.57c-1.1-0.32-2.25,0.32-2.57,1.41c-0.66,2.3-1.5,4.57-2.47,6.76c-0.47,1.05,0,2.27,1.05,2.74 c0.27,0.12,0.56,0.18,0.84,0.18C495.3,1561.48,496.06,1561.02,496.4,1560.25z M500.48,1546.2c0.53-3.54,0.69-7.15,0.46-10.75 c-0.11-1.71-0.31-3.44-0.59-5.13c-0.19-1.13-1.26-1.89-2.38-1.71c-1.13,0.19-1.89,1.26-1.71,2.39c0.26,1.55,0.44,3.13,0.54,4.71 c0.21,3.31,0.07,6.63-0.42,9.87c-0.17,1.13,0.61,2.19,1.74,2.36c0.11,0.02,0.21,0.02,0.31,0.02 C499.44,1547.97,500.32,1547.23,500.48,1546.2z M518.7,1532.35c0-11.18-3.51-24.25-13.39-24.25c-5.99,0-10.86,4.87-10.86,10.86 c0,0.2,0.01,0.41,0.02,0.61c0.06,1.14,1.03,2.02,2.19,1.95c1.14-0.06,2.02-1.04,1.95-2.19c-0.01-0.12-0.01-0.25-0.01-0.37 c0-3.7,3.01-6.72,6.72-6.72c7.31,0,9.25,13.15,9.25,20.1c0,1.15,0.93,2.07,2.07,2.07C517.78,1534.42,518.7,1533.5,518.7,1532.35z M514.57,1551.86c1.72-3.86,2.92-7.93,3.57-12.11c0.18-1.13-0.6-2.19-1.73-2.37c-1.13-0.18-2.19,0.6-2.37,1.73 c-0.59,3.81-1.69,7.53-3.26,11.06c-0.47,1.05,0,2.27,1.05,2.74c0.27,0.12,0.56,0.18,0.84,0.18 C513.47,1553.09,514.23,1552.63,514.57,1551.86z" transform="matrix(1, 0, 0, 1, -272.106625, -409.632094)"/>
  <g transform="matrix(1, 0, 0, 1, -82.574769, -213.26398)">
    <path style="fill: rgb(35, 18, 115); transform-box: fill-box; transform-origin: 50% 50%;" d="M 124.882 260.361 C 123.247 263.062 120.402 264.851 117.16 264.851 C 112.586 264.851 108.794 261.289 108.094 256.628 C 108.018 256.121 107.977 255.601 107.977 255.072 L 107.977 245.294 C 107.977 243.424 107.434 241.689 106.508 240.256 C 105.002 237.929 102.485 236.403 99.63 236.403 L 99.63 255.071 C 99.63 255.595 99.652 256.113 99.692 256.626 C 100.437 266.195 107.986 273.738 117.16 273.738 C 120.643 273.738 123.892 272.651 126.622 270.779 C 125.526 269.093 124.882 267.051 124.882 264.849 L 124.882 260.361 Z"/>
    <path style="fill: rgb(35, 18, 115); transform-box: fill-box; transform-origin: 50% 50%;" d="M 117.16 236.405 C 116.668 236.405 116.182 236.428 115.699 236.47 C 112.771 236.728 110.043 237.757 107.698 239.363 C 108.794 241.05 109.438 243.092 109.438 245.294 L 109.438 249.783 C 110.822 247.498 113.074 245.864 115.699 245.418 C 116.176 245.337 116.663 245.294 117.16 245.294 C 122.232 245.294 126.343 249.671 126.343 255.072 L 126.343 264.851 C 126.343 266.721 126.886 268.455 127.813 269.888 C 129.318 272.215 131.836 273.741 134.69 273.741 L 134.69 255.074 C 134.692 244.779 126.828 236.405 117.16 236.405 Z"/>
    <g transform="matrix(0.146085, 0, 0, 0.155563, 43.292573, 180.280001)" style="">
      <path style="fill: rgb(35, 18, 115);" d="M408.73,282.8 c-18.55,0-33.59,15.04-33.59,33.59c0,18.55,15.04,33.59,33.59,33.59c18.55,0,33.59-15.04,33.59-33.59 C442.32,297.84,427.28,282.8,408.73,282.8z M408.73,333.18c-9.28,0-16.79-7.52-16.79-16.79c0-9.28,7.52-16.79,16.79-16.79 s16.79,7.52,16.79,16.79C425.53,325.67,418.01,333.18,408.73,333.18z"/>
      <path style="fill: rgb(35, 18, 115);" d="M426.6,311.79c0,3.01-0.5,5.9-1.42,8.59 c-0.19,0.56-0.4,1.11-0.63,1.65c0.49-1.37,0.81-2.83,0.92-4.33c0.01-0.09,0.01-0.18,0.02-0.28c0.01-0.2,0.02-0.39,0.02-0.59 c0.01-0.1,0.01-0.2,0.01-0.3c0.01-0.1,0.01-0.2,0.01-0.29c-0.09-9.2-7.57-16.63-16.79-16.63c-9.27,0-16.79,7.52-16.79,16.79 c0,9.27,7.52,16.79,16.79,16.79c5.43,0,10.26-2.58,13.33-6.58c-4.51,6.6-11.96,10.91-20.37,10.91c-13.77,0-24.92-11.52-24.92-25.73 c0-2.56,0.36-5.04,1.04-7.37c0.72-2.5,1.8-4.83,3.18-6.95c0.01-0.02,0.02-0.04,0.04-0.07c0.92-1.4,1.97-2.71,3.13-3.9 c4.5-4.6,10.69-7.44,17.53-7.44C415.45,286.06,426.6,297.58,426.6,311.79z"/>
      <path style="opacity: 0.5; fill: rgb(35, 18, 115);" d="M391.93,316.39 c0,9.27,7.52,16.79,16.79,16.79c5.43,0,10.26-2.58,13.33-6.58c-4.51,6.6-11.96,10.91-20.37,10.91c-13.77,0-24.92-11.52-24.92-25.73 c0-2.56,0.36-5.04,1.04-7.37c4.14-8.54,12.67-14.4,22.52-14.4c13.91,0,25.19,11.68,25.19,26.09v0.12 c-0.09-9.2-7.57-16.63-16.79-16.63C399.45,299.6,391.93,307.12,391.93,316.39z"/>
    </g>
    <path style="fill: rgb(35, 18, 115); transform-box: fill-box; transform-origin: 50% 50%;" d="M 300.691 264.186 L 300.691 270.876 L 289.101 270.876 C 279.951 270.876 275.091 266.506 275.091 257.436 C 275.091 249.696 279.211 243.996 289.101 243.996 L 290.021 243.996 L 290.021 241.606 L 296.461 241.606 L 296.461 264.196 L 300.691 264.196 L 300.691 264.186 Z M 279.031 234.626 C 279.031 232.616 280.591 231.236 282.621 231.236 C 284.651 231.236 286.211 232.626 286.211 234.626 C 286.211 236.866 284.551 238.066 282.621 238.066 C 280.691 238.066 279.031 236.876 279.031 234.626 Z M 290.021 264.186 L 290.021 250.676 L 287.541 250.676 C 283.771 250.676 279.811 253.156 279.811 257.456 C 279.811 261.846 283.401 264.186 287.211 264.186 L 290.021 264.186 Z M 289.011 234.626 C 289.011 232.616 290.571 231.236 292.601 231.236 C 294.671 231.236 296.191 232.626 296.191 234.626 C 296.191 236.866 294.541 238.066 292.601 238.066 C 290.661 238.066 289.011 236.876 289.011 234.626 Z M 299.811 264.186 L 309.421 264.186 L 309.421 243.986 L 315.861 243.986 L 315.861 264.186 L 324.321 264.186 L 324.321 270.876 L 299.811 270.876 L 299.811 264.186 Z M 303.721 277.656 C 303.721 275.606 305.281 274.216 307.311 274.216 C 309.331 274.216 310.901 275.606 310.901 277.656 C 310.901 279.856 309.241 281.046 307.311 281.046 C 305.371 281.046 303.721 279.846 303.721 277.656 Z M 313.691 277.656 C 313.691 275.606 315.251 274.216 317.281 274.216 C 319.351 274.216 320.871 275.606 320.871 277.656 C 320.871 279.856 319.221 281.046 317.281 281.046 C 315.351 281.046 313.691 279.846 313.691 277.656 Z M 323.391 264.186 L 329.091 264.186 L 329.091 243.986 L 335.531 243.986 L 335.531 270.876 L 323.391 270.876 L 323.391 264.186 Z M 328.631 277.466 C 328.631 275.366 330.291 273.936 332.401 273.936 C 334.561 273.936 336.171 275.366 336.171 277.466 C 336.171 279.806 334.421 281.046 332.401 281.046 C 330.381 281.046 328.631 279.806 328.631 277.466 Z M 340.131 280.946 L 339.671 274.256 C 340.871 274.596 341.741 274.686 342.701 274.686 C 345.281 274.686 346.151 273.306 346.151 270.006 L 346.151 243.976 L 352.591 243.976 L 352.591 264.176 L 357.551 264.176 L 357.551 270.866 L 352.541 270.866 C 352.171 278.216 349.461 281.376 343.391 281.376 C 342.201 281.376 340.911 281.186 340.131 280.946 Z M 356.631 264.186 L 361.641 264.186 C 360.631 261.986 359.711 259.216 359.711 256.206 C 359.711 251.666 361.641 248.186 364.311 245.896 C 366.421 244.086 369.411 243.076 372.681 243.076 C 376.081 243.076 379.121 244.076 382.241 245.706 L 380.081 251.776 C 378.151 250.626 375.621 249.726 373.461 249.726 C 371.351 249.726 369.691 250.256 368.451 251.346 C 366.791 252.776 366.201 254.646 366.201 256.746 C 366.201 259.806 367.121 262.236 368.641 264.196 L 383.221 264.196 L 383.221 270.886 L 356.641 270.886 L 356.641 264.186 L 356.631 264.186 Z M 290.011 270.876 C 280.171 271.006 273.231 267.156 273.231 257.826 C 273.231 249.876 279.461 243.986 290.011 243.986 M 290.011 250.856 L 288.341 250.856 C 284.321 250.856 280.101 253.406 280.101 257.826 C 280.101 262.336 283.961 264.186 288.031 264.186 L 290.011 264.186 M 143.971 270.166 L 143.971 243.456 L 151.031 243.456 L 151.031 270.166 L 143.971 270.166 Z M 171.111 270.166 L 171.111 253.986 C 171.111 251.926 170.771 250.526 170.081 249.806 C 169.391 249.086 168.221 248.716 166.551 248.716 C 162.891 248.716 161.071 250.756 161.071 254.846 L 161.071 270.156 L 154.011 270.156 L 154.011 243.446 L 160.741 243.446 L 160.741 247.356 C 161.571 245.836 162.681 244.686 164.051 243.906 C 165.421 243.126 167.201 242.736 169.371 242.736 C 170.641 242.736 171.811 242.926 172.901 243.306 C 173.991 243.686 174.921 244.256 175.701 245.016 C 176.481 245.776 177.091 246.706 177.551 247.816 C 178.001 248.916 178.231 250.196 178.231 251.646 L 178.231 270.156 L 171.111 270.156 L 171.111 270.166 Z M 182.461 270.166 L 182.461 248.456 L 178.501 248.456 L 178.501 243.466 L 182.461 243.466 C 182.461 236.956 186.241 233.696 193.811 233.696 L 193.811 239.396 C 192.901 239.396 192.171 239.456 191.611 239.586 C 191.051 239.716 190.611 239.936 190.281 240.266 C 189.951 240.596 189.731 241.016 189.601 241.546 C 189.471 242.076 189.411 242.716 189.411 243.476 L 193.971 243.476 L 193.971 248.466 L 189.411 248.466 L 189.411 270.176 L 182.461 270.176 L 182.461 270.166 Z M 206.451 270.876 C 204.281 270.876 202.341 270.536 200.641 269.846 C 198.941 269.156 197.501 268.196 196.321 266.966 C 195.141 265.736 194.251 264.256 193.631 262.516 C 193.011 260.776 192.711 258.876 192.711 256.816 C 192.711 254.716 193.031 252.796 193.661 251.066 C 194.291 249.326 195.211 247.846 196.401 246.616 C 197.591 245.386 199.031 244.436 200.721 243.766 C 202.401 243.096 204.311 242.756 206.451 242.756 C 208.551 242.756 210.431 243.096 212.101 243.766 C 213.761 244.436 215.181 245.376 216.361 246.586 C 217.541 247.796 218.441 249.276 219.071 251.006 C 219.701 252.746 220.021 254.676 220.021 256.816 C 220.021 258.956 219.701 260.876 219.071 262.596 C 218.441 264.316 217.531 265.786 216.361 267.016 C 215.181 268.246 213.751 269.196 212.071 269.866 C 210.391 270.536 208.521 270.876 206.451 270.876 Z M 206.451 264.956 C 210.761 264.956 212.911 262.246 212.911 256.816 C 212.911 251.426 210.761 248.726 206.451 248.726 C 202.141 248.726 199.991 251.426 199.991 256.816 C 199.991 262.246 202.151 264.956 206.451 264.956 Z M 238.371 251.546 C 238.191 250.316 237.731 249.426 236.991 248.856 C 236.251 248.296 235.121 248.016 233.601 248.016 C 232.151 248.016 231.061 248.186 230.321 248.536 C 229.581 248.876 229.211 249.466 229.211 250.296 C 229.211 251.016 229.581 251.596 230.321 252.036 C 231.061 252.466 232.141 252.886 233.551 253.286 C 235.871 253.936 237.821 254.486 239.411 254.946 C 241.001 255.396 242.281 255.936 243.241 256.546 C 244.201 257.156 244.891 257.926 245.301 258.856 C 245.721 259.776 245.921 261.016 245.921 262.576 C 245.921 264.966 244.921 266.946 242.931 268.516 C 240.941 270.086 237.991 270.876 234.081 270.876 C 232.161 270.876 230.421 270.656 228.871 270.226 C 227.311 269.796 225.981 269.166 224.881 268.356 C 223.781 267.546 222.931 266.566 222.331 265.426 C 221.731 264.286 221.421 263.006 221.381 261.596 L 228.651 261.596 C 228.651 262.866 229.151 263.836 230.141 264.526 C 231.131 265.216 232.431 265.556 234.021 265.556 C 235.361 265.556 236.511 265.346 237.471 264.936 C 238.431 264.516 238.911 263.876 238.911 263.006 C 238.911 262.026 238.561 261.326 237.851 260.886 C 237.141 260.446 236.071 260.076 234.621 259.746 C 232.011 259.166 229.921 258.566 228.321 257.926 C 226.731 257.296 225.491 256.596 224.601 255.836 C 223.711 255.076 223.121 254.246 222.811 253.336 C 222.501 252.436 222.351 251.416 222.351 250.296 C 222.351 249.286 222.561 248.326 222.971 247.416 C 223.391 246.516 224.051 245.716 224.951 245.026 C 225.851 244.336 227.031 243.786 228.481 243.366 C 229.931 242.946 231.701 242.746 233.801 242.746 C 237.641 242.746 240.441 243.526 242.211 245.076 C 243.981 246.636 244.961 248.786 245.141 251.536 L 238.371 251.536 L 238.371 251.546 Z M 254.111 258.656 C 254.221 260.686 254.811 262.296 255.871 263.486 C 256.941 264.676 258.341 265.276 260.081 265.276 C 261.241 265.276 262.261 265.016 263.151 264.486 C 264.041 263.966 264.611 263.226 264.861 262.286 L 272.131 262.286 C 271.301 265.036 269.851 267.156 267.791 268.636 C 265.731 270.116 263.271 270.866 260.411 270.866 C 251.511 270.866 247.061 266.016 247.061 256.316 C 247.061 254.256 247.351 252.386 247.931 250.726 C 248.511 249.066 249.351 247.636 250.451 246.436 C 251.551 245.246 252.901 244.326 254.491 243.696 C 256.081 243.066 257.911 242.746 259.971 242.746 C 264.101 242.746 267.221 244.066 269.331 246.706 C 271.451 249.346 272.511 253.326 272.511 258.646 L 254.111 258.646 L 254.111 258.656 Z M 265.241 254.206 C 265.201 253.226 265.031 252.366 264.721 251.626 C 264.411 250.886 264.011 250.266 263.501 249.776 C 262.991 249.286 262.411 248.926 261.761 248.686 C 261.111 248.456 260.441 248.336 259.751 248.336 C 258.341 248.336 257.121 248.856 256.091 249.886 C 255.061 250.916 254.471 252.356 254.331 254.206 L 265.241 254.206 Z M 147.181 239.746 C 149.381 239.746 151.161 237.966 151.161 235.766 C 151.161 233.566 149.381 231.786 147.181 231.786 C 144.981 231.786 143.201 233.566 143.201 235.766 C 143.201 237.966 144.981 239.746 147.181 239.746 Z"/>
    <path style="fill: rgb(35, 18, 115); transform-box: fill-box; transform-origin: 50% 50%;" d="M 111.479 257.956 C 111.361 257.956 111.248 257.883 111.2 257.759 C 110.865 256.917 110.696 256.021 110.696 255.099 C 110.696 254.921 110.832 254.777 110.998 254.777 C 111.167 254.777 111.301 254.921 111.301 255.099 C 111.301 255.934 111.454 256.745 111.757 257.507 C 111.822 257.67 111.749 257.86 111.596 257.93 C 111.558 257.949 111.519 257.956 111.479 257.956 Z M 122.832 258.529 C 123.118 257.88 123.306 257.193 123.389 256.483 C 123.409 256.306 123.293 256.146 123.127 256.122 C 122.961 256.101 122.81 256.225 122.789 256.402 C 122.712 257.045 122.543 257.667 122.283 258.255 C 122.212 258.417 122.277 258.608 122.428 258.684 C 122.47 258.705 122.513 258.716 122.557 258.716 C 122.672 258.714 122.78 258.646 122.832 258.529 Z M 123.527 255.1 C 123.527 252.348 121.988 249.878 119.609 248.806 C 119.455 248.736 119.277 248.814 119.211 248.977 C 119.145 249.142 119.218 249.33 119.372 249.4 C 121.528 250.371 122.92 252.61 122.92 255.102 C 122.92 255.281 123.056 255.424 123.223 255.424 C 123.389 255.424 123.527 255.278 123.527 255.1 Z M 111.622 253.065 C 112.434 250.581 114.639 248.912 117.111 248.912 C 117.279 248.912 117.413 248.767 117.413 248.59 C 117.413 248.411 117.277 248.268 117.111 248.268 C 114.382 248.268 111.947 250.111 111.049 252.854 C 110.994 253.022 111.079 253.205 111.237 253.265 C 111.27 253.277 111.303 253.283 111.336 253.283 C 111.462 253.283 111.578 253.199 111.622 253.065 Z M 112.294 256.055 C 112.461 256.034 112.579 255.873 112.559 255.696 C 112.537 255.5 112.525 255.299 112.525 255.1 C 112.525 253.367 113.4 251.748 114.808 250.875 C 114.952 250.785 115.001 250.587 114.917 250.435 C 114.833 250.281 114.648 250.23 114.504 250.318 C 112.911 251.306 111.92 253.139 111.92 255.1 C 111.92 255.326 111.934 255.551 111.958 255.774 C 111.977 255.937 112.107 256.057 112.259 256.057 C 112.269 256.057 112.281 256.057 112.294 256.055 Z M 120.355 251.189 C 120.457 251.049 120.434 250.846 120.302 250.737 C 119.384 249.973 118.28 249.57 117.111 249.57 C 116.859 249.57 116.606 249.589 116.359 249.628 C 116.195 249.652 116.079 249.817 116.104 249.993 C 116.127 250.169 116.282 250.292 116.447 250.265 C 116.665 250.231 116.888 250.214 117.111 250.214 C 118.143 250.214 119.117 250.57 119.93 251.245 C 119.985 251.292 120.051 251.314 120.116 251.314 C 120.206 251.314 120.295 251.272 120.355 251.189 Z M 120.561 260.841 C 121.445 259.692 122.07 258.152 122.276 256.612 C 122.502 254.923 122.216 253.318 121.471 252.093 C 121.381 251.944 121.192 251.9 121.052 251.998 C 120.911 252.095 120.872 252.295 120.963 252.445 C 122.422 254.842 121.667 258.387 120.094 260.431 C 119.987 260.57 120.006 260.772 120.136 260.886 C 120.193 260.935 120.26 260.959 120.327 260.959 C 120.415 260.959 120.501 260.918 120.561 260.841 Z M 117.436 257.382 C 117.603 257.376 117.734 257.225 117.727 257.048 C 117.703 256.377 117.613 255.729 117.46 255.116 C 117.415 254.943 117.251 254.842 117.089 254.887 C 116.927 254.934 116.831 255.11 116.873 255.282 C 117.015 255.847 117.098 256.449 117.12 257.071 C 117.126 257.245 117.261 257.381 117.423 257.381 C 117.428 257.382 117.432 257.382 117.436 257.382 Z M 117.002 261.729 C 117.428 260.598 117.693 259.384 117.771 258.218 C 117.782 258.04 117.657 257.886 117.491 257.874 C 117.323 257.862 117.179 257.995 117.168 258.173 C 117.094 259.272 116.843 260.421 116.442 261.489 C 116.379 261.654 116.455 261.842 116.609 261.908 C 116.646 261.923 116.684 261.931 116.722 261.931 C 116.84 261.933 116.954 261.855 117.002 261.729 Z M 112.62 259.243 C 112.808 258.541 112.862 257.771 112.775 257.015 C 112.754 256.838 112.602 256.713 112.437 256.735 C 112.271 256.757 112.154 256.919 112.174 257.095 C 112.251 257.765 112.205 258.446 112.039 259.064 C 111.991 259.235 112.085 259.414 112.246 259.464 C 112.273 259.472 112.301 259.476 112.329 259.476 C 112.459 259.476 112.581 259.383 112.62 259.243 Z M 121.117 255.1 C 121.117 253.692 120.466 252.376 119.375 251.58 C 119.236 251.479 119.047 251.516 118.954 251.664 C 118.859 251.81 118.894 252.011 119.033 252.112 C 119.959 252.789 120.513 253.906 120.513 255.102 C 120.513 255.281 120.649 255.424 120.815 255.424 C 120.981 255.422 121.117 255.278 121.117 255.1 Z M 113.709 255.1 C 113.709 253.103 115.236 251.479 117.111 251.479 C 117.227 251.479 117.345 251.485 117.46 251.497 C 117.626 251.516 117.775 251.387 117.791 251.21 C 117.808 251.032 117.688 250.874 117.521 250.856 C 117.385 250.841 117.246 250.835 117.109 250.835 C 114.9 250.835 113.102 252.748 113.102 255.102 C 113.102 255.281 113.238 255.424 113.404 255.424 C 113.573 255.422 113.709 255.278 113.709 255.1 Z M 113.595 260.313 C 113.868 259.542 114.005 258.73 114.005 257.899 C 114.005 257.356 113.945 256.816 113.828 256.292 C 113.789 256.119 113.625 256.012 113.463 256.054 C 113.3 256.096 113.2 256.27 113.239 256.443 C 113.346 256.917 113.4 257.407 113.4 257.899 C 113.4 258.652 113.276 259.388 113.029 260.086 C 112.97 260.253 113.049 260.439 113.206 260.501 C 113.241 260.515 113.278 260.522 113.313 260.522 C 113.435 260.522 113.551 260.442 113.595 260.313 Z M 118.088 261.897 C 119.757 260.674 120.83 258.803 121.104 256.629 C 121.126 256.452 121.011 256.29 120.844 256.267 C 120.678 256.244 120.526 256.367 120.504 256.544 C 120.253 258.535 119.272 260.248 117.745 261.366 C 117.607 261.467 117.572 261.668 117.667 261.814 C 117.725 261.905 117.821 261.954 117.917 261.954 C 117.975 261.954 118.035 261.936 118.088 261.897 Z M 115.201 254.041 C 115.573 253.28 116.305 252.807 117.112 252.807 C 117.649 252.807 118.164 253.019 118.561 253.405 C 118.685 253.524 118.877 253.515 118.989 253.383 C 119.102 253.251 119.093 253.047 118.969 252.927 C 118.46 252.434 117.8 252.162 117.112 252.162 C 116.08 252.162 115.142 252.767 114.665 253.742 C 114.587 253.899 114.644 254.095 114.794 254.178 C 114.839 254.203 114.886 254.215 114.934 254.215 C 115.04 254.214 115.147 254.15 115.201 254.041 Z M 115.039 258.495 L 115.043 258.495 C 115.208 258.495 115.346 258.353 115.345 258.177 C 115.343 257.196 115.217 256.219 114.973 255.276 C 114.921 255.072 114.694 254.968 114.51 255.096 C 114.399 255.172 114.358 255.326 114.393 255.461 C 114.621 256.342 114.736 257.253 114.74 258.17 C 114.738 258.35 114.871 258.495 115.039 258.495 Z M 114.741 261.094 C 114.961 260.578 115.116 260.032 115.203 259.473 C 115.23 259.297 115.118 259.131 114.952 259.103 C 114.788 259.073 114.631 259.193 114.605 259.369 C 114.528 259.871 114.388 260.363 114.189 260.828 C 114.12 260.99 114.187 261.181 114.34 261.256 C 114.38 261.276 114.423 261.285 114.465 261.285 C 114.58 261.284 114.69 261.214 114.741 261.094 Z M 120.127 256.791 C 120.177 255.945 120.07 255.114 119.808 254.321 C 119.753 254.153 119.581 254.064 119.423 254.123 C 119.265 254.182 119.182 254.366 119.237 254.534 C 119.471 255.245 119.567 255.992 119.522 256.751 C 119.512 256.928 119.639 257.082 119.806 257.093 C 119.812 257.093 119.819 257.093 119.825 257.093 C 119.984 257.093 120.116 256.962 120.127 256.791 Z M 115.809 261.522 C 115.962 261.155 116.093 260.774 116.197 260.388 C 116.244 260.217 116.151 260.038 115.99 259.988 C 115.829 259.938 115.662 260.038 115.614 260.207 C 115.518 260.565 115.395 260.918 115.254 261.259 C 115.185 261.422 115.254 261.612 115.407 261.685 C 115.446 261.704 115.489 261.713 115.529 261.713 C 115.649 261.713 115.759 261.642 115.809 261.522 Z M 116.405 259.336 C 116.482 258.786 116.506 258.224 116.472 257.664 C 116.456 257.398 116.427 257.129 116.386 256.866 C 116.358 256.69 116.202 256.572 116.038 256.6 C 115.874 256.629 115.762 256.796 115.789 256.972 C 115.826 257.213 115.853 257.459 115.867 257.704 C 115.898 258.219 115.878 258.736 115.806 259.24 C 115.781 259.416 115.895 259.58 116.06 259.607 C 116.076 259.61 116.091 259.61 116.106 259.61 C 116.253 259.612 116.381 259.496 116.405 259.336 Z M 119.067 257.182 C 119.067 255.442 118.554 253.409 117.111 253.409 C 116.235 253.409 115.524 254.167 115.524 255.099 C 115.524 255.13 115.525 255.162 115.527 255.194 C 115.536 255.371 115.677 255.508 115.846 255.497 C 116.014 255.488 116.142 255.335 116.132 255.156 C 116.13 255.138 116.13 255.117 116.13 255.099 C 116.13 254.523 116.57 254.053 117.112 254.053 C 118.18 254.053 118.463 256.099 118.463 257.18 C 118.463 257.359 118.599 257.502 118.765 257.502 C 118.932 257.504 119.067 257.361 119.067 257.182 Z M 118.463 260.217 C 118.715 259.616 118.89 258.983 118.984 258.333 C 119.011 258.157 118.897 257.992 118.732 257.964 C 118.567 257.936 118.412 258.058 118.385 258.233 C 118.3 258.826 118.139 259.405 117.909 259.954 C 117.841 260.117 117.909 260.307 118.063 260.38 C 118.103 260.399 118.145 260.408 118.186 260.408 C 118.302 260.408 118.413 260.337 118.463 260.217 Z"/>
  </g>
  <linearGradient id="SVGID_00000062155211869533737280000011448036700217757077_" gradientUnits="userSpaceOnUse" x1="385.6499" y1="-570.2053" x2="570.4279" y2="-570.2053">
    <stop offset="0.0011" style="stop-color:#22006A"/>
    <stop offset="1" style="stop-color:#2BF6E7"/>
  </linearGradient>
  <path style="fill:url(#SVGID_00000062155211869533737280000011448036700217757077_);" d="M558.51-536.21 c-11.19,17.36-30.67,28.86-52.86,28.86c-31.31,0-57.27-22.9-62.06-52.86c-0.52-3.26-0.8-6.6-0.8-10v-62.86 c0-12.02-3.72-23.17-10.06-32.38c-10.31-14.96-27.54-24.77-47.08-24.77h0v120c0,3.37,0.15,6.7,0.42,10 c5.1,61.51,56.78,110,119.58,110c23.84,0,46.08-6.99,64.77-19.02c-7.5-10.84-11.91-23.97-11.91-38.12V-536.21z" transform="matrix(1, 0, 0, 1, -272.106625, -409.632094)"/>
  <linearGradient id="SVGID_00000072268342585889439360000014691135094241257360_" gradientUnits="userSpaceOnUse" x1="440.8807" y1="-570.2053" x2="625.6588" y2="-570.2053">
    <stop offset="0" style="stop-color:#0D006A"/>
    <stop offset="1" style="stop-color:#2BF6E7"/>
  </linearGradient>
  <path style="fill:url(#SVGID_00000072268342585889439360000014691135094241257360_);" d="M505.65-690.21c-3.37,0-6.7,0.15-10,0.42 c-20.05,1.66-38.72,8.27-54.77,18.6c7.5,10.84,11.91,23.97,11.91,38.12v28.86c9.47-14.69,24.89-25.19,42.86-28.06 c3.26-0.52,6.6-0.8,10-0.8c34.72,0,62.86,28.14,62.86,62.86v62.86c0,12.02,3.72,23.17,10.06,32.38 c10.31,14.96,27.54,24.77,47.08,24.77h0v-120C625.66-636.38,571.83-690.21,505.65-690.21z" transform="matrix(1, 0, 0, 1, -272.106625, -409.632094)"/>
  <g transform="matrix(1, 0, 0, 1, -272.106625, -409.632094)">
    <linearGradient id="SVGID_00000011720330104899386250000006672603311010823336_" gradientUnits="userSpaceOnUse" x1="429.6275" y1="-706.86" x2="388.8358" y2="-761.0367">
      <stop offset="0.0011" style="stop-color:#22006A"/>
      <stop offset="1" style="stop-color:#2BF6E7"/>
    </linearGradient>
    <path style="fill:url(#SVGID_00000011720330104899386250000006672603311010823336_);" d="M408.73-768.2 c-18.55,0-33.59,15.04-33.59,33.59c0,18.55,15.04,33.59,33.59,33.59c18.55,0,33.59-15.04,33.59-33.59 C442.32-753.16,427.28-768.2,408.73-768.2z M408.73-717.82c-9.28,0-16.79-7.52-16.79-16.79c0-9.28,7.52-16.79,16.79-16.79 s16.79,7.52,16.79,16.79C425.53-725.33,418.01-717.82,408.73-717.82z"/>
    <linearGradient id="SVGID_00000150085792213480161360000003906563888245053606_" gradientUnits="userSpaceOnUse" x1="398.2594" y1="-715.8301" x2="408.8229" y2="-788.0142">
      <stop offset="0.0011" style="stop-color:#22006A"/>
      <stop offset="1" style="stop-color:#2BF6E7"/>
    </linearGradient>
    <path style="fill:url(#SVGID_00000150085792213480161360000003906563888245053606_);" d="M426.6-739.21c0,3.01-0.5,5.9-1.42,8.59 c-0.19,0.56-0.4,1.11-0.63,1.65c0.49-1.37,0.81-2.83,0.92-4.33c0.01-0.09,0.01-0.18,0.02-0.28c0.01-0.2,0.02-0.39,0.02-0.59 c0.01-0.1,0.01-0.2,0.01-0.3c0.01-0.1,0.01-0.2,0.01-0.29c-0.09-9.2-7.57-16.63-16.79-16.63c-9.27,0-16.79,7.52-16.79,16.79 c0,9.27,7.52,16.79,16.79,16.79c5.43,0,10.26-2.58,13.33-6.58c-4.51,6.6-11.96,10.91-20.37,10.91c-13.77,0-24.92-11.52-24.92-25.73 c0-2.56,0.36-5.04,1.04-7.37c0.72-2.5,1.8-4.83,3.18-6.95c0.01-0.02,0.02-0.04,0.04-0.07c0.92-1.4,1.97-2.71,3.13-3.9 c4.5-4.6,10.69-7.44,17.53-7.44C415.45-764.94,426.6-753.42,426.6-739.21z"/>
    <linearGradient id="SVGID_00000021832543338088039410000001642811279209888931_" gradientUnits="userSpaceOnUse" x1="376.7615" y1="-737.2311" x2="425.5163" y2="-737.2311">
      <stop offset="0.0011" style="stop-color:#22006A"/>
      <stop offset="1" style="stop-color:#2BF6E7"/>
    </linearGradient>
    <path style="opacity:0.5;fill:url(#SVGID_00000021832543338088039410000001642811279209888931_);" d="M391.93-734.61 c0,9.27,7.52,16.79,16.79,16.79c5.43,0,10.26-2.58,13.33-6.58c-4.51,6.6-11.96,10.91-20.37,10.91c-13.77,0-24.92-11.52-24.92-25.73 c0-2.56,0.36-5.04,1.04-7.37c4.14-8.54,12.67-14.4,22.52-14.4c13.91,0,25.19,11.68,25.19,26.09v0.12 c-0.09-9.2-7.57-16.63-16.79-16.63C399.45-751.4,391.93-743.88,391.93-734.61z"/>
  </g>
  <linearGradient id="SVGID_00000066484953240424043080000003762693918941723323_" gradientUnits="userSpaceOnUse" x1="385.6499" y1="-412.3185" x2="625.6588" y2="-412.3185">
    <stop offset="0.0011" style="stop-color:#22006A"/>
    <stop offset="1" style="stop-color:#2BF6E7"/>
  </linearGradient>
  <path style="fill:url(#SVGID_00000066484953240424043080000003762693918941723323_);" d="M543.14-404.44v6.69h-11.59 c-9.15,0-14.01-4.37-14.01-13.44c0-7.74,4.12-13.44,14.01-13.44h0.92v-2.39h6.44v22.59H543.14z M521.48-434 c0-2.01,1.56-3.39,3.59-3.39s3.59,1.39,3.59,3.39c0,2.24-1.66,3.44-3.59,3.44S521.48-431.75,521.48-434z M532.47-404.44v-13.51 h-2.48c-3.77,0-7.73,2.48-7.73,6.78c0,4.39,3.59,6.73,7.4,6.73H532.47z M531.46-434c0-2.01,1.56-3.39,3.59-3.39 c2.07,0,3.59,1.39,3.59,3.39c0,2.24-1.65,3.44-3.59,3.44S531.46-431.75,531.46-434z M542.26-404.44h9.61v-20.2h6.44v20.2h8.46v6.69 h-24.51V-404.44z M546.17-390.97c0-2.05,1.56-3.44,3.59-3.44c2.02,0,3.59,1.39,3.59,3.44c0,2.2-1.66,3.39-3.59,3.39 C547.82-387.58,546.17-388.78,546.17-390.97z M556.14-390.97c0-2.05,1.56-3.44,3.59-3.44c2.07,0,3.59,1.39,3.59,3.44 c0,2.2-1.65,3.39-3.59,3.39C557.8-387.58,556.14-388.78,556.14-390.97z M565.84-404.44h5.7v-20.2h6.44v26.89h-12.14V-404.44z M571.08-391.16c0-2.1,1.66-3.53,3.77-3.53c2.16,0,3.77,1.43,3.77,3.53c0,2.34-1.75,3.58-3.77,3.58 C572.83-387.58,571.08-388.82,571.08-391.16z M582.58-387.68l-0.46-6.69c1.2,0.34,2.07,0.43,3.03,0.43c2.58,0,3.45-1.38,3.45-4.68 v-26.03h6.44v20.2H600v6.69h-5.01c-0.37,7.35-3.08,10.51-9.15,10.51C584.65-387.25,583.36-387.44,582.58-387.68z M599.08-404.44 h5.01c-1.01-2.2-1.93-4.97-1.93-7.98c0-4.54,1.93-8.02,4.6-10.31c2.11-1.81,5.1-2.82,8.37-2.82c3.4,0,6.44,1,9.56,2.63l-2.16,6.07 c-1.93-1.15-4.46-2.05-6.62-2.05c-2.11,0-3.77,0.53-5.01,1.62c-1.66,1.43-2.25,3.3-2.25,5.4c0,3.06,0.92,5.49,2.44,7.45h14.58v6.69 h-26.58V-404.44z M532.46-397.75c-9.84,0.13-16.78-3.72-16.78-13.05c0-7.95,6.23-13.84,16.78-13.84l0,0 M532.46-417.77h-1.67 c-4.02,0-8.24,2.55-8.24,6.97c0,4.51,3.86,6.36,7.93,6.36h1.98 M386.42-398.46v-26.71h7.06v26.71H386.42z M413.56-398.46v-16.18 c0-2.06-0.34-3.46-1.03-4.18c-0.69-0.72-1.86-1.09-3.53-1.09c-3.66,0-5.48,2.04-5.48,6.13v15.31h-7.06v-26.71h6.73v3.91 c0.83-1.52,1.94-2.67,3.31-3.45c1.37-0.78,3.15-1.17,5.32-1.17c1.27,0,2.44,0.19,3.53,0.57c1.09,0.38,2.02,0.95,2.8,1.71 c0.78,0.76,1.39,1.69,1.85,2.8c0.45,1.1,0.68,2.38,0.68,3.83v18.51H413.56z M424.91-398.46v-21.71h-3.96v-4.99h3.96 c0-6.51,3.78-9.77,11.35-9.77v5.7c-0.91,0-1.64,0.06-2.2,0.19c-0.56,0.13-1,0.35-1.33,0.68s-0.55,0.75-0.68,1.28 c-0.13,0.53-0.19,1.17-0.19,1.93h4.56v4.99h-4.56v21.71H424.91z M448.9-397.75c-2.17,0-4.11-0.34-5.81-1.03 c-1.7-0.69-3.14-1.65-4.32-2.88c-1.18-1.23-2.07-2.71-2.69-4.45c-0.62-1.74-0.92-3.64-0.92-5.7c0-2.1,0.32-4.02,0.95-5.75 c0.63-1.74,1.55-3.22,2.74-4.45c1.19-1.23,2.63-2.18,4.32-2.85c1.68-0.67,3.59-1.01,5.73-1.01c2.1,0,3.98,0.34,5.65,1.01 c1.66,0.67,3.08,1.61,4.26,2.82c1.18,1.21,2.08,2.69,2.71,4.42c0.63,1.74,0.95,3.67,0.95,5.81c0,2.14-0.32,4.06-0.95,5.78 c-0.63,1.72-1.54,3.19-2.71,4.42c-1.18,1.23-2.61,2.18-4.29,2.85C452.84-398.09,450.97-397.75,448.9-397.75z M448.9-403.67 c4.31,0,6.46-2.71,6.46-8.14c0-5.39-2.15-8.09-6.46-8.09c-4.31,0-6.46,2.7-6.46,8.09C442.44-406.38,444.6-403.67,448.9-403.67z M480.82-417.08c-0.18-1.23-0.64-2.12-1.38-2.69c-0.74-0.56-1.87-0.84-3.39-0.84c-1.45,0-2.54,0.17-3.28,0.52 c-0.74,0.34-1.11,0.93-1.11,1.76c0,0.72,0.37,1.3,1.11,1.74c0.74,0.43,1.82,0.85,3.23,1.25c2.32,0.65,4.27,1.2,5.86,1.66 c1.59,0.45,2.87,0.99,3.83,1.6c0.96,0.61,1.65,1.38,2.06,2.31c0.42,0.92,0.62,2.16,0.62,3.72c0,2.39-1,4.37-2.99,5.94 c-1.99,1.57-4.94,2.36-8.85,2.36c-1.92,0-3.66-0.22-5.21-0.65c-1.56-0.43-2.89-1.06-3.99-1.87c-1.1-0.81-1.95-1.79-2.55-2.93 s-0.91-2.42-0.95-3.83h7.27c0,1.27,0.5,2.24,1.49,2.93c0.99,0.69,2.29,1.03,3.88,1.03c1.34,0,2.49-0.21,3.45-0.62 c0.96-0.42,1.44-1.06,1.44-1.93c0-0.98-0.35-1.68-1.06-2.12s-1.78-0.81-3.23-1.14c-2.61-0.58-4.7-1.18-6.3-1.82 c-1.59-0.63-2.83-1.33-3.72-2.09c-0.89-0.76-1.48-1.59-1.79-2.5c-0.31-0.9-0.46-1.92-0.46-3.04c0-1.01,0.21-1.97,0.62-2.88 c0.42-0.9,1.08-1.7,1.98-2.39c0.9-0.69,2.08-1.24,3.53-1.66c1.45-0.42,3.22-0.62,5.32-0.62c3.84,0,6.64,0.78,8.41,2.33 c1.77,1.56,2.75,3.71,2.93,6.46H480.82z M496.56-409.97c0.11,2.03,0.7,3.64,1.76,4.83c1.07,1.19,2.47,1.79,4.21,1.79 c1.16,0,2.18-0.26,3.07-0.79c0.89-0.52,1.46-1.26,1.71-2.2h7.27c-0.83,2.75-2.28,4.87-4.34,6.35c-2.06,1.48-4.52,2.23-7.38,2.23 c-8.9,0-13.35-4.85-13.35-14.55c0-2.06,0.29-3.93,0.87-5.59c0.58-1.66,1.42-3.09,2.52-4.29c1.1-1.19,2.45-2.11,4.04-2.74 c1.59-0.63,3.42-0.95,5.48-0.95c4.13,0,7.25,1.32,9.36,3.96c2.12,2.64,3.18,6.62,3.18,11.94H496.56z M507.69-414.42 c-0.04-0.98-0.21-1.84-0.52-2.58c-0.31-0.74-0.71-1.36-1.22-1.85c-0.51-0.49-1.09-0.85-1.74-1.09c-0.65-0.23-1.32-0.35-2.01-0.35 c-1.41,0-2.63,0.52-3.66,1.55c-1.03,1.03-1.62,2.47-1.76,4.32H507.69z M389.63-428.88c2.2,0,3.98-1.78,3.98-3.98 c0-2.2-1.78-3.98-3.98-3.98c-2.2,0-3.98,1.78-3.98,3.98C385.65-430.66,387.43-428.88,389.63-428.88z" transform="matrix(1, 0, 0, 1, -272.106625, -409.632094)"/>
  <g transform="matrix(1, 0, 0, 1, -272.106625, -409.632094)">
    <path d="M532.47-427.1h6.44v22.59h4.23v6.69h-10.67 M521.48-434.07c0-2.01,1.56-3.39,3.59-3.39s3.59,1.39,3.59,3.39 c0,2.24-1.66,3.44-3.59,3.44S521.48-431.83,521.48-434.07z M531.46-434.07c0-2.01,1.56-3.39,3.59-3.39c2.07,0,3.59,1.39,3.59,3.39 c0,2.24-1.65,3.44-3.59,3.44S531.46-431.83,531.46-434.07z M542.26-404.51h9.61v-20.2h6.44v20.2h8.46v6.69h-24.51V-404.51z M546.17-391.04c0-2.05,1.56-3.44,3.59-3.44c2.02,0,3.59,1.39,3.59,3.44c0,2.2-1.66,3.39-3.59,3.39 C547.82-387.65,546.17-388.85,546.17-391.04z M556.14-391.04c0-2.05,1.56-3.44,3.59-3.44c2.07,0,3.59,1.39,3.59,3.44 c0,2.2-1.65,3.39-3.59,3.39C557.8-387.65,556.14-388.85,556.14-391.04z M565.84-404.51h5.7v-20.2h6.44v26.89h-12.14V-404.51z M571.08-391.23c0-2.1,1.66-3.53,3.77-3.53c2.16,0,3.77,1.43,3.77,3.53c0,2.34-1.75,3.58-3.77,3.58 C572.83-387.65,571.08-388.89,571.08-391.23z M582.58-387.75l-0.46-6.69c1.2,0.34,2.07,0.43,3.03,0.43c2.58,0,3.45-1.38,3.45-4.68 v-26.03h6.44v20.2H600v6.69h-5.01c-0.37,7.35-3.08,10.51-9.15,10.51C584.65-387.32,583.36-387.51,582.58-387.75z M599.08-404.51 h5.01c-1.01-2.2-1.93-4.97-1.93-7.98c0-4.54,1.93-8.02,4.6-10.31c2.11-1.81,5.1-2.82,8.37-2.82c3.4,0,6.44,1,9.56,2.63l-2.16,6.07 c-1.93-1.15-4.46-2.05-6.62-2.05c-2.11,0-3.77,0.53-5.01,1.62c-1.66,1.43-2.25,3.3-2.25,5.4c0,3.06,0.92,5.49,2.44,7.45h14.58v6.69 h-26.58V-404.51z M532.46-424.71L532.46-424.71 M532.46-397.82"/>
  </g>
  <linearGradient id="SVGID_00000105405350685636907640000011391735603509291663_" gradientUnits="userSpaceOnUse" x1="461.3959" y1="-569.9614" x2="549.2305" y2="-569.9614">
    <stop offset="0" style="stop-color:#0D006A"/>
    <stop offset="1" style="stop-color:#2BF6E7"/>
  </linearGradient>
  <path style="fill:url(#SVGID_00000105405350685636907640000011391735603509291663_);" d="M466.76-551.67 c-0.81,0-1.58-0.47-1.91-1.27c-2.29-5.41-3.45-11.17-3.45-17.1c0-1.14,0.93-2.07,2.07-2.07c1.15,0,2.07,0.93,2.07,2.07 c0,5.37,1.05,10.58,3.12,15.48c0.45,1.05-0.05,2.27-1.1,2.72C467.3-551.72,467.03-551.67,466.76-551.67z M544.47-547.99 c1.96-4.17,3.25-8.59,3.82-13.15c0.14-1.14-0.66-2.17-1.8-2.32c-1.13-0.14-2.17,0.66-2.31,1.8c-0.52,4.13-1.68,8.13-3.46,11.91 c-0.49,1.04-0.04,2.27,0.99,2.76c0.29,0.13,0.58,0.2,0.88,0.2C543.38-546.8,544.12-547.24,544.47-547.99z M549.23-570.03 c0-17.69-10.53-33.57-26.82-40.46c-1.05-0.45-2.27,0.05-2.72,1.1c-0.45,1.06,0.05,2.27,1.1,2.72c14.76,6.24,24.29,20.63,24.29,36.65 c0,1.15,0.93,2.07,2.07,2.07S549.23-568.89,549.23-570.03z M467.74-583.11c5.56-15.97,20.65-26.7,37.57-26.7 c1.15,0,2.07-0.93,2.07-2.07c0-1.15-0.93-2.07-2.07-2.07c-18.68,0-35.35,11.85-41.49,29.48c-0.38,1.08,0.2,2.26,1.28,2.64 c0.23,0.08,0.46,0.12,0.68,0.12C466.64-581.71,467.44-582.25,467.74-583.11z M472.34-563.89c1.14-0.14,1.95-1.17,1.81-2.31 c-0.15-1.26-0.23-2.55-0.23-3.83c0-11.14,5.99-21.55,15.63-27.16c0.99-0.58,1.32-1.85,0.75-2.83c-0.58-0.99-1.85-1.32-2.83-0.75 c-10.91,6.35-17.69,18.13-17.69,30.74c0,1.45,0.09,2.9,0.26,4.33c0.13,1.05,1.02,1.82,2.06,1.82 C472.17-563.88,472.25-563.88,472.34-563.89z M527.52-595.17c0.7-0.9,0.54-2.21-0.36-2.91c-6.29-4.91-13.85-7.5-21.85-7.5 c-1.72,0-3.45,0.12-5.14,0.37c-1.13,0.16-1.92,1.22-1.75,2.35c0.16,1.13,1.22,1.92,2.35,1.75c1.49-0.22,3.02-0.33,4.54-0.33 c7.07,0,13.74,2.29,19.3,6.63c0.38,0.3,0.83,0.44,1.27,0.44C526.5-594.37,527.11-594.64,527.52-595.17z M528.93-533.13 c6.05-7.38,10.33-17.28,11.74-27.18c1.55-10.86-0.41-21.18-5.51-29.05c-0.62-0.96-1.91-1.24-2.87-0.61 c-0.96,0.62-1.23,1.91-0.61,2.87c9.99,15.41,4.82,38.2-5.95,51.34c-0.73,0.89-0.6,2.19,0.29,2.92c0.39,0.32,0.85,0.47,1.31,0.47 C527.93-532.37,528.52-532.63,528.93-533.13z M507.54-555.36c1.14-0.04,2.04-1.01,1.99-2.15c-0.16-4.31-0.78-8.48-1.83-12.42 c-0.3-1.11-1.43-1.76-2.54-1.47c-1.11,0.3-1.76,1.43-1.47,2.54c0.97,3.63,1.54,7.5,1.69,11.5c0.04,1.12,0.96,1.99,2.07,1.99 C507.48-555.36,507.51-555.36,507.54-555.36z M504.57-527.42c2.91-7.27,4.73-15.07,5.26-22.57c0.08-1.14-0.78-2.13-1.92-2.21 c-1.15-0.08-2.13,0.78-2.21,1.92c-0.5,7.07-2.22,14.45-4.97,21.32c-0.43,1.06,0.09,2.27,1.15,2.69c0.25,0.1,0.51,0.15,0.77,0.15 C503.46-526.11,504.24-526.61,504.57-527.42z M474.57-543.4c1.29-4.51,1.66-9.46,1.06-14.32c-0.14-1.14-1.18-1.94-2.31-1.8 c-1.14,0.14-1.94,1.18-1.8,2.31c0.53,4.31,0.21,8.69-0.93,12.66c-0.32,1.1,0.32,2.25,1.42,2.57c0.19,0.05,0.38,0.08,0.57,0.08 C473.47-541.9,474.3-542.5,474.57-543.4z M532.74-570.03c0-9.05-4.46-17.51-11.93-22.63c-0.95-0.65-2.24-0.41-2.88,0.54 c-0.65,0.94-0.41,2.23,0.54,2.88c6.34,4.35,10.13,11.53,10.13,19.22c0,1.15,0.93,2.07,2.07,2.07 C531.81-567.96,532.74-568.89,532.74-570.03z M482.03-570.03c0-12.84,10.45-23.28,23.28-23.28c0.8,0,1.61,0.04,2.39,0.12 c1.14,0.12,2.16-0.71,2.27-1.85c0.12-1.14-0.71-2.16-1.85-2.27c-0.93-0.09-1.88-0.14-2.82-0.14c-15.12,0-27.43,12.3-27.43,27.43 c0,1.15,0.93,2.07,2.07,2.07C481.1-567.96,482.03-568.89,482.03-570.03z M481.25-536.52c1.86-4.96,2.8-10.18,2.8-15.52 c0-3.49-0.41-6.96-1.21-10.33c-0.27-1.11-1.39-1.8-2.5-1.53c-1.11,0.27-1.8,1.39-1.53,2.5c0.73,3.05,1.1,6.2,1.1,9.36 c0,4.84-0.85,9.57-2.54,14.06c-0.4,1.07,0.14,2.27,1.21,2.67c0.24,0.09,0.49,0.13,0.73,0.13 C480.15-535.18,480.94-535.69,481.25-536.52z M512-526.34c11.43-7.86,18.77-19.89,20.65-33.86c0.15-1.14-0.64-2.18-1.78-2.33 c-1.14-0.15-2.18,0.64-2.33,1.78c-1.72,12.8-8.43,23.81-18.89,31c-0.94,0.65-1.18,1.94-0.53,2.88c0.4,0.58,1.05,0.9,1.71,0.9 C511.23-525.97,511.64-526.09,512-526.34z M492.24-576.84c2.55-4.89,7.56-7.93,13.08-7.93c3.68,0,7.2,1.36,9.92,3.84 c0.85,0.77,2.16,0.71,2.93-0.14c0.77-0.85,0.71-2.16-0.14-2.93c-3.48-3.17-8-4.92-12.71-4.92c-7.06,0-13.48,3.89-16.75,10.16 c-0.53,1.01-0.14,2.27,0.88,2.8c0.31,0.16,0.63,0.24,0.96,0.24C491.14-575.73,491.87-576.14,492.24-576.84z M491.13-548.21h0.03 c1.13,0,2.07-0.91,2.06-2.04c-0.01-6.31-0.87-12.59-2.54-18.65c-0.36-1.31-1.91-1.98-3.17-1.16c-0.76,0.49-1.04,1.48-0.8,2.35 c1.56,5.66,2.35,11.52,2.37,17.41C489.07-549.14,489.98-548.21,491.13-548.21z M489.09-531.5c1.51-3.32,2.57-6.83,3.16-10.42 c0.19-1.13-0.58-2.2-1.71-2.38c-1.13-0.19-2.2,0.58-2.38,1.71c-0.53,3.23-1.49,6.39-2.85,9.38c-0.47,1.04-0.01,2.27,1.03,2.75 c0.28,0.13,0.57,0.19,0.86,0.19C487.99-530.28,488.74-530.73,489.09-531.5z M525.96-559.16c0.34-5.44-0.39-10.78-2.18-15.88 c-0.38-1.08-1.56-1.65-2.64-1.27c-1.08,0.38-1.65,1.56-1.27,2.64c1.6,4.57,2.26,9.37,1.95,14.25c-0.07,1.14,0.8,2.13,1.94,2.2 c0.04,0,0.09,0,0.13,0C524.98-557.22,525.89-558.06,525.96-559.16z M496.4-528.75c1.05-2.36,1.95-4.81,2.66-7.29 c0.32-1.1-0.32-2.25-1.42-2.57c-1.1-0.32-2.25,0.32-2.57,1.41c-0.66,2.3-1.5,4.57-2.47,6.76c-0.47,1.05,0,2.27,1.05,2.74 c0.27,0.12,0.56,0.18,0.84,0.18C495.3-527.52,496.06-527.98,496.4-528.75z M500.48-542.8c0.53-3.54,0.69-7.15,0.46-10.75 c-0.11-1.71-0.31-3.44-0.59-5.13c-0.19-1.13-1.26-1.89-2.38-1.71c-1.13,0.19-1.89,1.26-1.71,2.39c0.26,1.55,0.44,3.13,0.54,4.71 c0.21,3.31,0.07,6.63-0.42,9.87c-0.17,1.13,0.61,2.19,1.74,2.36c0.11,0.02,0.21,0.02,0.31,0.02 C499.44-541.03,500.32-541.77,500.48-542.8z M518.7-556.65c0-11.18-3.51-24.25-13.39-24.25c-5.99,0-10.86,4.87-10.86,10.86 c0,0.2,0.01,0.41,0.02,0.61c0.06,1.14,1.03,2.02,2.19,1.95c1.14-0.06,2.02-1.04,1.95-2.19c-0.01-0.12-0.01-0.25-0.01-0.37 c0-3.7,3.01-6.72,6.72-6.72c7.31,0,9.25,13.15,9.25,20.1c0,1.15,0.93,2.07,2.07,2.07C517.78-554.58,518.7-555.5,518.7-556.65z M514.57-537.14c1.72-3.86,2.92-7.93,3.57-12.11c0.18-1.13-0.6-2.19-1.73-2.37c-1.13-0.18-2.19,0.6-2.37,1.73 c-0.59,3.81-1.69,7.53-3.26,11.06c-0.47,1.05,0,2.27,1.05,2.74c0.27,0.12,0.56,0.18,0.84,0.18 C513.47-535.91,514.23-536.37,514.57-537.14z" transform="matrix(1, 0, 0, 1, -272.106625, -409.632094)"/>
</svg>