<?xml version="1.0" encoding="UTF-8"?>
<!DOCTYPE svg PUBLIC "-//W3C//DTD SVG 1.1//EN" "http://www.w3.org/Graphics/SVG/1.1/DTD/svg11.dtd">
<svg xmlns="http://www.w3.org/2000/svg" version="1.1" width="752px" height="752px" style="shape-rendering:geometricPrecision; text-rendering:geometricPrecision; image-rendering:optimizeQuality; fill-rule:evenodd; clip-rule:evenodd" xmlns:xlink="http://www.w3.org/1999/xlink">
<g><path style="opacity:0.943" fill="#231273" d="M 186.5,143.5 C 270.5,143.5 354.5,143.5 438.5,143.5C 438.833,156.85 438.499,170.183 437.5,183.5C 429.651,175.817 421.651,168.317 413.5,161C 345.5,160.333 277.5,160.333 209.5,161C 208.584,161.374 207.75,161.874 207,162.5C 205.505,247.085 205.005,331.751 205.5,416.5C 199.167,416.5 192.833,416.5 186.5,416.5C 186.5,325.5 186.5,234.5 186.5,143.5 Z"/></g>
<g><path style="opacity:0.962" fill="#231273" d="M 217.5,172.5 C 280.167,172.5 342.833,172.5 405.5,172.5C 405.178,193.213 405.512,213.879 406.5,234.5C 407.912,235.806 409.579,236.64 411.5,237C 430.83,237.5 450.164,237.667 469.5,237.5C 469.5,279.833 469.5,322.167 469.5,364.5C 458.833,364.5 448.167,364.5 437.5,364.5C 437.673,360.83 436.007,358.33 432.5,357C 388.833,356.333 345.167,356.333 301.5,357C 296.466,359.148 295.299,362.648 298,367.5C 298.75,368.126 299.584,368.626 300.5,369C 317.167,369.333 333.833,369.667 350.5,370C 344.52,376.118 340.187,383.285 337.5,391.5C 324.846,392.333 312.18,392.833 299.5,393C 295.5,396.667 295.5,400.333 299.5,404C 309.849,404.168 320.183,404.668 330.5,405.5C 328.733,408.975 327.067,412.475 325.5,416C 289.502,416.5 253.502,416.667 217.5,416.5C 217.5,335.167 217.5,253.833 217.5,172.5 Z M 275.5,203.5 C 291.874,202.678 301.207,210.344 303.5,226.5C 301.506,239.828 293.839,247.494 280.5,249.5C 262.899,246.275 255.732,235.942 259,218.5C 262.19,210.843 267.69,205.843 275.5,203.5 Z M 336.5,240.5 C 353.17,240.333 369.837,240.5 386.5,241C 391.485,242.65 392.985,245.817 391,250.5C 390.097,251.701 388.931,252.535 387.5,253C 370.5,253.667 353.5,253.667 336.5,253C 329.899,248.838 329.899,244.671 336.5,240.5 Z M 266.5,254.5 C 271.547,253.69 275.214,255.523 277.5,260C 281.798,261.46 284.798,260.126 286.5,256C 288.034,255.077 289.701,254.577 291.5,254.5C 310.485,260.997 319.985,274.33 320,294.5C 318.833,295.667 317.667,296.833 316.5,298C 291.746,298.98 267.079,298.647 242.5,297C 239.911,277.025 247.911,262.858 266.5,254.5 Z M 335.5,263.5 C 366.168,263.333 396.835,263.5 427.5,264C 432.734,267.8 432.734,271.466 427.5,275C 396.5,275.667 365.5,275.667 334.5,275C 330.376,270.695 330.709,266.862 335.5,263.5 Z M 334.5,286.5 C 367.835,286.333 401.168,286.5 434.5,287C 438.704,291.155 438.371,294.822 433.5,298C 400.833,298.667 368.167,298.667 335.5,298C 330.547,294.657 330.214,290.824 334.5,286.5 Z M 268.5,321.5 C 273.959,321.103 279.292,321.603 284.5,323C 287.333,326.663 287,329.996 283.5,333C 278.167,333.667 272.833,333.667 267.5,333C 263.446,328.773 263.78,324.939 268.5,321.5 Z M 300.5,321.5 C 344.835,321.333 389.168,321.5 433.5,322C 438.371,325.178 438.704,328.845 434.5,333C 389.5,333.667 344.5,333.667 299.5,333C 295.307,328.683 295.64,324.85 300.5,321.5 Z M 269.5,356.5 C 274.699,356.014 279.699,356.681 284.5,358.5C 287.644,362.814 286.977,366.314 282.5,369C 277.051,369.896 271.718,369.563 266.5,368C 263.262,363.017 264.262,359.183 269.5,356.5 Z M 268.5,392.5 C 273.511,392.334 278.511,392.501 283.5,393C 287.5,396.667 287.5,400.333 283.5,404C 278.167,404.667 272.833,404.667 267.5,404C 263.307,399.683 263.64,395.85 268.5,392.5 Z"/></g>
<g><path style="opacity:0.915" fill="#231273" d="M 417.5,182.5 C 432.094,195.426 446.094,209.093 459.5,223.5C 445.516,224.499 431.516,224.833 417.5,224.5C 417.5,210.5 417.5,196.5 417.5,182.5 Z"/></g>
<g><path style="opacity:0.895" fill="#231273" d="M 277.5,215.5 C 288.053,215.218 292.22,220.218 290,230.5C 287.081,236.025 282.581,237.858 276.5,236C 270.57,232.634 268.737,227.8 271,221.5C 272.494,218.686 274.66,216.686 277.5,215.5 Z"/></g>
<g><path style="opacity:0.871" fill="#231273" d="M 267.5,267.5 C 276.006,275.419 284.506,275.419 293,267.5C 300.439,271.366 305.272,277.366 307.5,285.5C 289.5,286.833 271.5,286.833 253.5,285.5C 255.614,277.401 260.28,271.401 267.5,267.5 Z"/></g>
<g><path style="opacity:0.916" fill="#231273" d="M 161.5,325.5 C 165.833,325.5 170.167,325.5 174.5,325.5C 174.5,355.833 174.5,386.167 174.5,416.5C 166.918,415.978 159.585,416.978 152.5,419.5C 152.333,391.831 152.5,364.165 153,336.5C 153.945,331.233 156.779,327.566 161.5,325.5 Z"/></g>
<g><path style="opacity:0.981" fill="#231273" d="M 360.5,377.5 C 405.585,377.01 450.585,377.51 495.5,379C 498.106,380.938 499.939,383.438 501,386.5C 501.667,405.5 501.667,424.5 501,443.5C 484.809,448.677 470.975,457.51 459.5,470C 357.167,470.5 254.834,470.667 152.5,470.5C 152.091,459.104 152.591,447.77 154,436.5C 155.99,432.51 159.157,430.01 163.5,429C 219.5,428.667 275.5,428.333 331.5,428C 332.416,427.626 333.25,427.126 334,426.5C 341,411.833 348,397.167 355,382.5C 356.73,380.598 358.563,378.931 360.5,377.5 Z"/></g>
<g><path style="opacity:0.953" fill="#231273" d="M 511.5,453.5 C 545.144,450.075 570.977,462.408 589,490.5C 605.514,525.907 599.68,557.074 571.5,584C 548.259,601.511 522.926,605.177 495.5,595C 459.559,576.615 445.392,547.448 453,507.5C 462.174,478.154 481.674,460.154 511.5,453.5 Z M 519.5,471.5 C 542.208,472.041 553.708,483.708 554,506.5C 559.195,508.358 563.195,511.692 566,516.5C 567.615,530.765 567.948,545.098 567,559.5C 565.664,565.501 562.164,569.668 556.5,572C 536.231,573.631 515.898,573.964 495.5,573C 489.191,571.362 484.691,567.529 482,561.5C 481.333,547.167 481.333,532.833 482,518.5C 484.091,512.366 488.257,508.366 494.5,506.5C 494.047,488.321 502.38,476.654 519.5,471.5 Z M 520.5,526.5 C 531.865,526.028 536.699,531.362 535,542.5C 534.047,544.455 532.713,546.122 531,547.5C 530.9,550.903 530.066,554.07 528.5,557C 520.472,559.318 516.972,556.151 518,547.5C 510.288,539.546 511.121,532.546 520.5,526.5 Z"/></g>
<g><path style="opacity:0.983" fill="#231273" d="M 152.5,482.5 C 251.5,482.5 350.5,482.5 449.5,482.5C 431.221,519.974 435.388,554.64 462,586.5C 470.874,594.689 480.707,601.522 491.5,607C 381.5,607.667 271.5,607.667 161.5,607C 156.664,605.181 153.831,601.681 153,596.5C 152.5,558.501 152.333,520.501 152.5,482.5 Z M 178.5,562.5 C 183.717,561.439 187.05,563.439 188.5,568.5C 186.277,574.64 182.444,575.973 177,572.5C 174.729,568.697 175.229,565.363 178.5,562.5 Z M 204.5,562.5 C 212.744,562.228 215.078,565.728 211.5,573C 206.097,575.88 202.43,574.38 200.5,568.5C 201.361,566.089 202.694,564.089 204.5,562.5 Z M 229.5,562.5 C 234.717,561.439 238.05,563.439 239.5,568.5C 237.277,574.64 233.444,575.973 228,572.5C 225.729,568.697 226.229,565.363 229.5,562.5 Z M 255.5,562.5 C 263.744,562.228 266.078,565.728 262.5,573C 257.097,575.88 253.43,574.38 251.5,568.5C 252.361,566.089 253.694,564.089 255.5,562.5 Z"/></g>
<g><path style="opacity:0.908" fill="#231273" d="M 522.5,483.5 C 536.418,484.76 542.751,492.427 541.5,506.5C 530.167,506.5 518.833,506.5 507.5,506.5C 505.817,494.226 510.817,486.559 522.5,483.5 Z"/></g>
<g><path style="opacity:0.906" fill="#231273" d="M 496.5,518.5 C 515.17,518.333 533.836,518.5 552.5,519C 553.701,519.903 554.535,521.069 555,522.5C 555.959,534.929 555.626,547.263 554,559.5C 553.25,560.126 552.416,560.626 551.5,561C 542.5,561.167 533.5,561.333 524.5,561.5C 514.738,561.642 505.071,561.142 495.5,560C 495,559.5 494.5,559 494,558.5C 493.333,546.167 493.333,533.833 494,521.5C 494.698,520.309 495.531,519.309 496.5,518.5 Z M 520.5,526.5 C 511.121,532.546 510.288,539.546 518,547.5C 516.972,556.151 520.472,559.318 528.5,557C 530.066,554.07 530.9,550.903 531,547.5C 532.713,546.122 534.047,544.455 535,542.5C 536.699,531.362 531.865,526.028 520.5,526.5 Z"/></g>
<g><path style="opacity:0.484" fill="#231273" d="M 522.5,536.5 C 527.833,537.5 527.833,538.5 522.5,539.5C 522.5,538.5 522.5,537.5 522.5,536.5 Z"/></g>
</svg>
