<svg xmlns="http://www.w3.org/2000/svg" version="1.1" xmlns:xlink="http://www.w3.org/1999/xlink" xmlns:svgjs="http://svgjs.dev/svgjs" width="1440" height="560" preserveAspectRatio="none" viewBox="0 0 1440 560"><g mask="url(&quot;#SvgjsMask1326&quot;)" fill="none"><rect width="1440" height="560" x="0" y="0" fill="rgba(255, 255, 255, 1)"></rect><g transform="translate(0, 0)"><path d="M250 280 a20 20 0 1 0 40 0 a20 20 0 1 0 -40 0zM250 230 a20 20 0 1 0 40 0 a20 20 0 1 0 -40 0zM250 330 a20 20 0 1 0 40 0 a20 20 0 1 0 -40 0zM250 180 a20 20 0 1 0 40 0 a20 20 0 1 0 -40 0zM250 380 a20 20 0 1 0 40 0 a20 20 0 1 0 -40 0z" fill="url(&quot;#SvgjsLinearGradient1327&quot;)"></path><path d="M300 280 a20 20 0 1 0 40 0 a20 20 0 1 0 -40 0zM300 230 a20 20 0 1 0 40 0 a20 20 0 1 0 -40 0zM300 330 a20 20 0 1 0 40 0 a20 20 0 1 0 -40 0zM300 180 a20 20 0 1 0 40 0 a20 20 0 1 0 -40 0zM300 380 a20 20 0 1 0 40 0 a20 20 0 1 0 -40 0zM300 130 a20 20 0 1 0 40 0 a20 20 0 1 0 -40 0zM300 430 a20 20 0 1 0 40 0 a20 20 0 1 0 -40 0z" fill="url(&quot;#SvgjsLinearGradient1327&quot;)"></path><path d="M350 280 a20 20 0 1 0 40 0 a20 20 0 1 0 -40 0zM350 230 a20 20 0 1 0 40 0 a20 20 0 1 0 -40 0zM350 330 a20 20 0 1 0 40 0 a20 20 0 1 0 -40 0zM350 180 a20 20 0 1 0 40 0 a20 20 0 1 0 -40 0zM350 380 a20 20 0 1 0 40 0 a20 20 0 1 0 -40 0zM350 130 a20 20 0 1 0 40 0 a20 20 0 1 0 -40 0zM350 430 a20 20 0 1 0 40 0 a20 20 0 1 0 -40 0z" fill="url(&quot;#SvgjsLinearGradient1327&quot;)"></path><path d="M400 280 a20 20 0 1 0 40 0 a20 20 0 1 0 -40 0zM400 230 a20 20 0 1 0 40 0 a20 20 0 1 0 -40 0zM400 330 a20 20 0 1 0 40 0 a20 20 0 1 0 -40 0zM400 180 a20 20 0 1 0 40 0 a20 20 0 1 0 -40 0zM400 380 a20 20 0 1 0 40 0 a20 20 0 1 0 -40 0z" fill="url(&quot;#SvgjsLinearGradient1327&quot;)"></path><path d="M450 280 a20 20 0 1 0 40 0 a20 20 0 1 0 -40 0zM450 230 a20 20 0 1 0 40 0 a20 20 0 1 0 -40 0zM450 330 a20 20 0 1 0 40 0 a20 20 0 1 0 -40 0z" fill="url(&quot;#SvgjsLinearGradient1327&quot;)"></path><path d="M500 280 a20 20 0 1 0 40 0 a20 20 0 1 0 -40 0zM500 230 a20 20 0 1 0 40 0 a20 20 0 1 0 -40 0zM500 330 a20 20 0 1 0 40 0 a20 20 0 1 0 -40 0zM500 180 a20 20 0 1 0 40 0 a20 20 0 1 0 -40 0zM500 380 a20 20 0 1 0 40 0 a20 20 0 1 0 -40 0z" fill="url(&quot;#SvgjsLinearGradient1327&quot;)"></path><path d="M550 280 a20 20 0 1 0 40 0 a20 20 0 1 0 -40 0zM550 230 a20 20 0 1 0 40 0 a20 20 0 1 0 -40 0zM550 330 a20 20 0 1 0 40 0 a20 20 0 1 0 -40 0zM550 180 a20 20 0 1 0 40 0 a20 20 0 1 0 -40 0zM550 380 a20 20 0 1 0 40 0 a20 20 0 1 0 -40 0zM550 130 a20 20 0 1 0 40 0 a20 20 0 1 0 -40 0zM550 430 a20 20 0 1 0 40 0 a20 20 0 1 0 -40 0z" fill="url(&quot;#SvgjsLinearGradient1327&quot;)"></path><path d="M600 280 a20 20 0 1 0 40 0 a20 20 0 1 0 -40 0zM600 230 a20 20 0 1 0 40 0 a20 20 0 1 0 -40 0zM600 330 a20 20 0 1 0 40 0 a20 20 0 1 0 -40 0zM600 180 a20 20 0 1 0 40 0 a20 20 0 1 0 -40 0zM600 380 a20 20 0 1 0 40 0 a20 20 0 1 0 -40 0zM600 130 a20 20 0 1 0 40 0 a20 20 0 1 0 -40 0zM600 430 a20 20 0 1 0 40 0 a20 20 0 1 0 -40 0z" fill="url(&quot;#SvgjsLinearGradient1327&quot;)"></path><path d="M650 280 a20 20 0 1 0 40 0 a20 20 0 1 0 -40 0zM650 230 a20 20 0 1 0 40 0 a20 20 0 1 0 -40 0zM650 330 a20 20 0 1 0 40 0 a20 20 0 1 0 -40 0z" fill="url(&quot;#SvgjsLinearGradient1327&quot;)"></path><path d="M700 280 a20 20 0 1 0 40 0 a20 20 0 1 0 -40 0zM700 230 a20 20 0 1 0 40 0 a20 20 0 1 0 -40 0zM700 330 a20 20 0 1 0 40 0 a20 20 0 1 0 -40 0zM700 180 a20 20 0 1 0 40 0 a20 20 0 1 0 -40 0zM700 380 a20 20 0 1 0 40 0 a20 20 0 1 0 -40 0zM700 130 a20 20 0 1 0 40 0 a20 20 0 1 0 -40 0zM700 430 a20 20 0 1 0 40 0 a20 20 0 1 0 -40 0z" fill="url(&quot;#SvgjsLinearGradient1327&quot;)"></path><path d="M750 280 a20 20 0 1 0 40 0 a20 20 0 1 0 -40 0zM750 230 a20 20 0 1 0 40 0 a20 20 0 1 0 -40 0zM750 330 a20 20 0 1 0 40 0 a20 20 0 1 0 -40 0zM750 180 a20 20 0 1 0 40 0 a20 20 0 1 0 -40 0zM750 380 a20 20 0 1 0 40 0 a20 20 0 1 0 -40 0z" fill="url(&quot;#SvgjsLinearGradient1327&quot;)"></path><path d="M800 280 a20 20 0 1 0 40 0 a20 20 0 1 0 -40 0zM800 230 a20 20 0 1 0 40 0 a20 20 0 1 0 -40 0zM800 330 a20 20 0 1 0 40 0 a20 20 0 1 0 -40 0zM800 180 a20 20 0 1 0 40 0 a20 20 0 1 0 -40 0zM800 380 a20 20 0 1 0 40 0 a20 20 0 1 0 -40 0zM800 130 a20 20 0 1 0 40 0 a20 20 0 1 0 -40 0zM800 430 a20 20 0 1 0 40 0 a20 20 0 1 0 -40 0z" fill="url(&quot;#SvgjsLinearGradient1327&quot;)"></path><path d="M850 280 a20 20 0 1 0 40 0 a20 20 0 1 0 -40 0zM850 230 a20 20 0 1 0 40 0 a20 20 0 1 0 -40 0zM850 330 a20 20 0 1 0 40 0 a20 20 0 1 0 -40 0zM850 180 a20 20 0 1 0 40 0 a20 20 0 1 0 -40 0zM850 380 a20 20 0 1 0 40 0 a20 20 0 1 0 -40 0z" fill="url(&quot;#SvgjsLinearGradient1327&quot;)"></path><path d="M900 280 a20 20 0 1 0 40 0 a20 20 0 1 0 -40 0zM900 230 a20 20 0 1 0 40 0 a20 20 0 1 0 -40 0zM900 330 a20 20 0 1 0 40 0 a20 20 0 1 0 -40 0z" fill="url(&quot;#SvgjsLinearGradient1327&quot;)"></path><path d="M950 280 a20 20 0 1 0 40 0 a20 20 0 1 0 -40 0zM950 230 a20 20 0 1 0 40 0 a20 20 0 1 0 -40 0zM950 330 a20 20 0 1 0 40 0 a20 20 0 1 0 -40 0zM950 180 a20 20 0 1 0 40 0 a20 20 0 1 0 -40 0zM950 380 a20 20 0 1 0 40 0 a20 20 0 1 0 -40 0z" fill="url(&quot;#SvgjsLinearGradient1327&quot;)"></path><path d="M1000 280 a20 20 0 1 0 40 0 a20 20 0 1 0 -40 0zM1000 230 a20 20 0 1 0 40 0 a20 20 0 1 0 -40 0zM1000 330 a20 20 0 1 0 40 0 a20 20 0 1 0 -40 0z" fill="url(&quot;#SvgjsLinearGradient1327&quot;)"></path><path d="M1050 280 a20 20 0 1 0 40 0 a20 20 0 1 0 -40 0zM1050 230 a20 20 0 1 0 40 0 a20 20 0 1 0 -40 0zM1050 330 a20 20 0 1 0 40 0 a20 20 0 1 0 -40 0z" fill="url(&quot;#SvgjsLinearGradient1327&quot;)"></path><path d="M1100 280 a20 20 0 1 0 40 0 a20 20 0 1 0 -40 0zM1100 230 a20 20 0 1 0 40 0 a20 20 0 1 0 -40 0zM1100 330 a20 20 0 1 0 40 0 a20 20 0 1 0 -40 0zM1100 180 a20 20 0 1 0 40 0 a20 20 0 1 0 -40 0zM1100 380 a20 20 0 1 0 40 0 a20 20 0 1 0 -40 0z" fill="url(&quot;#SvgjsLinearGradient1327&quot;)"></path><path d="M1150 280 a20 20 0 1 0 40 0 a20 20 0 1 0 -40 0zM1150 230 a20 20 0 1 0 40 0 a20 20 0 1 0 -40 0zM1150 330 a20 20 0 1 0 40 0 a20 20 0 1 0 -40 0zM1150 180 a20 20 0 1 0 40 0 a20 20 0 1 0 -40 0zM1150 380 a20 20 0 1 0 40 0 a20 20 0 1 0 -40 0z" fill="url(&quot;#SvgjsLinearGradient1327&quot;)"></path></g></g><defs><mask id="SvgjsMask1326"><rect width="1440" height="560" fill="#ffffff"></rect></mask><linearGradient x1="244.8" y1="280" x2="1195.2" y2="280" gradientUnits="userSpaceOnUse" id="SvgjsLinearGradient1327"><stop stop-color="rgba(35, 18, 115, 1)" offset="0"></stop><stop stop-color="rgba(56, 235, 227, 1)" offset="1"></stop></linearGradient><path d="M-20 0 a20 20 0 1 0 40 0 a20 20 0 1 0 -40 0zM-20 50 a20 20 0 1 0 40 0 a20 20 0 1 0 -40 0zM-20 -50 a20 20 0 1 0 40 0 a20 20 0 1 0 -40 0z"></path><path d="M-20 0 a20 20 0 1 0 40 0 a20 20 0 1 0 -40 0zM-20 50 a20 20 0 1 0 40 0 a20 20 0 1 0 -40 0zM-20 -50 a20 20 0 1 0 40 0 a20 20 0 1 0 -40 0zM-20 100 a20 20 0 1 0 40 0 a20 20 0 1 0 -40 0zM-20 -100 a20 20 0 1 0 40 0 a20 20 0 1 0 -40 0z"></path><path d="M-20 0 a20 20 0 1 0 40 0 a20 20 0 1 0 -40 0zM-20 50 a20 20 0 1 0 40 0 a20 20 0 1 0 -40 0zM-20 -50 a20 20 0 1 0 40 0 a20 20 0 1 0 -40 0zM-20 100 a20 20 0 1 0 40 0 a20 20 0 1 0 -40 0zM-20 -100 a20 20 0 1 0 40 0 a20 20 0 1 0 -40 0zM-20 150 a20 20 0 1 0 40 0 a20 20 0 1 0 -40 0zM-20 -150 a20 20 0 1 0 40 0 a20 20 0 1 0 -40 0z"></path></defs></svg>