<?xml version="1.0" encoding="UTF-8"?>
<!DOCTYPE svg PUBLIC "-//W3C//DTD SVG 1.1//EN" "http://www.w3.org/Graphics/SVG/1.1/DTD/svg11.dtd">
<svg version="1.2" width="25.4mm" height="24.89mm" viewBox="0 0 2540 2489" preserveAspectRatio="xMidYMid" fill-rule="evenodd" stroke-width="28.222" stroke-linejoin="round" xmlns="http://www.w3.org/2000/svg" xmlns:ooo="http://xml.openoffice.org/svg/export" xmlns:xlink="http://www.w3.org/1999/xlink" xmlns:presentation="http://sun.com/xmlns/staroffice/presentation" xmlns:smil="http://www.w3.org/2001/SMIL20/" xmlns:anim="urn:oasis:names:tc:opendocument:xmlns:animation:1.0" xmlns:svg="urn:oasis:names:tc:opendocument:xmlns:svg-compatible:1.0" xml:space="preserve">
 <defs class="ClipPathGroup">
  <clipPath id="presentation_clip_path" clipPathUnits="userSpaceOnUse">
   <rect x="0" y="0" width="2540" height="2489"/>
  </clipPath>
  <clipPath id="presentation_clip_path_shrink" clipPathUnits="userSpaceOnUse">
   <rect x="2" y="2" width="2535" height="2485"/>
  </clipPath>
 </defs>
 <defs class="TextShapeIndex">
  <g ooo:slide="id1" ooo:id-list="id3 id4 id5 id6 id7 id8 id9 id10 id11 id12 id13"/>
 </defs>
 <defs class="EmbeddedBulletChars">
  <g id="bullet-char-template-57356" transform="scale(0.00048828125,-0.00048828125)">
   <path d="M 580,1141 L 1163,571 580,0 -4,571 580,1141 Z"/>
  </g>
  <g id="bullet-char-template-57354" transform="scale(0.00048828125,-0.00048828125)">
   <path d="M 8,1128 L 1137,1128 1137,0 8,0 8,1128 Z"/>
  </g>
  <g id="bullet-char-template-10146" transform="scale(0.00048828125,-0.00048828125)">
   <path d="M 174,0 L 602,739 174,1481 1456,739 174,0 Z M 1358,739 L 309,1346 659,739 1358,739 Z"/>
  </g>
  <g id="bullet-char-template-10132" transform="scale(0.00048828125,-0.00048828125)">
   <path d="M 2015,739 L 1276,0 717,0 1260,543 174,543 174,936 1260,936 717,1481 1274,1481 2015,739 Z"/>
  </g>
  <g id="bullet-char-template-10007" transform="scale(0.00048828125,-0.00048828125)">
   <path d="M 0,-2 C -7,14 -16,27 -25,37 L 356,567 C 262,823 215,952 215,954 215,979 228,992 255,992 264,992 276,990 289,987 310,991 331,999 354,1012 L 381,999 492,748 772,1049 836,1024 860,1049 C 881,1039 901,1025 922,1006 886,937 835,863 770,784 769,783 710,716 594,584 L 774,223 C 774,196 753,168 711,139 L 727,119 C 717,90 699,76 672,76 641,76 570,178 457,381 L 164,-76 C 142,-110 111,-127 72,-127 30,-127 9,-110 8,-76 1,-67 -2,-52 -2,-32 -2,-23 -1,-13 0,-2 Z"/>
  </g>
  <g id="bullet-char-template-10004" transform="scale(0.00048828125,-0.00048828125)">
   <path d="M 285,-33 C 182,-33 111,30 74,156 52,228 41,333 41,471 41,549 55,616 82,672 116,743 169,778 240,778 293,778 328,747 346,684 L 369,508 C 377,444 397,411 428,410 L 1163,1116 C 1174,1127 1196,1133 1229,1133 1271,1133 1292,1118 1292,1087 L 1292,965 C 1292,929 1282,901 1262,881 L 442,47 C 390,-6 338,-33 285,-33 Z"/>
  </g>
  <g id="bullet-char-template-9679" transform="scale(0.00048828125,-0.00048828125)">
   <path d="M 813,0 C 632,0 489,54 383,161 276,268 223,411 223,592 223,773 276,916 383,1023 489,1130 632,1184 813,1184 992,1184 1136,1130 1245,1023 1353,916 1407,772 1407,592 1407,412 1353,268 1245,161 1136,54 992,0 813,0 Z"/>
  </g>
  <g id="bullet-char-template-8226" transform="scale(0.00048828125,-0.00048828125)">
   <path d="M 346,457 C 273,457 209,483 155,535 101,586 74,649 74,723 74,796 101,859 155,911 209,963 273,989 346,989 419,989 480,963 531,910 582,859 608,796 608,723 608,648 583,586 532,535 482,483 420,457 346,457 Z"/>
  </g>
  <g id="bullet-char-template-8211" transform="scale(0.00048828125,-0.00048828125)">
   <path d="M -4,459 L 1135,459 1135,606 -4,606 -4,459 Z"/>
  </g>
  <g id="bullet-char-template-61548" transform="scale(0.00048828125,-0.00048828125)">
   <path d="M 173,740 C 173,903 231,1043 346,1159 462,1274 601,1332 765,1332 928,1332 1067,1274 1183,1159 1299,1043 1357,903 1357,740 1357,577 1299,437 1183,322 1067,206 928,148 765,148 601,148 462,206 346,322 231,437 173,577 173,740 Z"/>
  </g>
 </defs>
 <g>
  <g id="id2" class="Master_Slide">
   <g id="bg-id2" class="Background"/>
   <g id="bo-id2" class="BackgroundObjects"/>
  </g>
 </g>
 <g class="SlideGroup">
  <g>
   <g id="container-id1">
    <g id="id1" class="Slide" clip-path="url(#presentation_clip_path)">
     <g class="Page">
      <g class="Group">
       <g class="com.sun.star.drawing.PolyPolygonShape">
        <g id="id3">
         <rect class="BoundingBox" stroke="none" fill="none" x="433" y="478" width="1230" height="1452"/>
         <path fill="rgb(240,240,240)" stroke="none" d="M 542,478 L 1336,478 1336,726 1336,726 1336,728 1336,730 1336,732 1336,734 1337,736 1337,738 1338,740 1339,740 1339,741 1340,743 1342,745 1343,747 1345,748 1346,749 1348,751 1349,752 1351,753 1352,754 1353,754 1354,755 1355,755 1357,756 1359,756 1361,756 1364,757 1366,757 1368,757 1368,757 1662,757 1662,1061 1662,1061 1632,1060 1617,1059 1603,1059 1567,1060 1532,1063 1497,1069 1463,1077 1429,1087 1396,1099 1363,1113 1332,1130 1302,1148 1273,1169 1246,1191 1220,1215 1196,1240 1174,1267 1154,1296 1135,1325 1118,1356 1103,1388 1091,1420 1080,1453 1072,1487 1066,1521 1063,1556 1061,1591 1063,1626 1066,1661 1072,1695 1080,1729 1091,1762 1103,1795 1118,1827 1135,1857 1142,1869 1148,1880 1155,1890 1162,1900 1173,1914 1178,1921 1184,1929 542,1929 542,1929 535,1928 528,1928 521,1927 514,1925 507,1923 501,1921 494,1918 488,1914 482,1911 476,1906 470,1902 465,1897 460,1892 456,1887 452,1881 448,1875 445,1869 442,1862 439,1856 437,1849 436,1842 435,1835 434,1828 434,1821 434,585 434,585 434,578 435,571 436,564 437,557 439,551 442,544 445,538 448,532 452,526 456,520 461,514 465,509 470,505 476,500 482,496 488,493 494,489 501,486 507,484 514,482 521,480 528,479 535,479 542,478 Z"/>
        </g>
       </g>
       <g class="com.sun.star.drawing.PolyPolygonShape">
        <g id="id4">
         <rect class="BoundingBox" stroke="none" fill="none" x="1126" y="1121" width="1088" height="1252"/>
         <path fill="rgb(51,57,60)" stroke="none" d="M 1992,1861 L 1992,1861 1998,1852 2004,1843 2015,1825 2030,1798 2043,1770 2054,1742 2063,1712 2070,1683 2075,1652 2078,1622 2079,1591 2078,1560 2075,1529 2070,1499 2063,1469 2054,1440 2043,1411 2030,1383 2015,1356 1998,1330 1980,1305 1960,1281 1939,1259 1916,1238 1892,1219 1867,1201 1841,1184 1813,1170 1785,1157 1756,1147 1726,1138 1696,1131 1665,1126 1634,1123 1603,1122 1571,1123 1540,1126 1510,1131 1479,1138 1449,1147 1420,1157 1392,1170 1364,1184 1338,1201 1313,1219 1289,1238 1266,1259 1245,1281 1225,1305 1207,1330 1190,1356 1175,1383 1162,1411 1151,1440 1142,1469 1135,1499 1130,1529 1127,1560 1126,1591 1127,1622 1130,1652 1135,1682 1142,1712 1151,1741 1162,1770 1175,1798 1190,1825 1207,1852 1225,1877 1245,1901 1266,1923 1289,1944 1313,1963 1338,1981 1364,1997 1392,2012 1420,2024 1450,2035 1479,2044 1510,2051 1541,2056 1571,2059 1603,2060 1619,2060 1636,2059 1653,2058 1669,2056 1685,2053 1702,2050 1718,2046 1734,2042 1925,2305 1925,2305 1930,2312 1935,2319 1941,2325 1947,2331 1953,2336 1960,2341 1967,2346 1974,2350 1983,2355 1993,2359 2002,2363 2012,2366 2022,2369 2033,2370 2043,2371 2054,2372 2064,2371 2075,2370 2085,2368 2095,2366 2106,2363 2115,2359 2125,2355 2134,2350 2137,2349 2140,2347 2142,2346 2143,2345 2145,2343 2146,2342 2146,2342 2146,2342 2153,2337 2159,2332 2165,2326 2171,2320 2177,2314 2182,2307 2187,2301 2192,2293 2197,2285 2201,2275 2204,2266 2207,2256 2209,2246 2211,2236 2212,2226 2212,2215 2212,2205 2211,2194 2210,2184 2207,2174 2205,2164 2201,2154 2197,2145 2192,2136 2190,2133 2188,2130 2185,2127 2183,2124 1993,1861 1992,1861 Z"/>
        </g>
       </g>
       <g class="com.sun.star.drawing.PolyPolygonShape">
        <g id="id5">
         <rect class="BoundingBox" stroke="none" fill="none" x="1306" y="1298" width="596" height="587"/>
         <path fill="rgb(240,240,240)" stroke="none" d="M 1652,1302 L 1652,1302 1640,1300 1628,1299 1616,1298 1604,1298 1584,1299 1565,1301 1545,1304 1526,1308 1508,1313 1490,1320 1472,1328 1455,1337 1438,1348 1422,1359 1407,1371 1393,1384 1380,1398 1368,1413 1357,1429 1346,1445 1337,1462 1329,1479 1323,1497 1317,1516 1313,1534 1309,1553 1307,1572 1307,1591 1307,1610 1309,1629 1313,1648 1317,1666 1323,1684 1329,1702 1337,1720 1346,1737 1357,1753 1368,1769 1380,1783 1393,1797 1407,1811 1422,1823 1438,1834 1455,1844 1472,1854 1490,1862 1508,1868 1527,1874 1546,1878 1565,1881 1584,1883 1604,1884 1623,1883 1643,1881 1662,1878 1680,1874 1699,1868 1717,1862 1735,1854 1752,1844 1768,1834 1784,1823 1799,1811 1814,1797 1827,1783 1839,1769 1851,1753 1861,1737 1870,1720 1878,1702 1885,1684 1891,1666 1895,1648 1898,1629 1900,1610 1901,1591 1900,1572 1898,1553 1895,1534 1890,1515 1885,1497 1878,1479 1870,1462 1861,1445 1857,1439 1853,1433 1845,1421 1845,1421 1836,1409 1825,1397 1815,1385 1803,1374 1791,1364 1779,1355 1765,1346 1752,1337 1740,1331 1728,1325 1716,1320 1703,1315 1691,1311 1678,1307 1665,1304 1652,1302 Z"/>
        </g>
       </g>
       <g class="com.sun.star.drawing.PolyPolygonShape">
        <g id="id6">
         <rect class="BoundingBox" stroke="none" fill="none" x="1399" y="1452" width="410" height="280"/>
         <path fill="rgb(71,255,166)" stroke="none" d="M 1410,1618 L 1538,1724 1538,1724 1538,1724 1538,1724 1538,1724 1539,1724 1539,1725 1540,1725 1541,1725 1542,1726 1542,1726 1542,1726 1544,1727 1546,1728 1548,1729 1550,1729 1552,1730 1554,1730 1556,1731 1558,1731 1560,1731 1562,1730 1564,1730 1567,1730 1569,1729 1571,1728 1573,1727 1575,1726 1579,1723 1580,1723 1581,1722 1582,1721 1583,1720 1797,1506 1797,1506 1799,1504 1800,1503 1800,1503 1801,1502 1801,1501 1802,1500 1802,1500 1803,1498 1804,1496 1805,1494 1806,1492 1806,1489 1807,1487 1807,1485 1807,1483 1807,1482 1807,1481 1807,1479 1806,1477 1806,1475 1805,1473 1804,1471 1802,1468 1802,1467 1801,1466 1800,1464 1799,1463 1797,1461 1795,1460 1794,1458 1792,1457 1790,1456 1788,1455 1787,1454 1785,1453 1783,1453 1781,1453 1779,1452 1777,1452 1775,1452 1772,1452 1770,1452 1768,1453 1766,1453 1764,1454 1763,1454 1761,1455 1759,1456 1758,1456 1757,1457 1756,1458 1755,1458 1753,1460 1752,1462 1557,1656 1452,1570 1452,1570 1449,1568 1448,1568 1448,1567 1447,1567 1446,1566 1444,1565 1442,1564 1440,1564 1438,1563 1436,1563 1434,1563 1432,1562 1430,1563 1428,1563 1425,1563 1423,1564 1421,1564 1419,1565 1417,1566 1415,1567 1413,1568 1412,1570 1410,1571 1409,1572 1408,1574 1406,1575 1405,1577 1404,1579 1403,1581 1402,1583 1401,1585 1401,1587 1400,1588 1400,1590 1399,1592 1399,1594 1399,1597 1400,1599 1400,1601 1401,1602 1401,1604 1402,1606 1403,1608 1404,1610 1406,1612 1407,1614 1408,1615 1408,1616 1409,1617 1410,1618 Z"/>
        </g>
       </g>
       <g class="com.sun.star.drawing.PolyPolygonShape">
        <g id="id7">
         <rect class="BoundingBox" stroke="none" fill="none" x="647" y="1512" width="387" height="66"/>
         <path fill="rgb(58,58,58)" stroke="none" d="M 679,1577 L 1001,1577 1001,1577 1002,1577 1003,1577 1005,1576 1007,1576 1009,1575 1011,1574 1013,1574 1017,1572 1018,1571 1019,1571 1020,1570 1022,1568 1024,1567 1025,1565 1027,1564 1028,1562 1029,1560 1030,1558 1031,1556 1031,1555 1032,1553 1032,1551 1032,1549 1033,1547 1033,1545 1033,1542 1032,1540 1032,1538 1032,1536 1031,1534 1031,1532 1030,1530 1029,1528 1028,1527 1028,1526 1027,1525 1027,1525 1025,1523 1024,1522 1022,1521 1020,1520 1017,1517 1015,1516 1013,1515 1011,1515 1009,1514 1007,1513 1005,1513 1003,1513 1001,1513 679,1513 679,1513 677,1513 675,1513 673,1513 671,1514 669,1515 667,1515 665,1516 663,1517 660,1520 658,1521 657,1522 655,1523 654,1524 654,1525 653,1525 652,1526 652,1527 651,1528 651,1530 650,1532 649,1534 649,1536 648,1538 648,1540 648,1542 648,1545 648,1547 648,1549 648,1551 649,1553 649,1555 650,1556 651,1558 651,1560 652,1562 654,1564 655,1565 657,1567 658,1568 660,1570 662,1571 663,1572 667,1574 669,1574 671,1575 673,1576 675,1576 677,1577 678,1577 679,1577 Z"/>
        </g>
       </g>
       <g class="com.sun.star.drawing.PolyPolygonShape">
        <g id="id8">
         <rect class="BoundingBox" stroke="none" fill="none" x="647" y="1344" width="415" height="66"/>
         <path fill="rgb(58,58,58)" stroke="none" d="M 679,1408 L 1029,1408 1029,1408 1033,1407 1037,1406 1039,1406 1041,1405 1043,1404 1045,1404 1046,1403 1046,1403 1048,1401 1050,1400 1051,1399 1053,1397 1054,1395 1055,1394 1057,1392 1057,1391 1058,1390 1058,1388 1059,1386 1060,1384 1060,1382 1060,1380 1060,1378 1060,1376 1060,1374 1060,1372 1060,1370 1060,1368 1059,1366 1058,1364 1058,1363 1058,1362 1057,1361 1057,1360 1055,1358 1054,1356 1053,1355 1051,1353 1050,1352 1048,1350 1046,1349 1045,1348 1043,1347 1041,1346 1039,1346 1037,1345 1035,1345 1033,1345 1031,1344 1029,1344 679,1344 679,1344 677,1344 675,1345 674,1345 672,1345 670,1346 668,1346 666,1347 665,1348 663,1349 661,1350 659,1352 658,1353 656,1355 655,1356 654,1358 653,1360 652,1362 651,1364 650,1366 649,1368 649,1370 648,1372 648,1374 648,1376 648,1377 648,1378 648,1380 649,1382 649,1384 650,1386 651,1388 653,1392 654,1394 655,1395 656,1397 658,1399 659,1400 661,1401 663,1403 665,1404 666,1404 668,1405 670,1406 672,1406 675,1407 679,1408 Z"/>
        </g>
       </g>
       <g class="com.sun.star.drawing.PolyPolygonShape">
        <g id="id9">
         <rect class="BoundingBox" stroke="none" fill="none" x="646" y="1176" width="556" height="64"/>
         <path fill="rgb(58,58,58)" stroke="none" d="M 679,1239 L 1168,1239 1168,1239 1171,1239 1173,1239 1175,1239 1177,1238 1179,1238 1181,1237 1182,1236 1184,1235 1186,1234 1188,1233 1189,1232 1191,1230 1192,1229 1194,1227 1195,1225 1196,1224 1197,1222 1198,1220 1199,1218 1200,1216 1200,1214 1201,1212 1201,1210 1201,1208 1201,1206 1201,1204 1200,1202 1200,1200 1199,1198 1198,1195 1197,1193 1196,1192 1195,1190 1194,1188 1192,1187 1191,1185 1189,1184 1188,1182 1186,1181 1184,1180 1182,1179 1181,1178 1179,1177 1177,1177 1175,1177 1173,1176 1171,1176 1168,1176 679,1176 679,1176 677,1176 675,1176 673,1177 671,1177 669,1177 667,1178 665,1179 664,1179 663,1180 662,1181 660,1182 658,1184 656,1185 655,1187 654,1188 652,1190 651,1192 651,1193 650,1195 649,1198 648,1200 647,1202 647,1204 647,1206 647,1208 647,1209 647,1210 647,1212 647,1214 648,1216 649,1218 650,1220 651,1224 652,1225 654,1227 655,1229 656,1230 658,1232 660,1233 662,1234 663,1235 664,1236 665,1236 667,1237 669,1238 671,1238 673,1239 675,1239 677,1239 679,1239 Z"/>
        </g>
       </g>
       <g class="com.sun.star.drawing.PolyPolygonShape">
        <g id="id10">
         <rect class="BoundingBox" stroke="none" fill="none" x="647" y="1006" width="842" height="66"/>
         <path fill="rgb(58,58,58)" stroke="none" d="M 679,1071 L 1455,1071 1455,1071 1456,1071 1458,1071 1460,1071 1462,1070 1464,1070 1466,1070 1468,1069 1470,1068 1471,1068 1472,1067 1473,1066 1475,1065 1477,1063 1478,1062 1480,1060 1481,1059 1482,1057 1484,1055 1484,1054 1485,1053 1485,1052 1485,1051 1486,1049 1486,1047 1487,1045 1487,1043 1487,1041 1487,1039 1487,1037 1487,1035 1487,1033 1486,1031 1486,1029 1485,1027 1485,1025 1484,1024 1484,1023 1482,1022 1481,1020 1480,1018 1478,1017 1477,1015 1475,1014 1473,1012 1472,1012 1472,1011 1468,1010 1466,1009 1464,1008 1462,1008 1460,1007 1458,1007 1457,1007 1456,1007 1455,1007 679,1007 679,1007 675,1008 672,1009 670,1009 668,1010 666,1011 665,1011 663,1012 661,1014 659,1015 658,1017 656,1018 655,1020 654,1022 653,1023 651,1027 650,1029 649,1031 649,1033 648,1035 648,1037 648,1038 648,1039 648,1041 648,1043 649,1045 649,1047 650,1049 651,1051 652,1053 653,1055 654,1057 655,1059 656,1060 658,1062 659,1063 661,1065 663,1066 665,1067 666,1068 668,1069 670,1070 672,1070 674,1070 675,1071 677,1071 679,1071 Z"/>
        </g>
       </g>
       <g class="com.sun.star.drawing.PolyPolygonShape">
        <g id="id11">
         <rect class="BoundingBox" stroke="none" fill="none" x="646" y="838" width="451" height="66"/>
         <path fill="rgb(58,58,58)" stroke="none" d="M 679,902 L 1063,902 1063,902 1065,902 1066,902 1069,902 1071,902 1073,901 1075,901 1077,900 1077,899 1078,899 1080,898 1082,896 1084,895 1085,894 1087,892 1088,890 1089,889 1090,887 1091,885 1092,883 1093,881 1094,879 1094,877 1095,875 1095,873 1095,870 1095,869 1095,868 1095,866 1094,865 1094,863 1093,861 1092,859 1090,855 1089,853 1088,852 1087,850 1085,848 1084,847 1082,845 1080,844 1078,843 1074,841 1072,841 1070,840 1068,839 1066,839 1065,839 1064,839 1063,838 679,838 679,838 678,839 677,839 675,839 673,839 671,840 669,841 667,841 663,843 662,844 660,845 658,847 657,848 655,850 654,852 652,853 651,855 650,859 649,861 648,863 647,865 647,866 647,868 647,869 647,870 647,873 647,875 647,877 648,879 649,881 650,883 651,885 651,887 652,889 654,890 655,892 656,894 658,895 660,896 662,898 663,899 664,899 665,900 667,901 669,901 671,902 673,902 675,902 677,902 679,902 Z"/>
        </g>
       </g>
       <g class="com.sun.star.drawing.PolyPolygonShape">
        <g id="id12">
         <rect class="BoundingBox" stroke="none" fill="none" x="1399" y="505" width="227" height="190"/>
         <path fill="rgb(240,240,240)" stroke="none" d="M 1399,506 L 1399,694 1624,694 1399,506 Z"/>
        </g>
       </g>
       <g class="com.sun.star.drawing.PolyPolygonShape">
        <g id="id13">
         <rect class="BoundingBox" stroke="none" fill="none" x="615" y="263" width="1231" height="853"/>
         <path fill="rgb(212,212,212)" stroke="none" d="M 725,264 L 725,264 718,264 710,265 703,266 696,268 689,270 682,272 676,275 669,278 664,282 658,286 652,290 647,295 642,301 638,306 634,312 630,318 626,324 624,331 621,337 619,344 617,351 616,358 616,365 615,372 615,414 1391,414 1726,696 1726,1072 1726,1072 1757,1080 1787,1090 1816,1101 1830,1108 1844,1115 1844,372 1844,372 1844,365 1843,357 1842,351 1840,344 1838,337 1836,330 1833,324 1830,318 1826,312 1822,306 1817,301 1812,296 1807,291 1801,287 1795,283 1789,279 1783,276 1776,273 1770,271 1763,268 1756,266 1749,265 1742,264 1735,264 725,264 Z"/>
        </g>
       </g>
      </g>
     </g>
    </g>
   </g>
  </g>
 </g>
</svg>