<?xml version="1.0" encoding="UTF-8"?>
<!DOCTYPE svg PUBLIC "-//W3C//DTD SVG 1.1//EN" "http://www.w3.org/Graphics/SVG/1.1/DTD/svg11.dtd">
<svg version="1.2" width="26.93mm" height="24.64mm" viewBox="0 0 2693 2464" preserveAspectRatio="xMidYMid" fill-rule="evenodd" stroke-width="28.222" stroke-linejoin="round" xmlns="http://www.w3.org/2000/svg" xmlns:ooo="http://xml.openoffice.org/svg/export" xmlns:xlink="http://www.w3.org/1999/xlink" xmlns:presentation="http://sun.com/xmlns/staroffice/presentation" xmlns:smil="http://www.w3.org/2001/SMIL20/" xmlns:anim="urn:oasis:names:tc:opendocument:xmlns:animation:1.0" xmlns:svg="urn:oasis:names:tc:opendocument:xmlns:svg-compatible:1.0" xml:space="preserve">
 <defs class="ClipPathGroup">
  <clipPath id="presentation_clip_path" clipPathUnits="userSpaceOnUse">
   <rect x="0" y="0" width="2693" height="2464"/>
  </clipPath>
  <clipPath id="presentation_clip_path_shrink" clipPathUnits="userSpaceOnUse">
   <rect x="2" y="2" width="2688" height="2460"/>
  </clipPath>
 </defs>
 <defs class="TextShapeIndex">
  <g ooo:slide="id1" ooo:id-list="id3"/>
 </defs>
 <defs class="EmbeddedBulletChars">
  <g id="bullet-char-template-57356" transform="scale(0.00048828125,-0.00048828125)">
   <path d="M 580,1141 L 1163,571 580,0 -4,571 580,1141 Z"/>
  </g>
  <g id="bullet-char-template-57354" transform="scale(0.00048828125,-0.00048828125)">
   <path d="M 8,1128 L 1137,1128 1137,0 8,0 8,1128 Z"/>
  </g>
  <g id="bullet-char-template-10146" transform="scale(0.00048828125,-0.00048828125)">
   <path d="M 174,0 L 602,739 174,1481 1456,739 174,0 Z M 1358,739 L 309,1346 659,739 1358,739 Z"/>
  </g>
  <g id="bullet-char-template-10132" transform="scale(0.00048828125,-0.00048828125)">
   <path d="M 2015,739 L 1276,0 717,0 1260,543 174,543 174,936 1260,936 717,1481 1274,1481 2015,739 Z"/>
  </g>
  <g id="bullet-char-template-10007" transform="scale(0.00048828125,-0.00048828125)">
   <path d="M 0,-2 C -7,14 -16,27 -25,37 L 356,567 C 262,823 215,952 215,954 215,979 228,992 255,992 264,992 276,990 289,987 310,991 331,999 354,1012 L 381,999 492,748 772,1049 836,1024 860,1049 C 881,1039 901,1025 922,1006 886,937 835,863 770,784 769,783 710,716 594,584 L 774,223 C 774,196 753,168 711,139 L 727,119 C 717,90 699,76 672,76 641,76 570,178 457,381 L 164,-76 C 142,-110 111,-127 72,-127 30,-127 9,-110 8,-76 1,-67 -2,-52 -2,-32 -2,-23 -1,-13 0,-2 Z"/>
  </g>
  <g id="bullet-char-template-10004" transform="scale(0.00048828125,-0.00048828125)">
   <path d="M 285,-33 C 182,-33 111,30 74,156 52,228 41,333 41,471 41,549 55,616 82,672 116,743 169,778 240,778 293,778 328,747 346,684 L 369,508 C 377,444 397,411 428,410 L 1163,1116 C 1174,1127 1196,1133 1229,1133 1271,1133 1292,1118 1292,1087 L 1292,965 C 1292,929 1282,901 1262,881 L 442,47 C 390,-6 338,-33 285,-33 Z"/>
  </g>
  <g id="bullet-char-template-9679" transform="scale(0.00048828125,-0.00048828125)">
   <path d="M 813,0 C 632,0 489,54 383,161 276,268 223,411 223,592 223,773 276,916 383,1023 489,1130 632,1184 813,1184 992,1184 1136,1130 1245,1023 1353,916 1407,772 1407,592 1407,412 1353,268 1245,161 1136,54 992,0 813,0 Z"/>
  </g>
  <g id="bullet-char-template-8226" transform="scale(0.00048828125,-0.00048828125)">
   <path d="M 346,457 C 273,457 209,483 155,535 101,586 74,649 74,723 74,796 101,859 155,911 209,963 273,989 346,989 419,989 480,963 531,910 582,859 608,796 608,723 608,648 583,586 532,535 482,483 420,457 346,457 Z"/>
  </g>
  <g id="bullet-char-template-8211" transform="scale(0.00048828125,-0.00048828125)">
   <path d="M -4,459 L 1135,459 1135,606 -4,606 -4,459 Z"/>
  </g>
  <g id="bullet-char-template-61548" transform="scale(0.00048828125,-0.00048828125)">
   <path d="M 173,740 C 173,903 231,1043 346,1159 462,1274 601,1332 765,1332 928,1332 1067,1274 1183,1159 1299,1043 1357,903 1357,740 1357,577 1299,437 1183,322 1067,206 928,148 765,148 601,148 462,206 346,322 231,437 173,577 173,740 Z"/>
  </g>
 </defs>
 <g>
  <g id="id2" class="Master_Slide">
   <g id="bg-id2" class="Background"/>
   <g id="bo-id2" class="BackgroundObjects"/>
  </g>
 </g>
 <g class="SlideGroup">
  <g>
   <g id="container-id1">
    <g id="id1" class="Slide" clip-path="url(#presentation_clip_path)">
     <g class="Page">
      <g class="Group">
       <g class="com.sun.star.drawing.PolyPolygonShape">
        <g id="id3">
         <rect class="BoundingBox" stroke="none" fill="none" x="135" y="252" width="2487" height="2001"/>
         <path fill="rgb(48,76,106)" stroke="none" d="M 1195,1988 L 1202,1982 1211,1975 1230,1956 1252,1935 1275,1915 1286,1906 1298,1898 1310,1892 1322,1888 1328,1887 1333,1887 1339,1887 1344,1888 1347,1889 1353,1892 1358,1895 1363,1899 1371,1908 1377,1917 1379,1922 1381,1926 1383,1930 1384,1934 1384,1938 1385,1942 1384,1946 1384,1950 1382,1958 1379,1966 1376,1973 1371,1981 1361,1995 1342,2024 1338,2031 1335,2037 1333,2043 1331,2049 1330,2055 1330,2061 1331,2067 1332,2072 1334,2078 1336,2083 1338,2088 1342,2092 1345,2097 1347,2101 1351,2104 1356,2108 1361,2111 1366,2113 1371,2116 1376,2117 1382,2118 1387,2119 1393,2119 1399,2119 1404,2118 1410,2116 1415,2114 1420,2111 1426,2107 1430,2103 1435,2098 1439,2092 1459,2061 1468,2046 1474,2039 1479,2033 1485,2028 1492,2023 1495,2021 1499,2020 1503,2019 1507,2018 1511,2017 1516,2017 1520,2017 1525,2018 1536,2021 1547,2025 1556,2030 1563,2034 1570,2039 1575,2045 1579,2050 1582,2056 1584,2061 1585,2067 1586,2074 1586,2080 1584,2093 1581,2106 1577,2120 1569,2147 1566,2160 1564,2173 1564,2180 1565,2186 1567,2192 1569,2198 1572,2203 1576,2208 1581,2214 1587,2218 1595,2223 1603,2227 1611,2230 1619,2232 1626,2232 1634,2232 1641,2231 1648,2229 1654,2226 1660,2222 1666,2217 1671,2211 1675,2204 1679,2197 1683,2188 1685,2179 1693,2143 1697,2126 1700,2118 1703,2110 1707,2103 1712,2097 1714,2094 1717,2092 1720,2089 1724,2087 1728,2085 1732,2084 1741,2081 1751,2080 1763,2080 1775,2082 1786,2085 1794,2088 1798,2090 1802,2093 1805,2095 1808,2098 1810,2101 1812,2104 1816,2111 1819,2119 1821,2127 1822,2136 1824,2154 1826,2191 1828,2201 1830,2209 1833,2217 1836,2224 1840,2230 1845,2236 1851,2241 1856,2245 1863,2248 1870,2250 1877,2251 1884,2251 1892,2251 1900,2249 1909,2246 1917,2242 1924,2238 1930,2234 1935,2229 1939,2224 1942,2219 1944,2213 1946,2207 1947,2201 1947,2188 1946,2175 1942,2147 1940,2133 1939,2119 1939,2106 1940,2100 1942,2094 1944,2088 1947,2083 1951,2078 1956,2073 1962,2069 1969,2065 1977,2061 1986,2058 1998,2056 2009,2055 2014,2055 2018,2055 2023,2056 2027,2057 2031,2059 2034,2061 2038,2063 2041,2065 2047,2070 2052,2076 2057,2083 2061,2091 2068,2107 2082,2140 2086,2147 2090,2153 2094,2158 2098,2162 2103,2166 2108,2169 2114,2171 2119,2173 2124,2174 2130,2175 2136,2175 2141,2175 2147,2174 2152,2173 2158,2171 2163,2169 2168,2166 2173,2163 2177,2160 2182,2156 2185,2152 2189,2147 2192,2142 2194,2137 2196,2132 2198,2126 2198,2120 2199,2114 2198,2108 2197,2102 2195,2095 2192,2088 2174,2056 2166,2040 2163,2032 2160,2024 2158,2016 2158,2008 2158,2004 2158,2000 2159,1996 2161,1992 2162,1989 2164,1985 2167,1981 2170,1977 2177,1969 2187,1961 2198,1955 2207,1950 2216,1947 2221,1947 2225,1946 2229,1946 2233,1947 2237,1948 2241,1949 2248,1952 2255,1956 2262,1961 2269,1966 2281,1979 2306,2005 2312,2010 2317,2014 2323,2018 2329,2020 2335,2022 2340,2023 2346,2024 2352,2023 2358,2023 2363,2022 2368,2020 2374,2018 2378,2015 2383,2012 2388,2008 2392,2004 2396,2000 2399,1996 2402,1991 2405,1986 2407,1981 2408,1975 2409,1970 2410,1964 2410,1959 2409,1953 2408,1947 2406,1941 2404,1936 2400,1930 2396,1925 2391,1919 2364,1895 2350,1883 2345,1876 2339,1870 2335,1863 2332,1856 2331,1852 2330,1848 2329,1844 2329,1840 2329,1835 2330,1831 2331,1827 2332,1822 2337,1812 2343,1801 2351,1792 2358,1784 2366,1778 2370,1776 2374,1774 2378,1773 2382,1772 2386,1771 2390,1771 2397,1771 2405,1773 2414,1775 2422,1778 2438,1786 2470,1802 2477,1805 2483,1807 2490,1808 2496,1809 2502,1808 2508,1807 2514,1806 2519,1804 2524,1801 2529,1798 2533,1794 2537,1791 2541,1786 2544,1782 2547,1777 2550,1772 2552,1766 2554,1761 2555,1755 2556,1750 2556,1744 2556,1738 2555,1733 2553,1727 2551,1722 2549,1717 2546,1712 2542,1707 2537,1703 2532,1699 2527,1695 2520,1691 2504,1685 2487,1679 2471,1672 2464,1669 2457,1665 2451,1660 2445,1655 2442,1652 2440,1649 2438,1645 2437,1642 2435,1638 2434,1634 2433,1624 2433,1614 2434,1603 2437,1590 2441,1579 2444,1575 2446,1571 2449,1567 2452,1564 2455,1561 2459,1558 2462,1556 2466,1555 2474,1552 2482,1550 2490,1549 2499,1549 2518,1551 2555,1556 2562,1556 2569,1555 2576,1554 2582,1552 2587,1550 2592,1547 2597,1544 2601,1540 2605,1536 2609,1531 2612,1527 2614,1521 2616,1516 2618,1511 2619,1505 2620,1500 2620,1494 2619,1488 2619,1483 2617,1477 2616,1472 2614,1466 2611,1462 2608,1457 2604,1452 2600,1448 2595,1445 2590,1442 2584,1439 2578,1437 2571,1435 2564,1435 2527,1433 2509,1432 2500,1431 2492,1429 2484,1426 2477,1423 2473,1421 2470,1418 2467,1415 2464,1412 2462,1409 2459,1405 2457,1400 2455,1396 2453,1385 2451,1373 2451,1363 2452,1354 2453,1347 2455,1340 2458,1334 2461,1328 2466,1324 2470,1320 2475,1316 2481,1313 2493,1308 2506,1304 2520,1301 2547,1294 2560,1290 2572,1285 2578,1282 2583,1278 2587,1274 2591,1269 2595,1263 2598,1257 2600,1250 2601,1242 2601,1237 2602,1233 2601,1231 2601,1226 2600,1222 2599,1218 2598,1214 2597,1210 2595,1206 2593,1202 2591,1198 2588,1195 2585,1192 2582,1189 2579,1186 2575,1184 2569,1180 2564,1178 2558,1176 2552,1175 2546,1175 2540,1175 2528,1176 2516,1179 2504,1183 2481,1192 2469,1196 2457,1198 2446,1200 2440,1200 2435,1199 2430,1198 2424,1196 2419,1193 2414,1190 2409,1186 2404,1181 2400,1175 2395,1168 2389,1156 2385,1145 2384,1140 2383,1135 2382,1131 2383,1126 2383,1122 2384,1118 2385,1114 2387,1110 2391,1103 2396,1096 2402,1089 2409,1084 2424,1072 2456,1052 2462,1047 2467,1042 2471,1037 2474,1032 2477,1027 2479,1021 2481,1016 2482,1010 2482,1004 2482,999 2481,993 2479,988 2477,982 2475,977 2472,972 2469,967 2466,963 2462,959 2458,955 2453,952 2448,949 2443,946 2438,944 2433,943 2427,942 2421,941 2415,942 2409,942 2403,944 2397,947 2391,950 2385,954 2343,988 2337,992 2331,995 2325,997 2319,999 2313,1000 2306,1000 2299,999 2291,998 2287,996 2283,994 2279,992 2275,990 2271,988 2268,985 2264,983 2261,980 2257,975 2253,971 2250,967 2247,962 2244,958 2242,954 2241,950 2240,946 2239,942 2239,938 2239,934 2239,930 2240,926 2241,922 2242,918 2243,915 2246,910 2248,906 2253,898 2259,889 2264,881 2275,868 2279,861 2284,855 2288,849 2291,842 2293,836 2295,830 2295,824 2295,818 2295,812 2294,807 2292,801 2290,796 2287,791 2284,787 2281,782 2277,778 2272,774 2268,771 2263,768 2258,765 2253,763 2247,761 2242,760 2236,760 2231,759 2225,760 2220,761 2214,763 2209,765 2203,768 2198,771 2193,776 2189,781 2184,787 2166,816 2161,822 2155,827 2149,831 2142,834 2136,836 2129,837 2123,837 2116,837 2109,835 2103,832 2096,829 2090,824 2083,819 2077,812 2072,805 2066,797 2060,785 2056,774 2055,769 2054,764 2054,759 2054,755 2054,750 2055,746 2057,742 2058,738 2062,731 2067,725 2074,718 2081,712 2096,701 2127,681 2133,676 2138,671 2142,666 2146,661 2149,656 2151,650 2152,645 2153,639 2154,633 2153,628 2152,622 2151,616 2149,611 2147,606 2144,601 2141,596 2138,592 2134,587 2130,584 2125,580 2120,577 2115,574 2110,572 2104,571 2099,570 2093,569 2087,570 2081,571 2075,572 2069,575 2062,578 2056,582 2046,590 2035,599 2025,608 2014,616 2008,620 2002,623 1996,625 1990,627 1983,628 1976,628 1969,628 1961,626 1957,625 1953,623 1949,621 1946,619 1942,617 1938,614 1935,612 1931,609 1923,600 1917,591 1913,582 1911,578 1910,574 1910,569 1909,565 1909,561 1910,557 1912,549 1914,542 1918,534 1923,527 1933,512 1955,483 1959,477 1962,470 1964,464 1966,458 1967,452 1967,446 1966,441 1965,435 1963,430 1961,424 1958,419 1955,415 1952,410 1948,406 1943,402 1939,399 1934,396 1929,393 1924,391 1918,389 1913,388 1907,387 1902,387 1896,388 1890,388 1885,390 1879,392 1874,395 1869,399 1864,403 1859,408 1854,414 1836,445 1826,460 1821,467 1815,473 1809,479 1802,483 1799,485 1795,487 1791,488 1787,489 1783,489 1778,490 1774,489 1769,489 1758,486 1746,482 1735,476 1727,470 1723,467 1720,463 1717,460 1715,456 1713,453 1711,449 1710,445 1709,441 1708,433 1708,425 1709,417 1710,408 1715,391 1725,356 1727,349 1728,342 1728,335 1727,329 1726,323 1724,317 1721,312 1718,307 1715,303 1711,299 1707,295 1702,292 1697,289 1692,286 1687,284 1682,282 1676,281 1670,281 1665,280 1659,281 1653,281 1648,283 1643,284 1638,287 1633,290 1628,293 1624,297 1620,302 1616,307 1613,313 1610,319 1608,326 1601,362 1597,380 1594,388 1591,396 1587,403 1582,410 1579,412 1576,415 1573,418 1570,420 1566,422 1562,423 1552,426 1542,427 1529,427 1517,425 1507,423 1502,421 1498,419 1494,417 1491,414 1488,411 1485,408 1482,405 1480,402 1476,395 1474,387 1472,379 1470,370 1469,352 1466,316 1466,316 1466,316 1465,306 1462,297 1459,289 1455,281 1450,275 1445,269 1439,264 1433,260 1426,257 1418,255 1411,253 1403,253 1395,255 1386,257 1378,260 1370,265 1364,269 1359,274 1355,279 1351,284 1349,290 1347,295 1346,301 1346,308 1346,321 1347,334 1351,362 1353,376 1353,389 1353,402 1352,408 1350,414 1347,420 1346,425 1342,430 1338,434 1332,439 1325,442 1317,446 1309,449 1296,452 1286,453 1281,452 1276,452 1272,451 1268,450 1264,448 1260,447 1257,445 1254,442 1248,437 1242,431 1238,424 1234,416 1226,400 1212,366 1208,359 1204,354 1200,349 1195,344 1191,341 1186,338 1180,335 1175,334 1169,332 1164,332 1158,331 1152,332 1147,333 1141,334 1136,336 1131,338 1126,341 1121,344 1117,347 1112,351 1109,355 1105,360 1102,365 1100,370 1098,375 1097,381 1096,387 1096,393 1096,399 1098,405 1100,412 1103,419 1120,451 1128,467 1131,475 1133,483 1135,491 1136,499 1135,503 1135,507 1134,511 1133,515 1131,519 1129,523 1127,527 1124,531 1116,538 1107,546 1096,553 1087,557 1082,559 1077,560 1073,561 1069,561 1065,561 1061,561 1057,560 1053,559 1046,556 1039,552 1032,547 1025,541 1013,529 988,502 982,497 976,493 971,489 965,487 959,485 953,484 948,483 942,483 936,484 931,485 925,487 920,489 915,492 910,495 906,499 902,503 898,507 894,511 891,516 889,521 887,526 885,532 884,537 883,543 883,549 884,555 885,561 887,566 890,572 893,578 898,583 903,589 930,613 943,625 949,632 954,638 958,645 962,653 963,656 964,660 964,664 964,669 964,673 964,677 963,682 961,686 957,696 951,707 943,717 935,724 932,727 928,730 924,732 920,734 916,735 912,736 908,737 904,737 896,737 888,735 880,733 872,730 855,722 823,706 816,703 809,701 803,700 797,700 791,700 785,701 779,702 774,704 769,707 764,710 760,714 756,717 752,722 749,726 746,731 743,736 741,741 739,747 738,752 737,758 737,764 737,769 738,775 739,780 741,786 744,791 747,796 751,801 755,805 760,810 766,813 773,817 773,817 776,818 780,820 783,822 787,825 790,827 792,830 795,833 797,836 799,840 801,843 802,847 803,850 804,854 804,858 804,862 804,866 801,875 799,883 797,887 796,891 794,895 791,898 789,902 786,905 782,908 778,910 773,912 768,914 762,916 756,918 747,919 743,918 739,918 736,917 732,916 729,915 726,914 723,912 721,910 716,905 712,900 708,894 705,887 702,880 697,866 689,836 687,830 685,825 682,820 679,816 676,813 672,809 668,807 664,804 660,803 655,801 651,800 646,800 642,800 637,800 632,801 628,802 623,803 619,805 615,807 611,809 607,812 604,815 601,819 598,823 595,827 594,831 592,836 591,841 591,846 591,851 591,857 593,863 602,891 606,906 608,913 609,920 609,926 608,933 607,936 606,939 605,942 603,945 602,948 599,951 597,954 594,957 587,962 578,967 568,971 560,973 556,973 552,974 548,974 545,973 542,973 538,972 535,970 532,969 527,965 522,961 517,956 512,950 504,938 488,913 484,908 480,904 476,900 472,898 467,895 463,893 458,892 453,892 449,891 444,892 439,892 435,893 430,895 426,897 422,899 418,902 414,904 411,908 408,911 405,915 402,919 400,923 398,927 397,932 396,936 396,941 396,946 397,951 398,956 400,961 403,966 406,971 425,995 433,1007 437,1013 440,1019 443,1025 445,1032 445,1035 445,1038 445,1041 445,1045 444,1048 443,1052 441,1055 439,1059 434,1066 428,1074 420,1081 413,1086 409,1088 406,1089 402,1091 399,1092 396,1092 392,1092 389,1092 386,1092 379,1090 373,1088 367,1085 360,1081 348,1073 324,1055 319,1051 314,1049 309,1047 304,1046 299,1045 294,1045 289,1045 285,1046 280,1048 276,1049 272,1052 268,1054 264,1057 261,1060 258,1064 255,1068 253,1072 250,1076 249,1080 247,1084 246,1089 246,1094 246,1098 246,1103 247,1108 248,1112 250,1117 252,1121 255,1125 259,1129 263,1133 268,1137 293,1153 306,1161 311,1165 316,1170 321,1175 324,1180 326,1183 327,1186 328,1190 329,1193 329,1196 329,1200 329,1204 329,1208 327,1216 323,1226 318,1233 313,1240 310,1243 308,1246 305,1248 302,1250 299,1252 296,1253 293,1254 289,1255 283,1256 276,1256 269,1255 262,1254 248,1250 219,1241 213,1239 207,1239 202,1239 197,1239 192,1241 187,1242 183,1244 179,1247 175,1249 172,1253 169,1256 166,1260 164,1264 162,1268 160,1272 158,1277 157,1281 157,1286 157,1291 157,1295 157,1300 159,1304 160,1309 162,1313 164,1317 167,1321 170,1325 174,1328 178,1331 183,1334 188,1336 194,1338 223,1344 238,1347 244,1349 251,1352 257,1355 262,1358 264,1361 267,1363 269,1366 271,1369 272,1372 274,1375 276,1383 277,1391 277,1402 276,1410 275,1417 273,1423 270,1429 267,1434 264,1438 260,1441 255,1444 251,1446 246,1448 235,1451 224,1452 212,1453 188,1454 177,1455 166,1458 161,1459 157,1462 152,1465 149,1468 145,1472 142,1477 140,1482 138,1489 137,1496 136,1503 136,1510 137,1516 139,1522 141,1528 144,1533 148,1538 152,1542 157,1545 162,1548 167,1551 174,1552 180,1554 187,1554 195,1554 223,1549 237,1547 243,1547 250,1547 256,1547 262,1548 268,1551 271,1552 274,1554 276,1556 279,1558 284,1564 288,1570 292,1579 296,1589 298,1599 298,1603 298,1607 298,1611 297,1615 296,1619 295,1622 294,1625 292,1628 290,1631 287,1633 282,1638 276,1642 270,1646 255,1653 226,1665 221,1668 216,1672 212,1675 208,1679 205,1683 202,1687 200,1691 199,1696 198,1700 197,1705 197,1710 197,1714 198,1719 199,1724 201,1728 202,1732 205,1736 207,1740 210,1744 213,1748 217,1751 220,1754 224,1756 228,1758 233,1760 238,1761 242,1762 247,1762 253,1761 258,1760 263,1759 269,1756 295,1742 308,1735 315,1733 321,1730 328,1729 334,1728 338,1728 341,1729 344,1729 347,1730 350,1732 354,1733 357,1735 360,1738 366,1744 373,1751 379,1760 382,1768 385,1776 386,1780 386,1783 386,1787 385,1790 385,1793 384,1796 381,1803 378,1808 374,1814 369,1819 359,1830 337,1850 333,1855 329,1860 327,1864 325,1869 323,1874 322,1879 322,1884 322,1888 322,1893 323,1898 325,1902 327,1906 329,1910 331,1914 334,1918 338,1922 341,1925 345,1928 349,1930 353,1932 357,1934 362,1935 366,1936 371,1937 375,1937 380,1936 385,1935 390,1934 394,1932 399,1929 403,1925 408,1921 428,1899 438,1888 443,1883 449,1879 454,1875 460,1872 464,1871 467,1870 470,1870 474,1870 477,1870 481,1870 485,1871 489,1873 497,1876 506,1881 514,1888 520,1894 522,1897 524,1900 526,1904 528,1907 529,1910 529,1913 530,1917 530,1920 530,1927 528,1933 526,1940 524,1947 517,1960 504,1987 502,1993 500,1998 499,2004 499,2009 499,2014 500,2019 501,2023 503,2028 505,2032 508,2036 510,2039 514,2043 517,2046 521,2048 525,2051 529,2053 533,2055 538,2056 542,2057 547,2058 552,2058 556,2058 561,2057 565,2056 570,2054 574,2052 578,2049 582,2046 586,2043 589,2038 592,2034 595,2028 606,2001 612,1987 615,1981 619,1975 623,1969 628,1965 630,1963 633,1961 636,1959 639,1958 643,1957 646,1956 650,1956 654,1956 663,1956 673,1958 680,1961 687,1963 692,1966 697,1970 701,1973 705,1977 707,1982 709,1986 711,1991 712,1996 713,2007 713,2017 711,2029 709,2052 708,2063 708,2073 709,2078 710,2083 711,2088 713,2092 716,2097 719,2100 723,2104 728,2107 735,2111 742,2114 749,2116 756,2117 763,2117 769,2116 775,2114 781,2112 787,2108 791,2104 796,2099 799,2093 803,2087 805,2080 807,2073 808,2064 809,2034 810,2019 811,2012 812,2005 814,1999 817,1994 819,1991 821,1988 823,1986 826,1984 829,1982 832,1980 839,1977 847,1975 857,1973 867,1973 875,1973 883,1975 886,1976 889,1978 892,1979 895,1981 897,1983 900,1985 904,1990 907,1996 910,2002 912,2009 916,2023 923,2052 925,2060 928,2068 932,2074 937,2080 942,2085 947,2089 952,2092 958,2094 964,2096 971,2096 977,2096 984,2095 990,2092 997,2089 1003,2085 1010,2079 1014,2075 1017,2071 1019,2066 1021,2062 1022,2057 1023,2052 1023,2047 1023,2042 1021,2031 1018,2021 1010,1999 1007,1988 1004,1978 1003,1968 1003,1963 1004,1958 1005,1953 1007,1948 1009,1944 1013,1939 1017,1935 1022,1931 1028,1927 1035,1923 1044,1920 1053,1917 1057,1917 1060,1916 1064,1916 1068,1917 1071,1917 1074,1918 1077,1920 1080,1921 1086,1925 1091,1929 1096,1934 1100,1940 1109,1952 1125,1977 1128,1982 1133,1986 1137,1990 1141,1993 1146,1995 1150,1997 1155,1998 1160,1999 1164,1999 1169,1999 1174,1998 1178,1997 1182,1995 1187,1993 1191,1991 1195,1988 Z M 1864,1762 L 833,1762 800,1761 768,1756 737,1748 707,1737 679,1724 652,1707 627,1689 605,1668 584,1645 565,1620 549,1594 535,1566 524,1536 516,1505 511,1473 510,1440 511,1410 515,1380 522,1352 531,1325 542,1298 556,1274 572,1250 589,1230 609,1210 630,1191 653,1174 677,1159 703,1147 730,1136 758,1128 787,1123 785,1116 783,1109 781,1102 780,1095 779,1088 778,1081 778,1074 778,1067 779,1047 782,1027 787,1008 793,990 801,973 811,957 823,942 835,928 849,915 864,904 880,894 897,886 915,879 934,875 954,872 974,871 986,871 998,872 1009,874 1021,876 1032,879 1043,883 1053,887 1063,892 1073,898 1083,904 1092,910 1101,918 1109,925 1117,933 1125,942 1132,951 1144,923 1158,896 1174,870 1192,846 1211,823 1233,802 1255,782 1279,764 1305,747 1331,733 1357,720 1386,710 1416,702 1447,696 1478,692 1510,691 1552,693 1593,699 1632,709 1670,723 1706,740 1739,761 1771,785 1800,811 1827,840 1850,872 1871,905 1888,941 1902,979 1912,1018 1918,1059 1920,1101 1920,1107 1920,1113 1919,1118 1918,1124 1947,1130 1974,1138 2000,1149 2025,1162 2048,1177 2071,1194 2091,1212 2110,1232 2127,1253 2142,1276 2156,1301 2167,1326 2175,1353 2182,1381 2186,1410 2187,1440 2186,1473 2181,1505 2173,1536 2162,1566 2148,1594 2132,1620 2113,1645 2092,1668 2070,1689 2045,1707 2018,1724 1990,1737 1960,1748 1929,1756 1897,1761 1864,1762 Z"/>
        </g>
       </g>
      </g>
     </g>
    </g>
   </g>
  </g>
 </g>
</svg>