<?xml version="1.0" encoding="UTF-8"?>
<!DOCTYPE svg PUBLIC "-//W3C//DTD SVG 1.1//EN" "http://www.w3.org/Graphics/SVG/1.1/DTD/svg11.dtd">
<svg version="1.2" width="25.4mm" height="25.4mm" viewBox="0 0 2540 2540" preserveAspectRatio="xMidYMid" fill-rule="evenodd" stroke-width="28.222" stroke-linejoin="round" xmlns="http://www.w3.org/2000/svg" xmlns:ooo="http://xml.openoffice.org/svg/export" xmlns:xlink="http://www.w3.org/1999/xlink" xmlns:presentation="http://sun.com/xmlns/staroffice/presentation" xmlns:smil="http://www.w3.org/2001/SMIL20/" xmlns:anim="urn:oasis:names:tc:opendocument:xmlns:animation:1.0" xmlns:svg="urn:oasis:names:tc:opendocument:xmlns:svg-compatible:1.0" xml:space="preserve">
 <defs class="ClipPathGroup">
  <clipPath id="presentation_clip_path" clipPathUnits="userSpaceOnUse">
   <rect x="0" y="0" width="2540" height="2540"/>
  </clipPath>
  <clipPath id="presentation_clip_path_shrink" clipPathUnits="userSpaceOnUse">
   <rect x="2" y="2" width="2535" height="2535"/>
  </clipPath>
 </defs>
 <defs class="TextShapeIndex">
  <g ooo:slide="id1" ooo:id-list="id3 id4 id5 id6 id7 id8 id9 id10 id11 id12 id13 id14 id15 id16 id17 id18"/>
 </defs>
 <defs class="EmbeddedBulletChars">
  <g id="bullet-char-template-57356" transform="scale(0.00048828125,-0.00048828125)">
   <path d="M 580,1141 L 1163,571 580,0 -4,571 580,1141 Z"/>
  </g>
  <g id="bullet-char-template-57354" transform="scale(0.00048828125,-0.00048828125)">
   <path d="M 8,1128 L 1137,1128 1137,0 8,0 8,1128 Z"/>
  </g>
  <g id="bullet-char-template-10146" transform="scale(0.00048828125,-0.00048828125)">
   <path d="M 174,0 L 602,739 174,1481 1456,739 174,0 Z M 1358,739 L 309,1346 659,739 1358,739 Z"/>
  </g>
  <g id="bullet-char-template-10132" transform="scale(0.00048828125,-0.00048828125)">
   <path d="M 2015,739 L 1276,0 717,0 1260,543 174,543 174,936 1260,936 717,1481 1274,1481 2015,739 Z"/>
  </g>
  <g id="bullet-char-template-10007" transform="scale(0.00048828125,-0.00048828125)">
   <path d="M 0,-2 C -7,14 -16,27 -25,37 L 356,567 C 262,823 215,952 215,954 215,979 228,992 255,992 264,992 276,990 289,987 310,991 331,999 354,1012 L 381,999 492,748 772,1049 836,1024 860,1049 C 881,1039 901,1025 922,1006 886,937 835,863 770,784 769,783 710,716 594,584 L 774,223 C 774,196 753,168 711,139 L 727,119 C 717,90 699,76 672,76 641,76 570,178 457,381 L 164,-76 C 142,-110 111,-127 72,-127 30,-127 9,-110 8,-76 1,-67 -2,-52 -2,-32 -2,-23 -1,-13 0,-2 Z"/>
  </g>
  <g id="bullet-char-template-10004" transform="scale(0.00048828125,-0.00048828125)">
   <path d="M 285,-33 C 182,-33 111,30 74,156 52,228 41,333 41,471 41,549 55,616 82,672 116,743 169,778 240,778 293,778 328,747 346,684 L 369,508 C 377,444 397,411 428,410 L 1163,1116 C 1174,1127 1196,1133 1229,1133 1271,1133 1292,1118 1292,1087 L 1292,965 C 1292,929 1282,901 1262,881 L 442,47 C 390,-6 338,-33 285,-33 Z"/>
  </g>
  <g id="bullet-char-template-9679" transform="scale(0.00048828125,-0.00048828125)">
   <path d="M 813,0 C 632,0 489,54 383,161 276,268 223,411 223,592 223,773 276,916 383,1023 489,1130 632,1184 813,1184 992,1184 1136,1130 1245,1023 1353,916 1407,772 1407,592 1407,412 1353,268 1245,161 1136,54 992,0 813,0 Z"/>
  </g>
  <g id="bullet-char-template-8226" transform="scale(0.00048828125,-0.00048828125)">
   <path d="M 346,457 C 273,457 209,483 155,535 101,586 74,649 74,723 74,796 101,859 155,911 209,963 273,989 346,989 419,989 480,963 531,910 582,859 608,796 608,723 608,648 583,586 532,535 482,483 420,457 346,457 Z"/>
  </g>
  <g id="bullet-char-template-8211" transform="scale(0.00048828125,-0.00048828125)">
   <path d="M -4,459 L 1135,459 1135,606 -4,606 -4,459 Z"/>
  </g>
  <g id="bullet-char-template-61548" transform="scale(0.00048828125,-0.00048828125)">
   <path d="M 173,740 C 173,903 231,1043 346,1159 462,1274 601,1332 765,1332 928,1332 1067,1274 1183,1159 1299,1043 1357,903 1357,740 1357,577 1299,437 1183,322 1067,206 928,148 765,148 601,148 462,206 346,322 231,437 173,577 173,740 Z"/>
  </g>
 </defs>
 <g>
  <g id="id2" class="Master_Slide">
   <g id="bg-id2" class="Background"/>
   <g id="bo-id2" class="BackgroundObjects"/>
  </g>
 </g>
 <g class="SlideGroup">
  <g>
   <g id="container-id1">
    <g id="id1" class="Slide" clip-path="url(#presentation_clip_path)">
     <g class="Page">
      <g class="Group">
       <g class="com.sun.star.drawing.PolyPolygonShape">
        <g id="id3">
         <rect class="BoundingBox" stroke="none" fill="none" x="588" y="159" width="1278" height="1121"/>
         <path fill="rgb(231,231,231)" stroke="none" d="M 1179,1082 L 1182,1077 1187,1072 1191,1068 1196,1064 1200,1060 1205,1056 1210,1053 1216,1050 1223,1045 1231,1042 1239,1039 1247,1037 1255,1035 1263,1034 1271,1033 1280,1033 1282,1033 1857,1033 1864,1033 1864,488 1571,488 1571,488 1569,488 1566,488 1564,487 1562,487 1559,486 1557,485 1555,484 1553,483 1550,480 1548,479 1546,477 1545,475 1543,474 1542,472 1540,470 1539,468 1538,466 1538,464 1537,462 1536,459 1536,457 1536,455 1535,453 1535,453 1535,160 589,160 589,1279 1081,1279 1142,1153 779,1153 778,1153 775,1153 773,1152 771,1152 769,1151 766,1151 764,1150 762,1149 760,1148 758,1146 756,1145 754,1144 752,1142 751,1140 749,1139 748,1137 747,1135 746,1133 745,1131 744,1129 743,1127 743,1124 742,1122 742,1120 742,1118 742,1115 742,1113 743,1111 743,1108 744,1106 745,1104 746,1102 747,1100 748,1098 749,1096 751,1094 752,1092 754,1091 756,1089 758,1088 760,1087 762,1086 764,1085 766,1084 769,1083 771,1082 773,1082 775,1082 778,1082 779,1082 1179,1082 Z"/>
        </g>
       </g>
       <g class="com.sun.star.drawing.PolyPolygonShape">
        <g id="id4">
         <rect class="BoundingBox" stroke="none" fill="none" x="1091" y="305" width="272" height="272"/>
         <path fill="rgb(0,0,0)" stroke="none" d="M 1294,324 L 1301,329 1308,334 1315,340 1322,346 1328,352 1334,359 1339,366 1343,374 1348,382 1351,390 1354,398 1357,406 1359,415 1360,423 1361,432 1361,441 1361,450 1360,459 1359,467 1357,476 1354,485 1351,493 1348,501 1343,509 1339,516 1333,523 1328,530 1322,537 1315,542 1308,548 1301,553 1294,558 1286,562 1278,566 1270,569 1261,571 1253,573 1244,575 1235,576 1227,576 1218,576 1209,575 1200,573 1191,571 1183,569 1175,566 1166,562 1159,558 1151,553 1144,548 1137,542 1131,536 1125,530 1119,523 1114,516 1110,509 1105,501 1102,493 1099,484 1096,476 1094,467 1093,459 1092,450 1092,441 1092,432 1093,424 1094,415 1096,406 1099,398 1102,390 1105,382 1110,374 1114,366 1120,359 1125,352 1131,346 1137,339 1144,334 1151,329 1159,324 1167,320 1175,316 1183,313 1191,310 1200,308 1209,307 1218,306 1227,306 1235,306 1244,307 1253,308 1261,310 1270,313 1278,316 1286,320 1294,324 Z"/>
        </g>
       </g>
       <g class="com.sun.star.drawing.PolyPolygonShape">
        <g id="id5">
         <rect class="BoundingBox" stroke="none" fill="none" x="988" y="565" width="478" height="263"/>
         <path fill="rgb(0,0,0)" stroke="none" d="M 1142,569 L 1144,568 1146,567 1148,567 1151,567 1153,566 1155,566 1157,566 1160,566 1163,566 1166,566 1169,567 1173,567 1176,568 1179,569 1182,570 1185,572 1187,574 1190,576 1192,578 1195,580 1197,582 1199,585 1201,588 1203,591 1203,591 1203,592 1204,594 1205,595 1207,596 1208,598 1209,599 1211,600 1213,601 1213,601 1214,602 1216,602 1217,603 1219,603 1221,603 1223,604 1225,604 1227,604 1228,604 1230,604 1232,604 1234,603 1235,603 1237,602 1239,602 1241,601 1242,600 1244,599 1245,598 1246,596 1247,595 1248,594 1251,591 1251,591 1252,588 1254,585 1256,582 1258,580 1261,578 1263,576 1266,574 1269,572 1271,570 1274,569 1277,568 1280,567 1284,567 1287,566 1290,566 1294,566 1296,566 1298,566 1300,566 1303,567 1305,567 1307,567 1309,568 1311,569 1328,576 1336,580 1344,585 1358,593 1370,602 1383,612 1394,623 1405,634 1415,646 1424,659 1432,673 1440,687 1446,701 1452,715 1456,730 1460,745 1462,761 1464,776 1464,792 1464,794 1464,796 1464,798 1463,801 1462,803 1461,805 1460,807 1459,809 1458,811 1457,813 1455,815 1454,816 1452,818 1450,819 1448,821 1446,822 1445,823 1443,824 1440,825 1438,825 1436,826 1434,826 1431,827 1428,827 1428,827 1024,827 1021,827 1019,826 1017,826 1014,825 1012,825 1010,824 1008,823 1006,822 1004,821 1002,819 1000,818 999,816 998,814 996,813 994,809 992,807 991,805 990,803 990,800 989,798 989,796 989,794 989,792 989,776 991,761 993,745 997,730 1001,715 1007,701 1013,687 1021,673 1029,659 1038,646 1048,634 1059,623 1070,612 1082,602 1094,593 1108,585 1116,580 1124,576 1133,573 1142,569 Z"/>
        </g>
       </g>
       <g class="com.sun.star.drawing.PolyPolygonShape">
        <g id="id6">
         <rect class="BoundingBox" stroke="none" fill="none" x="741" y="884" width="969" height="73"/>
         <path fill="rgb(0,0,0)" stroke="none" d="M 779,885 L 1674,885 1678,885 1682,886 1684,887 1686,888 1688,889 1690,890 1693,891 1694,892 1696,894 1698,895 1699,897 1701,899 1702,901 1703,903 1704,905 1705,907 1706,909 1707,912 1708,914 1708,916 1708,918 1708,921 1708,923 1708,925 1708,928 1707,930 1706,932 1705,934 1704,937 1703,939 1702,941 1701,942 1699,944 1698,946 1696,947 1694,949 1693,950 1690,952 1688,953 1686,954 1684,954 1682,955 1680,955 1678,955 1676,956 1674,956 779,956 778,956 775,956 773,956 771,955 769,955 766,955 764,954 763,953 762,953 761,952 760,952 758,950 756,949 754,947 752,946 751,944 749,943 748,941 747,939 746,937 745,934 744,932 743,930 743,928 742,925 742,923 742,921 742,918 742,916 743,914 743,912 744,909 745,907 746,905 747,903 748,901 749,899 751,897 752,895 754,894 756,892 758,891 760,890 762,889 764,888 766,887 769,886 771,886 773,885 775,885 778,885 779,885 Z"/>
        </g>
       </g>
       <g class="com.sun.star.drawing.PolyPolygonShape">
        <g id="id7">
         <rect class="BoundingBox" stroke="none" fill="none" x="1063" y="641" width="328" height="116"/>
         <path fill="rgb(0,0,0)" stroke="none" d="M 1103,756 L 1064,756 1065,749 1067,743 1068,737 1071,731 1073,725 1076,719 1082,708 1087,699 1094,690 1101,681 1108,673 1116,665 1125,658 1134,652 1144,646 1145,645 1146,645 1148,644 1150,643 1151,642 1153,642 1155,645 1158,648 1161,650 1164,653 1167,655 1170,658 1173,660 1177,662 1182,665 1188,668 1194,670 1201,672 1207,673 1213,674 1220,675 1227,675 1233,675 1239,674 1246,673 1252,672 1258,670 1264,668 1270,665 1276,662 1279,660 1282,658 1285,655 1289,653 1292,650 1295,648 1298,645 1301,642 1302,642 1303,643 1305,644 1307,645 1308,645 1309,646 1319,652 1327,658 1336,665 1344,673 1351,681 1358,690 1365,699 1370,708 1374,713 1377,719 1379,725 1382,731 1384,737 1386,743 1388,749 1389,756 1350,756 1350,737 1350,736 1350,733 1350,731 1350,729 1349,727 1348,724 1348,722 1347,720 1345,718 1344,716 1343,714 1341,712 1340,711 1338,709 1336,708 1332,705 1332,704 1331,704 1329,703 1328,703 1326,702 1324,701 1322,701 1319,701 1317,701 1314,701 1312,701 1310,701 1308,701 1305,701 1303,702 1301,703 1300,703 1299,704 1298,704 1297,705 1295,706 1293,708 1291,709 1289,711 1288,712 1286,714 1285,716 1284,718 1283,719 1282,720 1282,721 1281,722 1281,724 1280,727 1280,729 1280,731 1280,733 1280,736 1280,737 1280,756 1174,756 1174,737 1174,736 1173,733 1173,731 1173,729 1172,727 1171,724 1171,722 1170,720 1169,718 1167,716 1166,714 1164,712 1163,711 1161,709 1159,708 1156,705 1155,704 1154,704 1153,703 1151,703 1149,702 1147,701 1145,701 1142,701 1140,701 1138,701 1135,701 1133,701 1131,701 1128,701 1126,702 1124,703 1123,703 1122,704 1121,704 1120,705 1118,706 1116,708 1114,709 1112,711 1111,712 1109,714 1108,716 1107,718 1106,719 1105,720 1105,721 1104,722 1104,724 1103,727 1103,729 1103,731 1103,733 1103,736 1103,737 1103,756 Z"/>
        </g>
       </g>
       <g class="com.sun.star.drawing.PolyPolygonShape">
        <g id="id8">
         <rect class="BoundingBox" stroke="none" fill="none" x="1161" y="376" width="131" height="130"/>
         <path fill="rgb(0,0,0)" stroke="none" d="M 1171,409 L 1173,405 1175,402 1178,399 1181,396 1184,393 1188,390 1191,388 1195,386 1198,384 1202,382 1206,381 1210,379 1214,378 1218,378 1222,377 1227,377 1231,377 1235,378 1239,378 1243,379 1247,381 1251,382 1255,384 1259,386 1262,388 1266,390 1269,393 1272,396 1275,399 1277,402 1279,405 1282,409 1284,413 1285,416 1287,420 1288,424 1289,428 1290,432 1290,437 1291,441 1290,445 1290,449 1289,454 1288,458 1287,462 1285,465 1283,469 1282,473 1279,476 1277,480 1274,483 1272,486 1269,489 1266,492 1262,495 1259,497 1255,499 1251,500 1247,502 1243,503 1239,504 1235,504 1231,505 1227,505 1222,505 1218,504 1214,504 1209,503 1205,502 1202,500 1198,499 1195,497 1191,494 1187,492 1184,489 1181,486 1178,483 1175,480 1173,476 1171,473 1168,469 1167,466 1165,462 1164,458 1163,453 1162,449 1162,445 1162,441 1162,437 1162,433 1163,429 1164,424 1165,420 1167,417 1168,413 1171,409 Z"/>
        </g>
       </g>
       <g class="com.sun.star.drawing.PolyPolygonShape">
        <g id="id9">
         <rect class="BoundingBox" stroke="none" fill="none" x="1606" y="209" width="209" height="209"/>
         <path fill="rgb(231,231,231)" stroke="none" d="M 1606,210 L 1813,417 1606,417 1606,210 Z"/>
        </g>
       </g>
       <g class="com.sun.star.drawing.PolyPolygonShape">
        <g id="id10">
         <rect class="BoundingBox" stroke="none" fill="none" x="428" y="9" width="1278" height="1271"/>
         <path fill="rgb(255,67,67)" stroke="none" d="M 518,1279 L 429,1279 429,10 1704,10 1704,207 1596,99 1596,98 1595,97 1594,97 1593,96 1592,95 1591,95 1590,94 1588,94 1587,93 1586,93 1585,92 1584,91 1583,91 1582,91 1580,90 1578,89 1576,89 1574,89 1571,89 553,89 551,89 548,89 546,90 544,90 542,91 540,92 538,93 536,94 534,95 532,97 530,98 528,100 527,101 525,103 524,105 523,107 522,109 521,111 520,113 519,115 519,117 518,120 518,122 518,124 518,1279 Z"/>
        </g>
       </g>
       <g class="com.sun.star.drawing.PolyPolygonShape">
        <g id="id11">
         <rect class="BoundingBox" stroke="none" fill="none" x="271" y="856" width="88" height="438"/>
         <path fill="rgb(75,62,238)" stroke="none" d="M 331,1279 L 331,1279 323,1279 315,1280 308,1281 300,1282 293,1284 286,1287 279,1289 272,1293 272,917 272,913 272,909 273,905 274,901 275,897 276,894 278,890 280,887 282,883 284,880 286,877 289,875 292,872 295,869 298,867 301,865 304,863 308,861 312,860 316,859 319,858 323,857 327,857 331,857 358,857 358,1279 331,1279 Z"/>
        </g>
       </g>
       <g class="com.sun.star.drawing.PolyPolygonShape">
        <g id="id12">
         <rect class="BoundingBox" stroke="none" fill="none" x="271" y="1103" width="1647" height="434"/>
         <path fill="rgb(255,208,61)" stroke="none" d="M 1364,1536 L 272,1536 272,1409 272,1405 272,1401 273,1397 274,1393 275,1389 276,1386 278,1382 280,1379 282,1375 284,1372 286,1369 289,1367 292,1364 295,1362 298,1360 301,1358 304,1355 308,1354 312,1352 316,1351 319,1351 323,1350 327,1350 331,1350 1104,1350 1106,1349 1108,1349 1110,1349 1112,1348 1115,1347 1117,1347 1119,1346 1121,1345 1123,1343 1125,1342 1127,1340 1128,1339 1130,1337 1131,1335 1132,1333 1134,1332 1134,1331 1134,1331 1134,1331 1135,1330 1135,1330 1135,1330 1135,1330 1135,1330 1135,1330 1135,1330 1135,1330 1135,1330 1136,1330 1228,1137 1228,1136 1228,1136 1228,1136 1229,1135 1229,1135 1230,1133 1231,1132 1233,1129 1235,1126 1237,1123 1240,1120 1242,1117 1245,1115 1248,1113 1252,1111 1255,1109 1258,1107 1261,1106 1265,1105 1269,1105 1272,1104 1276,1104 1280,1104 1282,1104 1857,1104 1861,1104 1865,1104 1869,1105 1873,1105 1876,1106 1880,1108 1884,1110 1887,1112 1891,1114 1894,1116 1896,1118 1899,1121 1902,1123 1904,1126 1906,1129 1908,1133 1910,1136 1912,1140 1913,1144 1914,1147 1915,1151 1916,1155 1916,1159 1916,1163 1916,1270 1696,1270 1694,1270 1692,1270 1690,1270 1687,1270 1685,1271 1683,1272 1681,1273 1679,1274 1677,1275 1676,1276 1674,1277 1672,1279 1670,1280 1669,1282 1668,1284 1666,1286 1651,1310 1633,1333 1614,1356 1594,1376 1573,1396 1550,1414 1526,1431 1501,1447 1475,1461 1462,1467 1448,1473 1434,1479 1420,1484 1406,1488 1391,1493 1389,1493 1388,1494 1387,1494 1386,1495 1385,1495 1384,1496 1384,1496 1383,1497 1381,1498 1379,1499 1378,1501 1376,1502 1374,1504 1373,1506 1372,1508 1370,1510 1369,1511 1368,1513 1368,1514 1367,1516 1366,1518 1366,1520 1366,1522 1365,1525 1364,1536 Z"/>
        </g>
       </g>
       <g class="com.sun.star.drawing.PolyPolygonShape">
        <g id="id13">
         <rect class="BoundingBox" stroke="none" fill="none" x="271" y="1606" width="1161" height="584"/>
         <path fill="rgb(237,193,57)" stroke="none" d="M 272,1606 L 272,2128 272,2132 272,2136 273,2140 274,2144 275,2148 276,2151 278,2155 280,2158 282,2162 284,2165 286,2168 289,2170 292,2173 295,2176 298,2178 301,2180 304,2182 308,2184 312,2185 316,2186 319,2187 323,2188 327,2188 331,2188 1430,2188 1424,2175 1418,2161 1412,2147 1406,2132 1387,2072 1373,2010 1363,1945 1356,1879 1353,1812 1353,1744 1358,1606 272,1606 Z"/>
        </g>
       </g>
       <g class="com.sun.star.drawing.PolyPolygonShape">
        <g id="id14">
         <rect class="BoundingBox" stroke="none" fill="none" x="1423" y="1339" width="917" height="1131"/>
         <path fill="rgb(114,159,207)" stroke="none" d="M 2328,1554 L 2301,1545 2276,1534 2250,1522 2225,1509 2199,1492 2173,1475 2149,1455 2126,1435 2104,1413 2083,1390 2064,1365 2046,1340 1716,1340 1698,1365 1679,1390 1658,1413 1636,1435 1613,1455 1588,1474 1563,1492 1536,1509 1512,1522 1486,1534 1461,1545 1434,1554 1425,1700 1424,1772 1425,1843 1430,1913 1440,1981 1454,2046 1473,2107 1486,2139 1501,2169 1516,2199 1534,2226 1553,2253 1574,2278 1596,2302 1621,2325 1647,2347 1675,2368 1704,2387 1736,2405 1805,2439 1881,2468 1958,2439 2026,2405 2058,2387 2087,2368 2115,2347 2141,2325 2166,2302 2188,2278 2209,2253 2228,2226 2246,2199 2262,2169 2276,2139 2289,2107 2300,2077 2309,2046 2323,1981 2332,1913 2337,1843 2339,1772 2337,1700 2328,1554 Z"/>
        </g>
       </g>
       <g class="com.sun.star.drawing.PolyPolygonShape">
        <g id="id15">
         <rect class="BoundingBox" stroke="none" fill="none" x="1627" y="1532" width="509" height="600"/>
         <path fill="rgb(255,255,255)" stroke="none" d="M 2134,2029 L 2134,2036 2133,2043 2132,2049 2131,2056 2129,2062 2126,2068 2123,2074 2120,2080 2117,2086 2113,2091 2109,2096 2105,2101 2100,2105 2095,2109 2089,2113 2083,2116 2077,2120 2072,2122 2066,2125 2059,2127 2053,2128 2047,2129 2040,2130 2033,2130 1728,2130 1722,2130 1715,2129 1709,2128 1703,2127 1696,2125 1690,2122 1684,2120 1678,2116 1673,2113 1668,2109 1662,2105 1658,2101 1653,2096 1649,2091 1645,2086 1641,2080 1638,2074 1635,2068 1633,2062 1631,2056 1629,2049 1628,2043 1628,2036 1627,2029 1627,1838 1628,1832 1628,1825 1629,1819 1631,1812 1633,1806 1635,1800 1638,1794 1641,1788 1645,1783 1649,1777 1653,1772 1658,1767 1662,1762 1668,1758 1673,1755 1678,1751 1682,1749 1686,1747 1690,1746 1694,1744 1698,1743 1702,1741 1706,1740 1710,1739 1710,1701 1711,1691 1712,1680 1714,1669 1717,1659 1720,1648 1724,1638 1728,1628 1733,1618 1739,1609 1746,1600 1753,1591 1760,1583 1769,1575 1777,1568 1786,1561 1795,1555 1805,1550 1815,1546 1826,1542 1837,1538 1848,1536 1859,1534 1870,1533 1881,1533 1892,1533 1904,1534 1914,1536 1925,1538 1936,1542 1946,1546 1956,1550 1966,1555 1976,1561 1985,1568 1993,1575 2001,1583 2009,1591 2016,1600 2022,1609 2028,1618 2034,1628 2038,1638 2042,1648 2045,1658 2048,1669 2050,1680 2051,1691 2051,1701 2051,1739 2056,1740 2060,1741 2064,1743 2068,1744 2072,1746 2076,1747 2079,1749 2083,1751 2089,1755 2095,1758 2100,1762 2105,1767 2109,1772 2113,1777 2117,1783 2120,1788 2123,1794 2126,1800 2129,1806 2131,1812 2132,1819 2133,1825 2134,1832 2134,1838 2134,2029 Z"/>
        </g>
       </g>
       <g class="com.sun.star.drawing.PolyPolygonShape">
        <g id="id16">
         <rect class="BoundingBox" stroke="none" fill="none" x="1781" y="1603" width="201" height="136"/>
         <path fill="rgb(114,159,207)" stroke="none" d="M 1980,1737 L 1781,1737 1781,1701 1782,1695 1782,1689 1783,1682 1785,1676 1787,1670 1789,1664 1791,1659 1794,1653 1798,1648 1802,1643 1806,1638 1811,1633 1815,1628 1820,1624 1826,1620 1831,1616 1837,1613 1843,1611 1849,1608 1855,1607 1862,1605 1868,1604 1875,1604 1881,1603 1888,1604 1894,1604 1900,1605 1907,1607 1913,1608 1919,1611 1924,1613 1930,1616 1936,1620 1941,1624 1946,1628 1951,1633 1956,1638 1960,1643 1964,1648 1967,1653 1970,1659 1973,1664 1975,1670 1977,1676 1978,1682 1979,1689 1980,1695 1980,1701 1980,1737 Z"/>
        </g>
       </g>
       <g class="com.sun.star.drawing.PolyPolygonShape">
        <g id="id17">
         <rect class="BoundingBox" stroke="none" fill="none" x="1698" y="1808" width="367" height="253"/>
         <path fill="rgb(114,159,207)" stroke="none" d="M 2033,1808 L 1728,1808 1726,1808 1725,1809 1723,1809 1721,1809 1719,1810 1717,1811 1715,1811 1713,1812 1710,1815 1709,1816 1707,1817 1706,1819 1705,1820 1704,1822 1702,1823 1702,1825 1701,1827 1700,1829 1700,1831 1699,1833 1699,1835 1698,1836 1698,1838 1698,2029 1698,2031 1699,2033 1699,2035 1700,2037 1700,2039 1701,2041 1702,2043 1702,2044 1704,2046 1705,2048 1706,2049 1707,2051 1709,2052 1710,2053 1713,2055 1715,2056 1717,2057 1719,2058 1721,2058 1723,2059 1725,2059 1726,2059 1728,2059 2033,2059 2035,2059 2037,2059 2039,2059 2041,2058 2043,2058 2045,2057 2046,2057 2047,2056 2047,2056 2048,2055 2050,2054 2052,2053 2053,2052 2054,2051 2056,2049 2057,2048 2058,2046 2059,2044 2060,2044 2060,2043 2061,2042 2061,2041 2062,2039 2062,2037 2063,2035 2063,2033 2063,2031 2063,2029 2063,1838 2063,1836 2063,1835 2063,1833 2062,1831 2062,1829 2061,1827 2061,1826 2060,1825 2060,1824 2059,1823 2058,1822 2057,1820 2056,1819 2054,1817 2053,1816 2052,1815 2050,1814 2048,1812 2047,1812 2047,1811 2046,1811 2045,1811 2043,1810 2041,1809 2039,1809 2037,1809 2035,1808 2033,1808 Z"/>
        </g>
       </g>
       <g class="com.sun.star.drawing.PolyPolygonShape">
        <g id="id18">
         <rect class="BoundingBox" stroke="none" fill="none" x="1813" y="1855" width="137" height="189"/>
         <path fill="rgb(255,255,255)" stroke="none" d="M 1916,1980 L 1916,2006 1916,2007 1916,2010 1916,2012 1916,2014 1915,2017 1914,2019 1914,2021 1912,2023 1911,2025 1910,2027 1909,2029 1907,2031 1906,2033 1904,2034 1902,2036 1900,2037 1898,2038 1896,2039 1894,2040 1892,2041 1890,2041 1888,2042 1886,2042 1884,2042 1881,2042 1879,2042 1876,2042 1874,2042 1872,2041 1869,2041 1867,2040 1865,2039 1864,2039 1863,2038 1861,2037 1860,2036 1858,2034 1856,2033 1854,2031 1853,2029 1852,2027 1850,2025 1849,2023 1848,2021 1847,2019 1847,2017 1846,2014 1846,2012 1845,2010 1845,2007 1845,2006 1845,1980 1842,1978 1839,1975 1836,1973 1833,1970 1830,1967 1827,1963 1825,1960 1822,1956 1820,1953 1818,1949 1817,1944 1816,1940 1815,1936 1814,1931 1813,1927 1813,1922 1813,1918 1814,1913 1815,1909 1816,1905 1817,1901 1818,1896 1820,1892 1822,1888 1825,1885 1827,1881 1830,1878 1833,1875 1837,1872 1840,1869 1844,1867 1847,1864 1851,1862 1855,1860 1859,1859 1864,1858 1868,1857 1872,1856 1877,1856 1881,1855 1886,1856 1890,1856 1894,1857 1898,1858 1902,1859 1906,1860 1910,1862 1914,1864 1918,1867 1922,1869 1925,1872 1928,1875 1931,1878 1934,1881 1937,1885 1939,1888 1941,1892 1943,1896 1945,1901 1946,1905 1947,1909 1948,1913 1948,1918 1948,1922 1948,1927 1948,1931 1947,1936 1946,1940 1945,1944 1943,1949 1941,1953 1939,1956 1937,1960 1935,1963 1932,1967 1930,1970 1927,1973 1923,1975 1920,1978 1916,1980 Z"/>
        </g>
       </g>
      </g>
     </g>
    </g>
   </g>
  </g>
 </g>
</svg>