<?xml version="1.0" encoding="UTF-8"?>
<!DOCTYPE svg PUBLIC "-//W3C//DTD SVG 1.1//EN" "http://www.w3.org/Graphics/SVG/1.1/DTD/svg11.dtd">
<svg version="1.2" width="135.64mm" height="138.68mm" viewBox="0 0 13564 13868" preserveAspectRatio="xMidYMid" fill-rule="evenodd" stroke-width="28.222" stroke-linejoin="round" xmlns="http://www.w3.org/2000/svg" xmlns:ooo="http://xml.openoffice.org/svg/export" xmlns:xlink="http://www.w3.org/1999/xlink" xmlns:presentation="http://sun.com/xmlns/staroffice/presentation" xmlns:smil="http://www.w3.org/2001/SMIL20/" xmlns:anim="urn:oasis:names:tc:opendocument:xmlns:animation:1.0" xmlns:svg="urn:oasis:names:tc:opendocument:xmlns:svg-compatible:1.0" xml:space="preserve">
 <defs class="ClipPathGroup">
  <clipPath id="presentation_clip_path" clipPathUnits="userSpaceOnUse">
   <rect x="0" y="0" width="13564" height="13868"/>
  </clipPath>
  <clipPath id="presentation_clip_path_shrink" clipPathUnits="userSpaceOnUse">
   <rect x="13" y="13" width="13537" height="13841"/>
  </clipPath>
 </defs>
 <defs class="TextShapeIndex">
  <g ooo:slide="id1" ooo:id-list="id3 id4 id5 id6 id7 id8"/>
 </defs>
 <defs class="EmbeddedBulletChars">
  <g id="bullet-char-template-57356" transform="scale(0.00048828125,-0.00048828125)">
   <path d="M 580,1141 L 1163,571 580,0 -4,571 580,1141 Z"/>
  </g>
  <g id="bullet-char-template-57354" transform="scale(0.00048828125,-0.00048828125)">
   <path d="M 8,1128 L 1137,1128 1137,0 8,0 8,1128 Z"/>
  </g>
  <g id="bullet-char-template-10146" transform="scale(0.00048828125,-0.00048828125)">
   <path d="M 174,0 L 602,739 174,1481 1456,739 174,0 Z M 1358,739 L 309,1346 659,739 1358,739 Z"/>
  </g>
  <g id="bullet-char-template-10132" transform="scale(0.00048828125,-0.00048828125)">
   <path d="M 2015,739 L 1276,0 717,0 1260,543 174,543 174,936 1260,936 717,1481 1274,1481 2015,739 Z"/>
  </g>
  <g id="bullet-char-template-10007" transform="scale(0.00048828125,-0.00048828125)">
   <path d="M 0,-2 C -7,14 -16,27 -25,37 L 356,567 C 262,823 215,952 215,954 215,979 228,992 255,992 264,992 276,990 289,987 310,991 331,999 354,1012 L 381,999 492,748 772,1049 836,1024 860,1049 C 881,1039 901,1025 922,1006 886,937 835,863 770,784 769,783 710,716 594,584 L 774,223 C 774,196 753,168 711,139 L 727,119 C 717,90 699,76 672,76 641,76 570,178 457,381 L 164,-76 C 142,-110 111,-127 72,-127 30,-127 9,-110 8,-76 1,-67 -2,-52 -2,-32 -2,-23 -1,-13 0,-2 Z"/>
  </g>
  <g id="bullet-char-template-10004" transform="scale(0.00048828125,-0.00048828125)">
   <path d="M 285,-33 C 182,-33 111,30 74,156 52,228 41,333 41,471 41,549 55,616 82,672 116,743 169,778 240,778 293,778 328,747 346,684 L 369,508 C 377,444 397,411 428,410 L 1163,1116 C 1174,1127 1196,1133 1229,1133 1271,1133 1292,1118 1292,1087 L 1292,965 C 1292,929 1282,901 1262,881 L 442,47 C 390,-6 338,-33 285,-33 Z"/>
  </g>
  <g id="bullet-char-template-9679" transform="scale(0.00048828125,-0.00048828125)">
   <path d="M 813,0 C 632,0 489,54 383,161 276,268 223,411 223,592 223,773 276,916 383,1023 489,1130 632,1184 813,1184 992,1184 1136,1130 1245,1023 1353,916 1407,772 1407,592 1407,412 1353,268 1245,161 1136,54 992,0 813,0 Z"/>
  </g>
  <g id="bullet-char-template-8226" transform="scale(0.00048828125,-0.00048828125)">
   <path d="M 346,457 C 273,457 209,483 155,535 101,586 74,649 74,723 74,796 101,859 155,911 209,963 273,989 346,989 419,989 480,963 531,910 582,859 608,796 608,723 608,648 583,586 532,535 482,483 420,457 346,457 Z"/>
  </g>
  <g id="bullet-char-template-8211" transform="scale(0.00048828125,-0.00048828125)">
   <path d="M -4,459 L 1135,459 1135,606 -4,606 -4,459 Z"/>
  </g>
  <g id="bullet-char-template-61548" transform="scale(0.00048828125,-0.00048828125)">
   <path d="M 173,740 C 173,903 231,1043 346,1159 462,1274 601,1332 765,1332 928,1332 1067,1274 1183,1159 1299,1043 1357,903 1357,740 1357,577 1299,437 1183,322 1067,206 928,148 765,148 601,148 462,206 346,322 231,437 173,577 173,740 Z"/>
  </g>
 </defs>
 <g>
  <g id="id2" class="Master_Slide">
   <g id="bg-id2" class="Background"/>
   <g id="bo-id2" class="BackgroundObjects"/>
  </g>
 </g>
 <g class="SlideGroup">
  <g>
   <g id="container-id1">
    <g id="id1" class="Slide" clip-path="url(#presentation_clip_path)">
     <g class="Page">
      <g class="com.sun.star.drawing.PolyPolygonShape">
       <g id="id3">
        <rect class="BoundingBox" stroke="none" fill="none" x="10631" y="10009" width="2062" height="2062"/>
        <path fill="rgb(63,255,127)" stroke="none" d="M 12499,10009 L 10824,10009 10805,10010 10786,10013 10767,10018 10750,10024 10733,10032 10717,10042 10702,10053 10688,10066 10676,10079 10664,10094 10655,10110 10646,10127 10640,10145 10635,10163 10632,10182 10631,10202 10631,11877 10632,11897 10635,11916 10640,11934 10646,11952 10655,11969 10664,11985 10676,12000 10688,12013 10702,12026 10717,12037 10733,12047 10750,12055 10767,12061 10786,12066 10805,12069 10824,12070 12499,12070 12519,12069 12538,12066 12556,12061 12574,12055 12591,12047 12607,12037 12622,12026 12635,12013 12648,12000 12659,11985 12669,11969 12677,11952 12683,11934 12688,11916 12691,11897 12692,11877 12692,10202 12691,10182 12688,10163 12683,10144 12677,10126 12669,10109 12659,10093 12648,10079 12635,10065 12622,10053 12607,10042 12591,10032 12574,10024 12556,10018 12538,10013 12519,10010 12499,10009 Z"/>
       </g>
      </g>
      <g class="com.sun.star.drawing.PolyPolygonShape">
       <g id="id4">
        <rect class="BoundingBox" stroke="none" fill="none" x="2007" y="3167" width="9847" height="6422"/>
        <g>
         <defs>
          <linearGradient id="gradient1" x1="6930" y1="3167" x2="6930" y2="9588" gradientUnits="userSpaceOnUse">
           <stop offset="0.546666666666667" style="stop-color:rgb(227,227,227)"/>
           <stop offset="0.546666666666667" style="stop-color:rgb(159,159,159)"/>
           <stop offset="0.773333333333333" style="stop-color:rgb(159,159,159)"/>
           <stop offset="0.773333333333333" style="stop-color:rgb(91,91,91)"/>
           <stop offset="1" style="stop-color:rgb(91,91,91)"/>
           <stop offset="1" style="stop-color:rgb(22,22,22)"/>
          </linearGradient>
         </defs>
         <path style="fill:url(#gradient1)" d="M 2200,9588 L 2219,9587 2238,9584 2257,9579 2274,9573 2291,9565 2307,9555 2322,9544 2336,9531 2348,9518 2360,9503 2369,9487 2378,9470 2384,9452 2389,9434 2392,9415 2393,9395 2393,8268 6737,8268 6737,9395 6738,9415 6741,9434 6746,9452 6752,9470 6760,9487 6770,9503 6781,9518 6794,9531 6807,9544 6822,9555 6838,9565 6855,9573 6873,9579 6891,9584 6910,9587 6930,9588 6950,9587 6969,9584 6987,9579 7005,9573 7022,9565 7038,9555 7053,9544 7066,9531 7079,9518 7090,9503 7100,9487 7108,9470 7114,9452 7119,9434 7122,9415 7123,9395 7123,8268 11467,8268 11467,9395 11468,9415 11471,9434 11476,9452 11482,9470 11491,9487 11500,9503 11511,9518 11524,9531 11538,9544 11553,9555 11568,9565 11585,9573 11603,9579 11621,9584 11640,9587 11660,9588 11680,9587 11699,9584 11717,9579 11735,9573 11752,9565 11767,9555 11782,9544 11796,9531 11809,9518 11820,9503 11829,9487 11838,9470 11844,9452 11849,9434 11852,9415 11853,9395 11853,8075 11852,8055 11849,8036 11844,8018 11838,8000 11830,7983 11820,7967 11809,7952 11796,7939 11783,7926 11768,7915 11752,7905 11735,7897 11717,7891 11699,7886 11680,7883 11660,7882 7123,7882 7123,6641 10375,6641 10394,6640 10413,6637 10432,6632 10449,6626 10466,6618 10482,6608 10497,6597 10511,6584 10523,6571 10535,6556 10544,6540 10553,6523 10559,6505 10564,6487 10567,6468 10568,6448 10568,3360 10567,3340 10564,3321 10559,3303 10553,3285 10544,3268 10535,3252 10523,3237 10511,3224 10497,3211 10482,3200 10466,3190 10449,3182 10432,3176 10413,3171 10394,3168 10375,3167 3485,3167 3466,3168 3447,3171 3428,3176 3411,3182 3394,3190 3378,3200 3363,3211 3349,3224 3337,3237 3325,3252 3316,3268 3307,3285 3301,3303 3296,3321 3293,3340 3292,3360 3292,6450 3293,6470 3296,6489 3301,6507 3307,6525 3316,6542 3325,6558 3337,6573 3349,6587 3363,6599 3378,6611 3394,6620 3411,6629 3428,6635 3447,6640 3466,6643 3485,6644 6737,6644 6737,7884 2200,7884 2180,7885 2161,7888 2143,7893 2125,7899 2108,7908 2092,7917 2077,7929 2064,7941 2051,7955 2040,7970 2030,7986 2022,8003 2016,8021 2011,8039 2008,8058 2007,8078 2007,9398 2008,9418 2011,9437 2015,9455 2022,9472 2030,9489 2039,9505 2050,9519 2063,9533 2076,9545 2091,9556 2107,9565 2124,9573 2142,9580 2160,9584 2180,9587 2200,9588 Z"/>
        </g>
       </g>
      </g>
      <g class="com.sun.star.drawing.PolyPolygonShape">
       <g id="id5">
        <rect class="BoundingBox" stroke="none" fill="none" x="7449" y="4212" width="1964" height="388"/>
        <path fill="rgb(52,52,52)" stroke="none" d="M 7504,4268 L 7511,4262 7517,4256 7525,4250 7532,4244 7540,4240 7548,4235 7556,4231 7565,4227 7574,4223 7583,4220 7602,4216 7621,4213 7642,4212 9218,4212 9238,4213 9257,4216 9276,4220 9294,4227 9311,4235 9320,4240 9328,4244 9335,4250 9342,4256 9349,4262 9356,4268 9362,4275 9368,4281 9379,4296 9389,4312 9397,4329 9403,4347 9408,4366 9411,4385 9412,4395 9412,4405 9412,4415 9411,4425 9410,4434 9408,4444 9403,4462 9397,4479 9389,4496 9379,4512 9368,4526 9356,4540 9349,4546 9342,4552 9327,4564 9311,4574 9293,4582 9275,4589 9255,4594 9246,4596 9236,4597 9226,4598 9216,4598 7639,4598 7629,4598 7619,4597 7610,4596 7600,4594 7591,4592 7582,4590 7573,4587 7565,4583 7557,4579 7549,4574 7541,4570 7533,4564 7524,4557 7515,4550 7507,4542 7499,4534 7491,4525 7484,4516 7478,4507 7472,4497 7467,4486 7462,4475 7458,4464 7455,4453 7452,4441 7451,4429 7449,4417 7449,4405 7450,4385 7453,4366 7457,4348 7464,4331 7472,4314 7481,4298 7492,4282 7504,4268 Z"/>
       </g>
      </g>
      <g class="com.sun.star.drawing.PolyPolygonShape">
       <g id="id6">
        <rect class="BoundingBox" stroke="none" fill="none" x="5869" y="5210" width="3541" height="384"/>
        <path fill="rgb(52,52,52)" stroke="none" d="M 5869,5400 L 5870,5381 5873,5362 5878,5344 5884,5327 5892,5310 5902,5295 5913,5280 5925,5266 5939,5254 5953,5243 5969,5233 5986,5225 6004,5219 6023,5214 6042,5211 6062,5210 9216,5210 9236,5211 9255,5214 9273,5218 9291,5225 9307,5233 9323,5242 9339,5253 9353,5265 9365,5279 9377,5293 9386,5309 9394,5326 9398,5335 9401,5344 9405,5363 9408,5382 9409,5403 9409,5413 9408,5423 9407,5432 9405,5442 9403,5451 9400,5460 9397,5469 9393,5477 9385,5494 9382,5498 9380,5502 9378,5506 9375,5509 9368,5518 9361,5527 9353,5535 9345,5543 9336,5551 9327,5558 9317,5564 9307,5570 9297,5575 9286,5580 9275,5584 9264,5587 9252,5590 9240,5591 9228,5593 9216,5593 6062,5593 6042,5592 6023,5589 6005,5584 5987,5578 5970,5570 5954,5560 5939,5549 5926,5536 5913,5523 5902,5508 5892,5492 5884,5475 5878,5457 5873,5439 5870,5420 5869,5400 Z"/>
       </g>
      </g>
      <g class="com.sun.star.drawing.PolyPolygonShape">
       <g id="id7">
        <rect class="BoundingBox" stroke="none" fill="none" x="5897" y="10009" width="2063" height="2062"/>
        <path fill="rgb(63,192,255)" stroke="none" d="M 7766,10009 L 6091,10009 6072,10010 6053,10013 6034,10018 6017,10024 6000,10032 5984,10042 5969,10053 5955,10066 5943,10079 5931,10094 5922,10110 5913,10127 5907,10145 5902,10163 5899,10182 5898,10202 5898,11877 5899,11897 5902,11916 5907,11934 5913,11952 5922,11969 5931,11985 5943,12000 5955,12013 5969,12026 5984,12037 6000,12047 6017,12055 6034,12061 6053,12066 6072,12069 6091,12070 7766,12070 7786,12069 7805,12066 7823,12061 7841,12055 7858,12047 7874,12037 7889,12026 7902,12013 7915,12000 7926,11985 7936,11969 7944,11952 7950,11934 7955,11916 7958,11897 7959,11877 7959,10202 7958,10182 7955,10163 7950,10144 7944,10126 7936,10109 7926,10093 7915,10079 7903,10065 7889,10053 7875,10042 7859,10032 7842,10024 7824,10018 7805,10013 7786,10010 7766,10009 Z"/>
       </g>
      </g>
      <g class="com.sun.star.drawing.PolyPolygonShape">
       <g id="id8">
        <rect class="BoundingBox" stroke="none" fill="none" x="1168" y="10009" width="2062" height="2062"/>
        <path fill="rgb(255,63,63)" stroke="none" d="M 3036,10009 L 1361,10009 1341,10010 1322,10013 1304,10018 1286,10024 1269,10032 1253,10042 1238,10053 1225,10066 1212,10079 1201,10094 1191,10110 1183,10127 1177,10145 1172,10163 1169,10182 1168,10202 1168,11877 1169,11897 1172,11916 1177,11934 1183,11952 1191,11969 1201,11985 1212,12000 1225,12013 1238,12026 1253,12037 1269,12047 1286,12055 1304,12061 1322,12066 1341,12069 1361,12070 3036,12070 3055,12069 3074,12066 3093,12061 3110,12055 3127,12047 3143,12037 3158,12026 3172,12013 3184,12000 3196,11985 3205,11969 3214,11952 3220,11934 3225,11916 3228,11897 3229,11877 3229,10202 3228,10182 3225,10163 3220,10144 3214,10126 3205,10109 3196,10093 3184,10079 3172,10065 3158,10053 3143,10042 3127,10032 3110,10024 3093,10018 3074,10013 3055,10010 3036,10009 Z"/>
       </g>
      </g>
     </g>
    </g>
   </g>
  </g>
 </g>
</svg>