<?xml version="1.0" encoding="UTF-8"?>
<!DOCTYPE svg PUBLIC "-//W3C//DTD SVG 1.1//EN" "http://www.w3.org/Graphics/SVG/1.1/DTD/svg11.dtd">
<svg version="1.2" width="16mm" height="15.24mm" viewBox="0 0 1600 1524" preserveAspectRatio="xMidYMid" fill-rule="evenodd" stroke-width="28.222" stroke-linejoin="round" xmlns="http://www.w3.org/2000/svg" xmlns:ooo="http://xml.openoffice.org/svg/export" xmlns:xlink="http://www.w3.org/1999/xlink" xmlns:presentation="http://sun.com/xmlns/staroffice/presentation" xmlns:smil="http://www.w3.org/2001/SMIL20/" xmlns:anim="urn:oasis:names:tc:opendocument:xmlns:animation:1.0" xmlns:svg="urn:oasis:names:tc:opendocument:xmlns:svg-compatible:1.0" xml:space="preserve">
 <defs class="ClipPathGroup">
  <clipPath id="presentation_clip_path" clipPathUnits="userSpaceOnUse">
   <rect x="0" y="0" width="1600" height="1524"/>
  </clipPath>
  <clipPath id="presentation_clip_path_shrink" clipPathUnits="userSpaceOnUse">
   <rect x="1" y="1" width="1597" height="1521"/>
  </clipPath>
 </defs>
 <defs class="TextShapeIndex">
  <g ooo:slide="id1" ooo:id-list="id3 id4 id5 id6 id7 id8 id9 id10 id11 id12 id13 id14 id15 id16 id17 id18 id19 id20 id21"/>
 </defs>
 <defs class="EmbeddedBulletChars">
  <g id="bullet-char-template-57356" transform="scale(0.00048828125,-0.00048828125)">
   <path d="M 580,1141 L 1163,571 580,0 -4,571 580,1141 Z"/>
  </g>
  <g id="bullet-char-template-57354" transform="scale(0.00048828125,-0.00048828125)">
   <path d="M 8,1128 L 1137,1128 1137,0 8,0 8,1128 Z"/>
  </g>
  <g id="bullet-char-template-10146" transform="scale(0.00048828125,-0.00048828125)">
   <path d="M 174,0 L 602,739 174,1481 1456,739 174,0 Z M 1358,739 L 309,1346 659,739 1358,739 Z"/>
  </g>
  <g id="bullet-char-template-10132" transform="scale(0.00048828125,-0.00048828125)">
   <path d="M 2015,739 L 1276,0 717,0 1260,543 174,543 174,936 1260,936 717,1481 1274,1481 2015,739 Z"/>
  </g>
  <g id="bullet-char-template-10007" transform="scale(0.00048828125,-0.00048828125)">
   <path d="M 0,-2 C -7,14 -16,27 -25,37 L 356,567 C 262,823 215,952 215,954 215,979 228,992 255,992 264,992 276,990 289,987 310,991 331,999 354,1012 L 381,999 492,748 772,1049 836,1024 860,1049 C 881,1039 901,1025 922,1006 886,937 835,863 770,784 769,783 710,716 594,584 L 774,223 C 774,196 753,168 711,139 L 727,119 C 717,90 699,76 672,76 641,76 570,178 457,381 L 164,-76 C 142,-110 111,-127 72,-127 30,-127 9,-110 8,-76 1,-67 -2,-52 -2,-32 -2,-23 -1,-13 0,-2 Z"/>
  </g>
  <g id="bullet-char-template-10004" transform="scale(0.00048828125,-0.00048828125)">
   <path d="M 285,-33 C 182,-33 111,30 74,156 52,228 41,333 41,471 41,549 55,616 82,672 116,743 169,778 240,778 293,778 328,747 346,684 L 369,508 C 377,444 397,411 428,410 L 1163,1116 C 1174,1127 1196,1133 1229,1133 1271,1133 1292,1118 1292,1087 L 1292,965 C 1292,929 1282,901 1262,881 L 442,47 C 390,-6 338,-33 285,-33 Z"/>
  </g>
  <g id="bullet-char-template-9679" transform="scale(0.00048828125,-0.00048828125)">
   <path d="M 813,0 C 632,0 489,54 383,161 276,268 223,411 223,592 223,773 276,916 383,1023 489,1130 632,1184 813,1184 992,1184 1136,1130 1245,1023 1353,916 1407,772 1407,592 1407,412 1353,268 1245,161 1136,54 992,0 813,0 Z"/>
  </g>
  <g id="bullet-char-template-8226" transform="scale(0.00048828125,-0.00048828125)">
   <path d="M 346,457 C 273,457 209,483 155,535 101,586 74,649 74,723 74,796 101,859 155,911 209,963 273,989 346,989 419,989 480,963 531,910 582,859 608,796 608,723 608,648 583,586 532,535 482,483 420,457 346,457 Z"/>
  </g>
  <g id="bullet-char-template-8211" transform="scale(0.00048828125,-0.00048828125)">
   <path d="M -4,459 L 1135,459 1135,606 -4,606 -4,459 Z"/>
  </g>
  <g id="bullet-char-template-61548" transform="scale(0.00048828125,-0.00048828125)">
   <path d="M 173,740 C 173,903 231,1043 346,1159 462,1274 601,1332 765,1332 928,1332 1067,1274 1183,1159 1299,1043 1357,903 1357,740 1357,577 1299,437 1183,322 1067,206 928,148 765,148 601,148 462,206 346,322 231,437 173,577 173,740 Z"/>
  </g>
 </defs>
 <g>
  <g id="id2" class="Master_Slide">
   <g id="bg-id2" class="Background"/>
   <g id="bo-id2" class="BackgroundObjects"/>
  </g>
 </g>
 <g class="SlideGroup">
  <g>
   <g id="container-id1">
    <g id="id1" class="Slide" clip-path="url(#presentation_clip_path)">
     <g class="Page">
      <g class="com.sun.star.drawing.PolyPolygonShape">
       <g id="id3">
        <rect class="BoundingBox" stroke="none" fill="none" x="1121" y="417" width="117" height="213"/>
        <path fill="rgb(103,20,20)" stroke="none" d="M 1152,428 L 1154,441 1155,455 1156,468 1156,482 1156,501 1154,520 1151,539 1147,557 1142,576 1136,594 1129,612 1121,629 1236,629 1236,418 1150,418 1150,419 1150,420 1151,421 1151,423 1152,425 1152,428 Z"/>
       </g>
      </g>
      <g class="com.sun.star.drawing.PolyPolygonShape">
       <g id="id4">
        <rect class="BoundingBox" stroke="none" fill="none" x="231" y="946" width="107" height="213"/>
        <path fill="rgb(103,20,20)" stroke="none" d="M 232,1104 L 232,1104 232,1108 232,1112 233,1115 234,1119 235,1122 236,1125 237,1128 239,1131 241,1134 243,1137 245,1140 247,1142 250,1145 252,1147 255,1149 258,1150 261,1152 264,1153 267,1155 270,1156 274,1156 277,1157 280,1157 284,1157 337,1157 337,946 232,946 232,1104 Z"/>
       </g>
      </g>
      <g class="com.sun.star.drawing.PolyPolygonShape">
       <g id="id5">
        <rect class="BoundingBox" stroke="none" fill="none" x="231" y="681" width="345" height="214"/>
        <path fill="rgb(103,20,20)" stroke="none" d="M 232,894 L 575,894 575,724 572,721 570,719 567,716 564,714 556,706 549,698 542,690 536,682 232,682 232,894 Z"/>
       </g>
      </g>
      <g class="com.sun.star.drawing.PolyPolygonShape">
       <g id="id6">
        <rect class="BoundingBox" stroke="none" fill="none" x="231" y="417" width="107" height="213"/>
        <path fill="rgb(103,20,20)" stroke="none" d="M 284,418 L 284,418 280,418 277,418 274,419 270,419 267,420 264,422 261,423 258,425 255,427 252,429 250,431 247,433 245,436 243,438 241,441 239,444 237,447 236,450 235,453 234,457 233,460 232,464 232,467 232,471 232,629 337,629 337,418 284,418 Z"/>
       </g>
      </g>
      <g class="com.sun.star.drawing.PolyPolygonShape">
       <g id="id7">
        <rect class="BoundingBox" stroke="none" fill="none" x="1289" y="417" width="107" height="213"/>
        <path fill="rgb(103,20,20)" stroke="none" d="M 1341,418 L 1289,418 1289,629 1394,629 1394,471 1394,471 1394,471 1394,467 1394,464 1393,460 1392,457 1391,453 1390,450 1389,447 1387,444 1385,441 1383,438 1381,436 1379,433 1376,431 1374,429 1371,427 1368,425 1365,423 1362,422 1359,420 1355,419 1352,419 1348,418 1345,418 1341,418 Z"/>
       </g>
      </g>
      <g class="com.sun.star.drawing.PolyPolygonShape">
       <g id="id8">
        <rect class="BoundingBox" stroke="none" fill="none" x="1051" y="681" width="345" height="214"/>
        <path fill="rgb(103,20,20)" stroke="none" d="M 1394,682 L 1087,682 1086,683 1085,684 1084,685 1083,686 1082,688 1080,691 1080,691 1073,699 1066,706 1051,722 1051,894 1394,894 1394,682 Z"/>
       </g>
      </g>
      <g class="com.sun.star.drawing.PolyPolygonShape">
       <g id="id9">
        <rect class="BoundingBox" stroke="none" fill="none" x="389" y="417" width="114" height="213"/>
        <path fill="rgb(103,20,20)" stroke="none" d="M 390,418 L 390,629 502,629 494,613 488,596 482,580 478,563 474,546 472,528 470,511 470,493 470,493 470,474 471,455 473,437 476,418 390,418 Z"/>
       </g>
      </g>
      <g class="com.sun.star.drawing.PolyPolygonShape">
       <g id="id10">
        <rect class="BoundingBox" stroke="none" fill="none" x="1289" y="946" width="107" height="213"/>
        <path fill="rgb(103,20,20)" stroke="none" d="M 1394,1104 L 1394,946 1289,946 1289,1157 1341,1157 1341,1157 1345,1157 1348,1157 1352,1156 1355,1156 1359,1155 1362,1153 1365,1152 1368,1150 1371,1149 1374,1147 1376,1145 1379,1142 1381,1140 1383,1137 1385,1134 1387,1131 1389,1128 1390,1125 1391,1122 1392,1119 1393,1115 1394,1112 1394,1108 1394,1104 Z"/>
       </g>
      </g>
      <g class="com.sun.star.drawing.PolyPolygonShape">
       <g id="id11">
        <rect class="BoundingBox" stroke="none" fill="none" x="680" y="390" width="267" height="371"/>
        <path fill="rgb(255,168,0)" stroke="none" d="M 945,643 L 944,623 941,604 937,585 930,566 923,547 914,529 894,494 872,462 851,433 830,409 814,391 796,409 776,433 754,461 733,492 713,527 704,545 697,564 690,583 685,602 682,621 681,641 681,648 682,656 683,663 685,671 687,678 690,685 693,692 697,699 701,705 705,712 710,718 716,723 722,729 728,734 734,738 741,743 746,746 751,748 757,750 763,752 769,754 775,756 781,757 788,758 801,759 815,760 829,759 843,757 856,753 870,749 882,743 894,736 905,728 915,718 923,708 931,697 937,685 942,672 944,658 945,643 Z"/>
       </g>
      </g>
      <g class="com.sun.star.drawing.PolyPolygonShape">
       <g id="id12">
        <rect class="BoundingBox" stroke="none" fill="none" x="839" y="946" width="399" height="213"/>
        <path fill="rgb(103,20,20)" stroke="none" d="M 839,946 L 1236,946 1236,1157 839,1157 839,946 Z"/>
       </g>
      </g>
      <g class="com.sun.star.drawing.PolyPolygonShape">
       <g id="id13">
        <rect class="BoundingBox" stroke="none" fill="none" x="522" y="-1" width="583" height="713"/>
        <path fill="rgb(255,60,0)" stroke="none" d="M 628,642 L 628,640 629,617 633,594 638,572 645,550 654,529 664,508 686,468 710,433 734,401 756,375 775,355 777,352 780,350 781,348 783,347 784,347 786,346 789,344 792,343 796,341 799,340 803,340 806,339 810,339 814,339 817,339 820,339 824,340 827,340 830,341 834,343 837,344 840,346 842,347 843,347 845,348 846,350 848,351 849,352 850,353 851,355 870,375 893,402 917,434 941,470 963,510 973,531 982,552 989,574 994,597 997,620 998,643 998,651 997,660 996,668 995,676 993,684 990,692 988,700 984,708 997,699 1008,689 1019,679 1030,668 1040,656 1049,644 1057,632 1065,619 1074,602 1082,586 1088,568 1094,551 1098,533 1101,515 1103,497 1103,479 1103,468 1103,458 1102,447 1100,437 1094,411 1091,398 1087,385 1082,372 1077,360 1071,348 1065,336 1065,336 1063,340 1060,344 1057,347 1053,351 1050,354 1046,357 1042,360 1038,363 1031,366 1027,368 1023,369 1019,370 1015,371 1011,372 1007,372 1006,372 1004,372 1003,371 1001,371 999,371 998,370 996,369 994,369 994,368 993,368 992,368 992,367 991,367 991,366 989,365 978,354 967,342 956,330 946,318 937,305 927,292 919,279 910,265 896,239 884,211 874,184 865,155 858,127 853,97 850,68 849,38 850,28 850,19 851,0 813,26 778,55 749,86 723,117 702,150 684,183 669,215 657,246 648,276 641,304 632,351 629,382 629,395 628,398 627,402 626,403 626,405 625,406 625,408 624,409 624,409 623,411 622,412 620,413 619,415 618,416 616,417 615,418 614,418 613,419 612,419 610,420 608,420 607,420 605,421 603,421 602,421 600,421 598,421 597,420 595,420 593,420 591,419 589,418 588,418 588,418 581,413 575,408 569,403 563,397 558,392 553,385 548,379 544,372 543,372 543,371 543,371 543,371 543,371 543,370 542,370 542,370 542,369 542,369 542,369 542,369 535,389 530,409 526,429 524,450 522,470 522,491 524,511 527,532 531,552 536,571 543,590 552,609 562,627 573,644 586,660 601,676 611,685 621,694 632,703 644,711 640,703 637,694 634,686 632,677 630,668 629,660 628,651 628,642 Z"/>
       </g>
      </g>
      <g class="com.sun.star.drawing.PolyPolygonShape">
       <g id="id14">
        <rect class="BoundingBox" stroke="none" fill="none" x="627" y="762" width="373" height="133"/>
        <path fill="rgb(103,20,20)" stroke="none" d="M 628,894 L 998,894 998,763 997,763 996,763 994,765 992,766 991,766 989,767 969,778 948,787 927,795 905,802 883,808 860,811 837,814 814,815 813,815 789,813 765,811 742,807 719,801 696,794 674,786 653,777 633,766 632,765 631,765 630,764 629,763 628,763 628,763 628,894 Z"/>
       </g>
      </g>
      <g class="com.sun.star.drawing.PolyPolygonShape">
       <g id="id15">
        <rect class="BoundingBox" stroke="none" fill="none" x="389" y="946" width="399" height="213"/>
        <path fill="rgb(103,20,20)" stroke="none" d="M 390,946 L 787,946 787,1157 390,1157 390,946 Z"/>
       </g>
      </g>
      <g class="com.sun.star.drawing.PolyPolygonShape">
       <g id="id16">
        <rect class="BoundingBox" stroke="none" fill="none" x="654" y="1342" width="319" height="108"/>
        <path fill="rgb(255,168,0)" stroke="none" d="M 655,1395 L 655,1395 655,1399 655,1402 655,1406 656,1409 657,1413 658,1416 660,1419 662,1422 664,1425 666,1428 668,1430 670,1433 672,1435 675,1437 678,1439 681,1441 684,1443 687,1444 690,1446 693,1447 697,1447 700,1448 704,1448 708,1448 918,1448 918,1448 922,1448 926,1448 929,1447 933,1447 936,1446 939,1444 942,1443 945,1441 948,1439 951,1437 954,1435 956,1433 958,1430 960,1428 962,1425 964,1422 966,1419 968,1416 969,1413 970,1409 971,1406 971,1402 971,1399 971,1395 971,1392 971,1389 971,1385 970,1382 969,1379 968,1375 966,1372 964,1369 962,1366 960,1363 958,1361 956,1358 954,1355 951,1353 948,1351 945,1349 942,1348 939,1346 936,1345 933,1344 929,1343 926,1343 922,1342 918,1342 708,1342 708,1342 704,1342 700,1343 697,1343 693,1344 690,1345 687,1346 684,1348 681,1349 678,1351 675,1353 672,1355 670,1358 668,1361 666,1363 664,1366 662,1369 660,1372 658,1375 657,1379 656,1382 655,1385 655,1389 655,1392 655,1395 Z"/>
       </g>
      </g>
      <g class="com.sun.star.drawing.PolyPolygonShape">
       <g id="id17">
        <rect class="BoundingBox" stroke="none" fill="none" x="72" y="1316" width="161" height="161"/>
        <path fill="rgb(255,168,0)" stroke="none" d="M 232,1395 L 232,1401 231,1406 230,1411 229,1416 227,1421 226,1426 223,1431 221,1435 218,1440 215,1444 212,1448 208,1452 204,1455 200,1458 196,1461 192,1464 187,1467 183,1469 178,1471 173,1472 168,1474 162,1474 157,1475 152,1475 147,1475 142,1474 137,1474 132,1472 127,1471 122,1469 117,1467 113,1464 109,1461 104,1458 100,1455 96,1452 93,1448 90,1444 87,1440 84,1435 82,1431 80,1426 78,1421 76,1416 75,1411 74,1406 73,1401 73,1395 73,1390 74,1385 75,1380 76,1375 77,1370 79,1365 81,1361 84,1356 85,1354 86,1352 89,1347 93,1343 96,1339 100,1336 104,1333 108,1330 113,1327 117,1325 122,1323 127,1321 132,1319 137,1318 142,1317 147,1317 152,1316 157,1317 162,1317 168,1318 173,1319 178,1321 183,1323 187,1325 192,1327 196,1330 200,1333 204,1336 208,1339 212,1343 215,1347 218,1352 221,1356 223,1361 226,1365 227,1370 229,1375 230,1380 231,1385 232,1390 232,1395 Z"/>
       </g>
      </g>
      <g class="com.sun.star.drawing.PolyPolygonShape">
       <g id="id18">
        <rect class="BoundingBox" stroke="none" fill="none" x="1394" y="1316" width="161" height="161"/>
        <path fill="rgb(255,168,0)" stroke="none" d="M 1553,1395 L 1553,1401 1552,1406 1551,1411 1550,1416 1548,1421 1547,1426 1544,1431 1542,1435 1539,1440 1536,1444 1533,1448 1530,1452 1526,1455 1522,1458 1517,1461 1513,1464 1509,1467 1504,1469 1499,1471 1494,1472 1489,1474 1484,1474 1479,1475 1474,1475 1469,1475 1464,1474 1458,1474 1453,1472 1448,1471 1443,1469 1439,1467 1434,1464 1430,1461 1426,1458 1422,1455 1418,1452 1414,1448 1411,1444 1408,1440 1405,1435 1403,1431 1400,1426 1399,1421 1397,1416 1396,1411 1395,1406 1394,1401 1394,1395 1394,1390 1395,1385 1396,1380 1397,1375 1399,1370 1400,1365 1403,1361 1405,1356 1408,1352 1411,1347 1414,1343 1418,1339 1422,1336 1426,1333 1430,1330 1434,1327 1439,1325 1443,1323 1448,1321 1453,1319 1458,1318 1464,1317 1469,1317 1474,1316 1479,1317 1484,1317 1489,1318 1494,1319 1499,1321 1504,1323 1509,1325 1513,1327 1518,1330 1522,1333 1526,1336 1530,1339 1533,1343 1537,1347 1540,1352 1541,1354 1542,1356 1545,1361 1547,1365 1549,1370 1550,1375 1551,1380 1552,1385 1553,1390 1553,1395 Z"/>
       </g>
      </g>
      <g class="com.sun.star.drawing.PolyPolygonShape">
       <g id="id19">
        <rect class="BoundingBox" stroke="none" fill="none" x="281" y="1369" width="325" height="55"/>
        <path fill="rgb(165,165,165)" stroke="none" d="M 605,1422 L 605,1422 603,1416 602,1409 602,1402 602,1395 602,1389 602,1382 603,1375 604,1372 605,1369 282,1369 282,1369 282,1372 283,1375 283,1379 284,1382 284,1389 284,1395 284,1402 284,1409 283,1412 283,1416 282,1419 282,1422 605,1422 Z"/>
       </g>
      </g>
      <g class="com.sun.star.drawing.PolyPolygonShape">
       <g id="id20">
        <rect class="BoundingBox" stroke="none" fill="none" x="1021" y="1369" width="325" height="55"/>
        <path fill="rgb(165,165,165)" stroke="none" d="M 1021,1369 L 1021,1369 1022,1372 1023,1375 1024,1382 1024,1389 1024,1395 1024,1402 1024,1409 1023,1416 1021,1422 1344,1422 1344,1422 1344,1419 1343,1416 1343,1412 1342,1409 1342,1402 1342,1395 1342,1389 1342,1382 1343,1379 1343,1375 1344,1372 1344,1369 1021,1369 Z"/>
       </g>
      </g>
      <g class="com.sun.star.drawing.PolyPolygonShape">
       <g id="id21">
        <rect class="BoundingBox" stroke="none" fill="none" x="786" y="1210" width="55" height="81"/>
        <path fill="rgb(165,165,165)" stroke="none" d="M 787,1210 L 839,1210 839,1289 787,1289 787,1210 Z"/>
       </g>
      </g>
     </g>
    </g>
   </g>
  </g>
 </g>
</svg>