<?xml version="1.0" encoding="UTF-8"?>
<!DOCTYPE svg PUBLIC "-//W3C//DTD SVG 1.1//EN" "http://www.w3.org/Graphics/SVG/1.1/DTD/svg11.dtd">
<svg version="1.2" width="16.26mm" height="16.26mm" viewBox="0 0 1626 1626" preserveAspectRatio="xMidYMid" fill-rule="evenodd" stroke-width="28.222" stroke-linejoin="round" xmlns="http://www.w3.org/2000/svg" xmlns:ooo="http://xml.openoffice.org/svg/export" xmlns:xlink="http://www.w3.org/1999/xlink" xmlns:presentation="http://sun.com/xmlns/staroffice/presentation" xmlns:smil="http://www.w3.org/2001/SMIL20/" xmlns:anim="urn:oasis:names:tc:opendocument:xmlns:animation:1.0" xmlns:svg="urn:oasis:names:tc:opendocument:xmlns:svg-compatible:1.0" xml:space="preserve">
 <defs class="ClipPathGroup">
  <clipPath id="presentation_clip_path" clipPathUnits="userSpaceOnUse">
   <rect x="0" y="0" width="1626" height="1626"/>
  </clipPath>
  <clipPath id="presentation_clip_path_shrink" clipPathUnits="userSpaceOnUse">
   <rect x="1" y="1" width="1623" height="1623"/>
  </clipPath>
 </defs>
 <defs class="TextShapeIndex">
  <g ooo:slide="id1" ooo:id-list="id3 id4 id5 id6 id7 id8 id9 id10 id11 id12"/>
 </defs>
 <defs class="EmbeddedBulletChars">
  <g id="bullet-char-template-57356" transform="scale(0.00048828125,-0.00048828125)">
   <path d="M 580,1141 L 1163,571 580,0 -4,571 580,1141 Z"/>
  </g>
  <g id="bullet-char-template-57354" transform="scale(0.00048828125,-0.00048828125)">
   <path d="M 8,1128 L 1137,1128 1137,0 8,0 8,1128 Z"/>
  </g>
  <g id="bullet-char-template-10146" transform="scale(0.00048828125,-0.00048828125)">
   <path d="M 174,0 L 602,739 174,1481 1456,739 174,0 Z M 1358,739 L 309,1346 659,739 1358,739 Z"/>
  </g>
  <g id="bullet-char-template-10132" transform="scale(0.00048828125,-0.00048828125)">
   <path d="M 2015,739 L 1276,0 717,0 1260,543 174,543 174,936 1260,936 717,1481 1274,1481 2015,739 Z"/>
  </g>
  <g id="bullet-char-template-10007" transform="scale(0.00048828125,-0.00048828125)">
   <path d="M 0,-2 C -7,14 -16,27 -25,37 L 356,567 C 262,823 215,952 215,954 215,979 228,992 255,992 264,992 276,990 289,987 310,991 331,999 354,1012 L 381,999 492,748 772,1049 836,1024 860,1049 C 881,1039 901,1025 922,1006 886,937 835,863 770,784 769,783 710,716 594,584 L 774,223 C 774,196 753,168 711,139 L 727,119 C 717,90 699,76 672,76 641,76 570,178 457,381 L 164,-76 C 142,-110 111,-127 72,-127 30,-127 9,-110 8,-76 1,-67 -2,-52 -2,-32 -2,-23 -1,-13 0,-2 Z"/>
  </g>
  <g id="bullet-char-template-10004" transform="scale(0.00048828125,-0.00048828125)">
   <path d="M 285,-33 C 182,-33 111,30 74,156 52,228 41,333 41,471 41,549 55,616 82,672 116,743 169,778 240,778 293,778 328,747 346,684 L 369,508 C 377,444 397,411 428,410 L 1163,1116 C 1174,1127 1196,1133 1229,1133 1271,1133 1292,1118 1292,1087 L 1292,965 C 1292,929 1282,901 1262,881 L 442,47 C 390,-6 338,-33 285,-33 Z"/>
  </g>
  <g id="bullet-char-template-9679" transform="scale(0.00048828125,-0.00048828125)">
   <path d="M 813,0 C 632,0 489,54 383,161 276,268 223,411 223,592 223,773 276,916 383,1023 489,1130 632,1184 813,1184 992,1184 1136,1130 1245,1023 1353,916 1407,772 1407,592 1407,412 1353,268 1245,161 1136,54 992,0 813,0 Z"/>
  </g>
  <g id="bullet-char-template-8226" transform="scale(0.00048828125,-0.00048828125)">
   <path d="M 346,457 C 273,457 209,483 155,535 101,586 74,649 74,723 74,796 101,859 155,911 209,963 273,989 346,989 419,989 480,963 531,910 582,859 608,796 608,723 608,648 583,586 532,535 482,483 420,457 346,457 Z"/>
  </g>
  <g id="bullet-char-template-8211" transform="scale(0.00048828125,-0.00048828125)">
   <path d="M -4,459 L 1135,459 1135,606 -4,606 -4,459 Z"/>
  </g>
  <g id="bullet-char-template-61548" transform="scale(0.00048828125,-0.00048828125)">
   <path d="M 173,740 C 173,903 231,1043 346,1159 462,1274 601,1332 765,1332 928,1332 1067,1274 1183,1159 1299,1043 1357,903 1357,740 1357,577 1299,437 1183,322 1067,206 928,148 765,148 601,148 462,206 346,322 231,437 173,577 173,740 Z"/>
  </g>
 </defs>
 <g>
  <g id="id2" class="Master_Slide">
   <g id="bg-id2" class="Background"/>
   <g id="bo-id2" class="BackgroundObjects"/>
  </g>
 </g>
 <g class="SlideGroup">
  <g>
   <g id="container-id1">
    <g id="id1" class="Slide" clip-path="url(#presentation_clip_path)">
     <g class="Page">
      <g class="com.sun.star.drawing.PolyPolygonShape">
       <g id="id3">
        <rect class="BoundingBox" stroke="none" fill="none" x="603" y="1335" width="108" height="55"/>
        <path fill="rgb(255,205,174)" stroke="none" d="M 604,1388 L 710,1388 710,1335 657,1335 651,1336 646,1336 641,1338 636,1339 631,1342 627,1344 623,1347 619,1351 616,1355 613,1359 610,1363 608,1368 606,1373 605,1378 604,1383 604,1388 Z"/>
       </g>
      </g>
      <g class="com.sun.star.drawing.PolyPolygonShape">
       <g id="id4">
        <rect class="BoundingBox" stroke="none" fill="none" x="20" y="1388" width="1069" height="74"/>
        <path fill="rgb(42,56,63)" stroke="none" d="M 20,1388 L 20,1460 1035,1460 1087,1388 20,1388 Z"/>
       </g>
      </g>
      <g class="com.sun.star.drawing.PolyPolygonShape">
       <g id="id5">
        <rect class="BoundingBox" stroke="none" fill="none" x="20" y="495" width="915" height="724"/>
        <path fill="rgb(164,236,255)" stroke="none" d="M 809,893 L 809,856 798,855 788,853 778,849 768,844 759,838 750,831 742,823 735,814 728,803 722,792 717,780 713,768 709,754 706,740 705,726 704,711 705,700 705,690 707,680 709,670 711,660 714,650 717,641 721,632 714,594 710,569 708,545 706,520 705,496 599,496 599,696 652,768 652,928 599,928 599,798 546,726 546,496 493,496 493,711 441,711 441,496 335,496 335,1000 283,1000 283,496 231,496 231,726 178,798 178,928 125,928 125,768 178,696 178,496 20,496 20,1217 933,1217 919,1203 906,1188 894,1172 882,1155 871,1137 861,1118 852,1098 843,1078 835,1057 828,1035 823,1013 818,990 814,966 811,942 809,917 809,893 Z M 151,1073 L 149,1072 146,1072 144,1071 141,1070 139,1068 137,1066 135,1064 133,1062 131,1059 130,1056 129,1053 128,1050 127,1047 126,1043 126,1039 125,1036 126,1032 126,1029 127,1025 127,1022 129,1019 130,1016 131,1013 133,1011 135,1008 137,1006 139,1005 141,1003 144,1002 146,1001 149,1001 151,1000 154,1001 157,1001 159,1002 162,1003 164,1005 166,1006 168,1008 170,1011 172,1013 173,1016 175,1019 176,1022 177,1025 178,1029 178,1032 178,1036 178,1039 178,1043 177,1047 176,1050 175,1053 174,1056 172,1059 170,1062 168,1064 166,1066 164,1068 162,1070 159,1071 157,1072 154,1072 151,1073 Z M 309,1145 L 307,1145 304,1144 301,1143 299,1142 297,1140 294,1139 292,1136 290,1134 289,1131 287,1128 286,1125 285,1122 284,1119 283,1115 283,1112 283,1108 283,1104 283,1101 284,1098 285,1094 286,1091 287,1088 289,1085 290,1083 292,1081 294,1079 297,1077 299,1075 301,1074 304,1073 307,1073 309,1073 312,1073 315,1073 317,1074 320,1075 322,1077 324,1079 326,1081 328,1083 330,1085 331,1088 332,1091 333,1094 334,1098 335,1101 335,1104 335,1108 335,1112 335,1115 334,1119 333,1122 332,1125 331,1128 330,1131 328,1134 326,1136 324,1139 322,1140 320,1142 317,1143 315,1144 312,1145 309,1145 Z M 468,856 L 465,856 462,855 460,854 457,853 455,851 453,850 450,848 449,845 447,843 445,840 444,837 443,834 442,831 441,827 441,824 441,820 441,817 441,813 442,810 443,806 444,803 445,800 447,797 449,794 451,792 453,790 455,788 457,786 460,785 462,784 465,784 468,783 470,784 473,784 475,785 478,786 480,788 482,790 484,792 486,794 488,797 489,800 490,803 491,806 492,810 493,813 493,817 493,820 493,824 493,827 492,831 491,834 490,837 489,840 487,843 486,845 484,848 482,850 480,851 478,853 475,854 473,855 470,856 468,856 Z M 625,1073 L 622,1072 620,1072 617,1071 615,1070 613,1068 610,1066 608,1064 607,1062 605,1059 603,1056 602,1053 601,1050 600,1047 599,1043 599,1039 599,1036 599,1032 599,1029 600,1025 601,1022 602,1019 603,1016 605,1013 606,1011 608,1008 610,1006 612,1005 615,1003 617,1002 620,1001 622,1001 625,1000 627,1001 630,1001 633,1002 635,1003 637,1005 640,1006 642,1008 644,1011 645,1013 647,1016 648,1019 649,1022 650,1025 651,1029 651,1032 652,1036 651,1039 651,1043 650,1047 650,1050 648,1053 647,1056 646,1059 644,1062 642,1064 640,1066 638,1068 635,1070 633,1071 630,1072 628,1072 625,1073 Z"/>
       </g>
      </g>
      <g class="com.sun.star.drawing.PolyPolygonShape">
       <g id="id6">
        <rect class="BoundingBox" stroke="none" fill="none" x="338" y="1229" width="267" height="161"/>
        <path fill="rgb(42,56,63)" stroke="none" d="M 551,1388 L 551,1381 552,1374 553,1367 554,1360 556,1354 559,1347 562,1341 565,1335 569,1329 573,1324 577,1319 582,1314 587,1309 592,1305 598,1301 604,1297 604,1229 339,1229 339,1388 551,1388 Z"/>
       </g>
      </g>
      <g class="com.sun.star.drawing.PolyPolygonShape">
       <g id="id7">
        <rect class="BoundingBox" stroke="none" fill="none" x="1082" y="1231" width="205" height="256"/>
        <path fill="rgb(206,37,37)" stroke="none" d="M 1082,1485 L 1285,1485 1285,1231 1085,1482 1082,1485 Z"/>
       </g>
      </g>
      <g class="com.sun.star.drawing.PolyPolygonShape">
       <g id="id8">
        <rect class="BoundingBox" stroke="none" fill="none" x="762" y="224" width="795" height="382"/>
        <path fill="rgb(61,31,13)" stroke="none" d="M 1545,605 L 1546,602 1550,584 1553,565 1554,547 1555,529 1553,498 1549,467 1541,438 1531,410 1518,384 1503,359 1486,335 1466,314 1445,294 1421,277 1396,262 1370,249 1342,239 1313,231 1283,226 1252,225 1065,225 1034,226 1004,231 975,239 948,249 921,262 896,277 873,294 851,314 832,335 814,359 799,384 786,410 776,438 769,467 764,498 763,529 763,547 765,565 768,584 772,602 772,605 777,603 782,601 787,599 793,598 798,597 803,596 809,596 814,596 814,569 815,556 817,544 820,532 823,521 828,510 834,500 841,490 848,481 856,473 865,465 875,458 885,452 896,447 907,443 918,440 930,438 928,431 926,425 925,418 923,412 922,405 921,398 921,391 920,384 973,384 974,395 976,405 978,415 982,425 986,434 992,443 998,451 1005,458 1012,465 1020,471 1029,477 1038,481 1048,485 1058,488 1069,489 1079,490 1343,490 1356,490 1368,492 1381,494 1393,498 1404,502 1415,507 1426,513 1436,519 1445,527 1454,535 1462,544 1470,553 1477,563 1483,573 1488,584 1493,596 1502,596 1508,596 1513,596 1519,597 1524,598 1530,599 1535,601 1540,603 1545,605 Z"/>
       </g>
      </g>
      <g class="com.sun.star.drawing.PolyPolygonShape">
       <g id="id9">
        <rect class="BoundingBox" stroke="none" fill="none" x="867" y="489" width="584" height="584"/>
        <path fill="rgb(255,205,174)" stroke="none" d="M 1343,543 L 1079,543 1071,542 1062,542 1053,541 1045,539 1037,537 1029,534 1021,531 1014,528 1006,525 999,521 992,516 985,511 973,501 961,490 947,490 939,490 931,491 924,493 916,496 909,499 903,503 897,508 891,513 886,518 881,524 877,531 874,538 871,545 869,553 868,561 867,569 867,834 869,858 872,881 878,904 886,926 896,947 908,966 922,985 937,1002 954,1017 973,1031 992,1043 1013,1053 1035,1061 1057,1067 1081,1070 1105,1071 1185,1071 1211,1071 1235,1070 1259,1067 1282,1061 1304,1053 1324,1043 1344,1031 1362,1017 1379,1002 1395,985 1408,966 1420,947 1430,926 1438,904 1444,881 1448,858 1449,834 1449,648 1449,637 1447,626 1444,616 1441,607 1436,598 1431,589 1425,581 1418,573 1411,567 1403,561 1394,555 1385,551 1375,547 1365,545 1354,543 1343,543 Z M 1000,728 L 995,727 989,727 984,725 979,723 975,721 970,718 966,715 963,712 959,708 956,704 954,700 951,695 950,690 948,685 948,680 947,675 948,669 948,664 950,659 952,654 954,649 956,645 959,641 963,637 967,634 971,631 975,628 980,626 985,624 990,623 995,622 1000,622 1006,622 1011,623 1016,624 1021,626 1025,628 1030,631 1034,634 1037,637 1041,641 1044,645 1046,649 1048,654 1050,659 1051,664 1052,669 1052,675 1052,680 1051,685 1050,690 1048,695 1046,700 1044,704 1041,708 1037,712 1034,715 1030,718 1025,721 1021,723 1016,725 1011,727 1006,727 1000,728 Z M 1185,965 L 1079,965 1079,913 1185,913 1191,912 1196,911 1201,910 1206,908 1210,906 1215,903 1219,900 1223,897 1226,893 1229,889 1232,885 1234,880 1236,875 1237,870 1238,865 1238,860 1291,860 1291,870 1289,881 1286,891 1283,901 1278,910 1273,919 1267,927 1260,934 1252,941 1244,947 1235,953 1226,957 1217,961 1206,963 1196,965 1185,965 Z M 1317,728 L 1312,727 1307,727 1302,725 1297,723 1292,721 1288,718 1284,715 1280,712 1276,708 1273,704 1271,700 1268,695 1267,690 1265,685 1264,680 1264,675 1264,669 1265,664 1267,659 1268,654 1271,649 1273,645 1276,641 1280,637 1284,634 1288,631 1292,628 1297,626 1302,624 1307,623 1312,622 1317,622 1323,622 1328,623 1333,624 1338,626 1342,628 1347,631 1351,634 1355,637 1358,641 1361,645 1364,649 1366,654 1368,659 1369,664 1370,669 1370,675 1370,680 1369,685 1368,690 1366,695 1364,700 1361,704 1358,708 1355,712 1351,715 1347,718 1342,721 1338,723 1333,725 1328,727 1323,727 1317,728 Z"/>
       </g>
      </g>
      <g class="com.sun.star.drawing.PolyPolygonShape">
       <g id="id10">
        <rect class="BoundingBox" stroke="none" fill="none" x="762" y="1023" width="531" height="373"/>
        <path fill="rgb(255,46,46)" stroke="none" d="M 1205,1023 L 1197,1024 1188,1025 1180,1027 1176,1028 1172,1030 1168,1032 1165,1034 1161,1036 1157,1038 1154,1041 1151,1043 1147,1046 1144,1049 958,1235 763,1235 763,1394 987,1394 1000,1394 1013,1392 1026,1388 1038,1384 1049,1379 1060,1372 1071,1364 1080,1355 1265,1170 1268,1167 1271,1164 1274,1161 1276,1157 1279,1154 1281,1150 1283,1146 1285,1142 1286,1139 1287,1135 1290,1126 1291,1118 1291,1109 1291,1101 1289,1092 1287,1084 1284,1076 1281,1069 1276,1062 1271,1055 1266,1049 1260,1043 1253,1038 1246,1034 1238,1030 1231,1027 1222,1025 1214,1024 1205,1023 Z"/>
       </g>
      </g>
      <g class="com.sun.star.drawing.PolyPolygonShape">
       <g id="id11">
        <rect class="BoundingBox" stroke="none" fill="none" x="1437" y="596" width="154" height="255"/>
        <path fill="rgb(52,52,52)" stroke="none" d="M 1437,596 L 1437,850 1453,849 1467,847 1482,844 1496,840 1509,835 1522,828 1533,821 1544,813 1554,804 1563,794 1571,784 1577,773 1582,761 1586,749 1588,736 1589,723 1588,710 1586,697 1582,685 1577,673 1571,662 1563,652 1554,642 1544,633 1533,625 1522,618 1509,611 1496,606 1482,602 1467,599 1453,597 1437,596 Z"/>
       </g>
      </g>
      <g class="com.sun.star.drawing.PolyPolygonShape">
       <g id="id12">
        <rect class="BoundingBox" stroke="none" fill="none" x="726" y="596" width="153" height="255"/>
        <path fill="rgb(52,52,52)" stroke="none" d="M 878,596 L 862,597 847,599 832,602 818,606 805,611 793,618 781,625 770,633 760,642 752,652 744,662 738,673 733,685 729,697 727,710 726,723 727,736 729,749 733,761 738,773 744,784 752,794 760,804 770,813 781,821 793,828 805,835 818,840 832,844 847,847 862,849 878,850 878,596 Z"/>
       </g>
      </g>
     </g>
    </g>
   </g>
  </g>
 </g>
</svg>